<svg id="svg" version="1.1" xmlns="http://www.w3.org/2000/svg" xmlns:xlink="http://www.w3.org/1999/xlink" width="400" height="102.47933884297521" viewBox="0, 0, 400,102.47933884297521"><g id="svgg"><path id="path0" d="M93.836 14.396 C 93.827 27.743,93.836 28.000,94.309 28.000 C 94.561 28.000,94.583 26.923,94.583 14.667 L 94.583 1.333 94.214 1.333 L 93.845 1.333 93.836 14.396 M115.502 14.292 C 115.505 27.629,115.517 28.000,115.978 28.000 C 116.227 28.000,116.250 26.891,116.250 14.667 L 116.250 1.333 115.875 1.333 L 115.500 1.333 115.502 14.292 M137.167 14.679 C 137.167 26.664,137.183 27.355,137.458 27.302 C 137.949 27.207,137.991 2.000,137.501 2.000 C 137.169 2.000,137.167 2.098,137.167 14.679 M142.667 2.333 C 142.667 2.556,142.778 2.667,143.000 2.667 C 143.222 2.667,143.333 2.556,143.333 2.333 C 143.333 2.111,143.222 2.000,143.000 2.000 C 142.778 2.000,142.667 2.111,142.667 2.333 M234.434 2.264 C 234.379 2.409,234.333 8.114,234.333 14.942 L 234.333 27.357 234.708 27.303 L 235.083 27.250 235.126 14.625 C 235.168 2.319,235.161 2.000,234.852 2.000 C 234.678 2.000,234.490 2.119,234.434 2.264 M230.697 2.540 C 230.776 3.094,231.333 3.143,231.333 2.596 C 231.333 2.273,231.248 2.167,230.988 2.167 C 230.726 2.167,230.656 2.256,230.697 2.540 M230.003 3.458 C 230.009 3.767,230.324 4.039,230.567 3.946 C 230.998 3.781,230.889 3.333,230.417 3.333 C 230.188 3.333,230.001 3.390,230.003 3.458 M151.740 3.817 C 151.802 3.918,151.774 4.000,151.677 4.000 C 151.579 4.000,151.500 4.075,151.500 4.167 C 151.500 4.258,151.693 4.333,151.929 4.333 C 152.438 4.333,152.444 3.792,151.937 3.694 C 151.745 3.657,151.670 3.704,151.740 3.817 M229.503 4.708 C 229.511 5.386,230.175 5.522,230.275 4.866 C 230.320 4.572,230.250 4.500,229.916 4.500 C 229.687 4.500,229.501 4.594,229.503 4.708 M220.333 5.798 C 220.333 5.984,220.458 6.095,220.667 6.095 C 221.063 6.095,221.112 5.745,220.736 5.601 C 220.358 5.456,220.333 5.468,220.333 5.798 M229.000 6.068 C 229.000 6.387,229.068 6.451,229.333 6.382 C 229.518 6.333,229.667 6.154,229.667 5.981 C 229.667 5.778,229.549 5.667,229.333 5.667 C 229.092 5.667,229.000 5.778,229.000 6.068 M84.333 17.083 C 84.333 27.889,84.337 28.000,84.667 28.000 C 84.997 28.000,85.000 27.889,85.000 17.184 C 85.000 5.944,85.012 6.167,84.403 6.167 C 84.365 6.167,84.333 11.079,84.333 17.083 M215.167 6.500 C 215.167 6.774,215.253 6.844,215.542 6.803 C 215.748 6.774,215.917 6.638,215.917 6.500 C 215.917 6.362,215.748 6.226,215.542 6.197 C 215.253 6.156,215.167 6.226,215.167 6.500 M220.944 6.611 C 220.741 6.814,220.830 7.167,221.083 7.167 C 221.222 7.167,221.333 7.019,221.333 6.833 C 221.333 6.501,221.156 6.400,220.944 6.611 M223.500 6.904 C 223.500 7.227,223.585 7.333,223.845 7.333 C 224.107 7.333,224.177 7.244,224.137 6.960 C 224.058 6.406,223.500 6.357,223.500 6.904 M228.333 7.167 C 228.333 7.389,228.444 7.500,228.667 7.500 C 228.889 7.500,229.000 7.389,229.000 7.167 C 229.000 6.944,228.889 6.833,228.667 6.833 C 228.444 6.833,228.333 6.944,228.333 7.167 M216.042 7.444 C 215.692 7.585,215.793 8.167,216.167 8.167 C 216.411 8.167,216.500 8.056,216.500 7.750 C 216.500 7.333,216.431 7.287,216.042 7.444 M221.333 7.988 C 221.333 8.226,221.440 8.333,221.679 8.333 C 222.106 8.333,222.058 7.782,221.623 7.698 C 221.423 7.660,221.333 7.749,221.333 7.988 M222.833 8.083 C 222.833 8.389,222.922 8.500,223.167 8.500 C 223.411 8.500,223.500 8.389,223.500 8.083 C 223.500 7.778,223.411 7.667,223.167 7.667 C 222.922 7.667,222.833 7.778,222.833 8.083 M227.667 8.153 C 227.667 8.495,227.883 8.833,228.101 8.833 C 228.238 8.833,228.333 8.662,228.333 8.417 C 228.333 8.111,228.244 8.000,228.000 8.000 C 227.817 8.000,227.667 8.069,227.667 8.153 M145.111 8.444 C 144.915 8.641,144.993 9.000,145.232 9.000 C 145.426 9.000,145.667 8.669,145.667 8.403 C 145.667 8.291,145.232 8.323,145.111 8.444 M149.944 8.444 C 149.686 8.703,149.859 9.000,150.268 9.000 C 150.596 9.000,150.677 8.935,150.601 8.736 C 150.546 8.591,150.500 8.441,150.500 8.403 C 150.500 8.291,150.066 8.323,149.944 8.444 M216.500 8.917 C 216.500 9.383,216.904 9.491,217.066 9.068 C 217.193 8.739,217.056 8.500,216.740 8.500 C 216.595 8.500,216.500 8.665,216.500 8.917 M222.000 9.250 C 222.000 9.348,222.188 9.443,222.417 9.462 C 222.689 9.484,222.833 9.411,222.833 9.250 C 222.833 9.089,222.689 9.016,222.417 9.038 C 222.188 9.057,222.000 9.152,222.000 9.250 M217.000 10.000 C 217.000 10.222,217.111 10.333,217.333 10.333 C 217.556 10.333,217.667 10.222,217.667 10.000 C 217.667 9.778,217.556 9.667,217.333 9.667 C 217.111 9.667,217.000 9.778,217.000 10.000 M217.500 11.273 C 217.500 11.732,218.067 11.833,218.232 11.403 C 218.373 11.037,218.380 11.048,217.917 10.959 C 217.567 10.892,217.500 10.943,217.500 11.273 M218.000 12.230 C 218.000 12.356,218.116 12.555,218.257 12.673 C 218.574 12.935,218.929 12.655,218.777 12.261 C 218.654 11.939,218.000 11.913,218.000 12.230 M148.269 13.094 C 148.141 13.428,148.276 13.667,148.593 13.667 C 148.899 13.667,148.905 13.267,148.603 13.016 C 148.424 12.868,148.349 12.886,148.269 13.094 M218.875 13.277 C 218.582 13.395,218.616 13.778,218.930 13.899 C 219.319 14.048,219.333 14.037,219.333 13.583 C 219.333 13.166,219.264 13.120,218.875 13.277 M224.833 14.167 C 224.833 14.389,224.944 14.500,225.167 14.500 C 225.389 14.500,225.500 14.389,225.500 14.167 C 225.500 13.944,225.389 13.833,225.167 13.833 C 224.944 13.833,224.833 13.944,224.833 14.167 M147.333 15.167 C 147.333 15.350,147.408 15.500,147.500 15.500 C 147.592 15.500,147.667 15.350,147.667 15.167 C 147.667 14.983,147.592 14.833,147.500 14.833 C 147.408 14.833,147.333 14.983,147.333 15.167 M225.500 16.177 C 225.500 16.389,225.615 16.500,225.833 16.500 C 226.042 16.500,226.167 16.389,226.167 16.202 C 226.167 16.024,226.033 15.894,225.833 15.879 C 225.606 15.862,225.500 15.957,225.500 16.177 M226.101 17.264 C 225.955 17.644,225.967 17.667,226.316 17.667 C 226.632 17.667,226.897 17.286,226.711 17.100 C 226.524 16.913,226.203 16.999,226.101 17.264 M226.667 18.667 C 226.667 19.034,226.687 19.046,227.070 18.899 C 227.447 18.754,227.396 18.333,227.000 18.333 C 226.778 18.333,226.667 18.444,226.667 18.667 M142.833 19.333 C 142.833 19.608,142.920 19.678,143.208 19.637 C 143.415 19.607,143.583 19.471,143.583 19.333 C 143.583 19.196,143.415 19.059,143.208 19.030 C 142.920 18.989,142.833 19.059,142.833 19.333 M152.000 19.417 C 152.000 19.554,152.112 19.667,152.250 19.667 C 152.387 19.667,152.500 19.554,152.500 19.417 C 152.500 19.279,152.387 19.167,152.250 19.167 C 152.112 19.167,152.000 19.279,152.000 19.417 M227.278 19.444 C 227.048 19.674,227.179 20.000,227.500 20.000 C 227.722 20.000,227.833 19.889,227.833 19.667 C 227.833 19.345,227.507 19.215,227.278 19.444 M222.167 20.667 C 222.167 20.889,222.278 21.000,222.500 21.000 C 222.722 21.000,222.833 20.889,222.833 20.667 C 222.833 20.444,222.722 20.333,222.500 20.333 C 222.278 20.333,222.167 20.444,222.167 20.667 M227.768 20.764 C 227.621 21.146,227.633 21.167,228.000 21.167 C 228.222 21.167,228.333 21.056,228.333 20.833 C 228.333 20.438,227.913 20.386,227.768 20.764 M151.364 21.125 C 151.449 21.567,152.167 21.615,152.167 21.178 C 152.167 20.919,152.060 20.833,151.738 20.833 C 151.419 20.833,151.323 20.908,151.364 21.125 M222.865 21.790 C 222.948 22.224,223.500 22.273,223.500 21.846 C 223.500 21.607,223.393 21.500,223.154 21.500 C 222.916 21.500,222.826 21.590,222.865 21.790 M228.333 22.167 C 228.333 22.389,228.444 22.500,228.667 22.500 C 228.889 22.500,229.000 22.389,229.000 22.167 C 229.000 21.944,228.889 21.833,228.667 21.833 C 228.444 21.833,228.333 21.944,228.333 22.167 M220.333 22.881 C 220.333 23.273,220.889 23.201,220.967 22.799 C 221.004 22.604,220.916 22.527,220.677 22.545 C 220.462 22.561,220.333 22.687,220.333 22.881 M223.500 22.917 C 223.500 23.054,223.612 23.167,223.750 23.167 C 223.887 23.167,224.000 23.054,224.000 22.917 C 224.000 22.779,223.887 22.667,223.750 22.667 C 223.612 22.667,223.500 22.779,223.500 22.917 M7.700 23.033 C 7.590 23.143,7.500 23.293,7.500 23.367 C 7.500 23.440,10.537 23.500,14.250 23.500 C 20.139 23.500,21.000 23.468,21.000 23.250 C 21.000 22.909,8.748 22.868,8.610 23.208 C 8.560 23.333,8.521 23.299,8.513 23.125 C 8.498 22.790,7.999 22.734,7.700 23.033 M103.458 22.958 C 100.242 22.999,99.667 23.044,99.667 23.253 C 99.667 23.464,100.225 23.500,103.500 23.500 C 107.222 23.500,107.333 23.490,107.333 23.167 C 107.333 22.983,107.315 22.851,107.292 22.872 C 107.269 22.893,105.544 22.932,103.458 22.958 M121.167 23.208 C 121.167 23.478,121.460 23.500,125.000 23.500 C 128.255 23.500,128.833 23.463,128.833 23.256 C 128.833 23.050,128.233 23.004,125.000 22.964 C 121.442 22.920,121.166 22.938,121.167 23.208 M182.611 22.944 C 182.346 23.210,182.490 27.840,182.767 27.946 C 183.204 28.114,183.252 27.815,183.200 25.267 C 183.151 22.903,183.050 22.505,182.611 22.944 M208.847 23.125 C 208.752 23.287,208.675 23.324,208.672 23.208 C 208.663 22.867,197.000 22.909,197.000 23.250 C 197.000 23.468,197.824 23.500,203.417 23.500 C 209.722 23.500,209.833 23.494,209.833 23.167 C 209.833 22.737,209.091 22.706,208.847 23.125 M229.000 23.250 C 229.000 23.556,229.089 23.667,229.333 23.667 C 229.578 23.667,229.667 23.556,229.667 23.250 C 229.667 22.944,229.578 22.833,229.333 22.833 C 229.089 22.833,229.000 22.944,229.000 23.250 M246.375 22.960 C 241.010 22.998,240.167 23.038,240.167 23.252 C 240.167 23.467,241.011 23.500,246.556 23.500 C 252.038 23.500,252.944 23.466,252.944 23.257 C 252.944 23.124,252.888 23.049,252.820 23.092 C 252.751 23.134,252.670 23.112,252.639 23.043 C 252.608 22.973,249.790 22.936,246.375 22.960 M166.667 23.250 C 166.667 23.465,167.213 23.500,170.583 23.500 C 173.954 23.500,174.500 23.465,174.500 23.250 C 174.500 23.035,173.954 23.000,170.583 23.000 C 167.213 23.000,166.667 23.035,166.667 23.250 M219.667 24.083 C 219.667 24.414,219.740 24.510,219.958 24.468 C 220.119 24.437,220.250 24.264,220.250 24.083 C 220.250 23.903,220.119 23.729,219.958 23.698 C 219.740 23.656,219.667 23.753,219.667 24.083 M223.833 24.066 C 223.833 24.385,224.359 24.561,224.526 24.297 C 224.751 23.942,224.687 23.833,224.250 23.833 C 224.005 23.833,223.833 23.929,223.833 24.066 M229.561 24.249 C 229.503 24.399,229.536 24.602,229.633 24.700 C 229.887 24.954,230.368 24.722,230.302 24.377 C 230.228 23.994,229.694 23.901,229.561 24.249 M219.030 25.207 C 219.109 25.761,219.667 25.809,219.667 25.262 C 219.667 24.940,219.581 24.833,219.322 24.833 C 219.060 24.833,218.990 24.923,219.030 25.207 M224.500 25.298 C 224.500 25.476,224.634 25.606,224.833 25.621 C 225.061 25.638,225.167 25.543,225.167 25.323 C 225.167 25.111,225.052 25.000,224.833 25.000 C 224.624 25.000,224.500 25.111,224.500 25.298 M145.198 25.790 C 145.282 26.224,145.833 26.273,145.833 25.846 C 145.833 25.607,145.726 25.500,145.488 25.500 C 145.249 25.500,145.160 25.590,145.198 25.790 M218.456 26.100 C 218.269 26.286,218.535 26.667,218.851 26.667 C 219.056 26.667,219.167 26.549,219.167 26.333 C 219.167 26.016,218.695 25.860,218.456 26.100 M225.167 26.333 C 225.167 26.556,225.278 26.667,225.500 26.667 C 225.722 26.667,225.833 26.556,225.833 26.333 C 225.833 26.111,225.722 26.000,225.500 26.000 C 225.278 26.000,225.167 26.111,225.167 26.333 M217.833 27.583 C 217.833 27.889,217.922 28.000,218.167 28.000 C 218.411 28.000,218.500 27.889,218.500 27.583 C 218.500 27.278,218.411 27.167,218.167 27.167 C 217.922 27.167,217.833 27.278,217.833 27.583 M225.667 27.667 C 225.667 27.889,225.778 28.000,226.000 28.000 C 226.222 28.000,226.333 27.889,226.333 27.667 C 226.333 27.444,226.222 27.333,226.000 27.333 C 225.778 27.333,225.667 27.444,225.667 27.667 " stroke="none" fill="#9b9b9b" fill-rule="evenodd"></path><path id="path1" d="M115.413 14.583 C 115.413 21.733,115.433 24.634,115.458 21.029 C 115.483 17.425,115.483 11.575,115.458 8.029 C 115.433 4.484,115.413 7.433,115.413 14.583 M8.416 2.373 C 8.365 2.581,8.345 5.900,8.370 9.750 L 8.417 16.750 14.708 16.794 C 18.387 16.819,21.000 16.901,21.000 16.990 C 21.000 17.075,21.169 17.167,21.375 17.197 C 21.839 17.263,22.066 22.746,21.619 23.082 C 21.496 23.175,21.347 23.381,21.287 23.542 C 21.185 23.813,20.718 23.833,14.749 23.833 L 8.321 23.833 8.369 25.458 L 8.417 27.083 16.875 27.127 L 25.333 27.170 25.333 20.168 L 25.333 13.167 19.245 13.167 C 14.177 13.167,13.141 13.128,13.067 12.933 C 13.017 12.805,12.832 12.662,12.655 12.615 C 12.159 12.486,12.156 6.349,12.651 6.219 C 12.826 6.173,13.007 5.993,13.052 5.818 C 13.132 5.512,13.374 5.500,19.240 5.500 L 25.345 5.500 25.297 3.792 L 25.250 2.083 16.879 2.040 L 8.507 1.997 8.416 2.373 M30.111 2.111 C 30.050 2.172,30.000 7.835,30.000 14.694 L 30.000 27.167 32.000 27.167 L 34.000 27.167 34.003 22.292 C 34.004 19.516,34.073 17.309,34.163 17.167 C 34.360 16.854,42.667 16.681,42.667 16.989 C 42.667 17.087,42.816 17.167,42.998 17.167 C 43.319 17.167,43.330 17.305,43.373 22.125 L 43.417 27.083 45.167 27.083 L 46.917 27.083 46.963 14.917 C 46.988 8.225,46.967 2.579,46.916 2.369 C 46.827 1.999,46.775 1.990,45.120 2.036 L 43.417 2.083 43.373 7.375 C 43.335 11.926,43.294 12.667,43.081 12.667 C 42.945 12.667,42.833 12.779,42.833 12.917 C 42.833 13.132,42.269 13.167,38.750 13.167 C 35.384 13.167,34.667 13.126,34.667 12.936 C 34.667 12.809,34.517 12.666,34.333 12.618 C 34.009 12.534,34.000 12.391,34.000 7.266 L 34.000 2.000 32.111 2.000 C 31.072 2.000,30.172 2.050,30.111 2.111 M51.667 14.582 L 51.667 27.167 60.084 27.167 L 68.502 27.167 68.459 14.625 L 68.417 2.083 60.042 2.040 L 51.667 1.997 51.667 14.582 M73.278 2.111 C 73.217 2.172,73.167 2.960,73.167 3.861 L 73.167 5.500 76.349 5.500 C 79.391 5.500,79.535 5.515,79.618 5.833 C 79.666 6.017,79.809 6.167,79.936 6.167 C 80.130 6.167,80.167 7.838,80.167 16.667 L 80.167 27.167 82.083 27.167 L 84.000 27.167 84.000 16.667 C 84.000 9.778,84.057 6.167,84.167 6.167 C 84.258 6.167,84.333 6.063,84.333 5.936 C 84.333 5.578,84.887 5.505,87.625 5.502 L 90.167 5.500 90.167 4.014 C 90.167 3.196,90.121 2.409,90.066 2.264 C 89.960 1.989,73.549 1.840,73.278 2.111 M94.950 2.106 C 94.886 2.170,94.833 7.835,94.833 14.696 L 94.833 27.170 103.208 27.127 L 111.583 27.083 111.583 14.583 L 111.583 2.083 110.015 2.035 C 109.152 2.009,108.381 2.052,108.302 2.132 C 108.222 2.211,108.158 6.883,108.161 12.513 C 108.163 18.908,108.103 22.844,108.001 23.000 C 107.912 23.137,107.830 23.175,107.819 23.083 C 107.809 22.992,107.748 23.104,107.684 23.333 L 107.568 23.750 103.451 23.795 C 99.493 23.837,99.333 23.827,99.333 23.521 C 99.333 23.346,99.221 23.159,99.085 23.107 C 98.868 23.024,98.830 21.645,98.793 12.547 L 98.750 2.083 96.908 2.037 C 95.895 2.011,95.014 2.042,94.950 2.106 M116.444 2.111 C 116.383 2.172,116.333 7.835,116.333 14.694 L 116.333 27.167 125.167 27.167 L 134.000 27.167 134.000 20.167 L 134.000 13.167 129.250 13.167 L 124.500 13.167 124.500 15.000 L 124.500 16.833 126.657 16.833 C 127.915 16.833,128.857 16.903,128.917 17.000 C 128.973 17.092,129.165 17.167,129.343 17.167 C 129.651 17.167,129.667 17.308,129.667 20.167 C 129.667 22.722,129.630 23.167,129.417 23.167 C 129.277 23.167,129.167 23.315,129.167 23.503 C 129.167 23.832,129.082 23.838,125.042 23.795 L 120.917 23.750 120.863 23.373 C 120.834 23.165,120.740 23.038,120.655 23.091 C 120.560 23.149,120.500 19.870,120.500 14.677 C 120.500 9.863,120.564 6.167,120.647 6.167 C 120.728 6.167,120.834 6.017,120.882 5.833 C 120.967 5.507,121.109 5.500,127.484 5.500 L 134.000 5.500 134.000 3.750 L 134.000 2.000 125.278 2.000 C 120.481 2.000,116.506 2.050,116.444 2.111 M138.125 2.092 C 138.056 2.164,138.000 7.835,138.000 14.694 L 138.000 27.167 140.000 27.167 L 142.000 27.167 142.000 22.750 C 142.000 18.524,142.014 18.333,142.316 18.333 C 142.567 18.333,142.627 18.221,142.608 17.792 C 142.579 17.158,143.049 17.010,143.137 17.625 C 143.166 17.831,143.110 18.000,143.012 18.000 C 142.914 18.000,142.833 18.075,142.833 18.167 C 142.833 18.258,142.981 18.333,143.161 18.333 C 143.525 18.333,143.833 18.791,143.833 19.332 C 143.833 19.527,143.900 19.645,143.981 19.595 C 144.177 19.474,144.329 20.300,144.215 20.875 C 144.138 21.266,144.180 21.333,144.500 21.333 C 144.850 21.333,144.870 21.390,144.796 22.158 C 144.726 22.896,144.754 22.989,145.062 23.033 C 145.440 23.088,145.713 24.500,145.346 24.500 C 145.247 24.500,145.167 24.575,145.167 24.667 C 145.167 24.758,145.348 24.833,145.570 24.833 C 146.030 24.833,146.354 25.713,146.017 26.050 C 145.735 26.331,145.797 26.500,146.182 26.500 C 146.391 26.500,146.566 26.634,146.618 26.833 C 146.694 27.123,146.846 27.167,147.785 27.167 C 148.724 27.167,148.876 27.123,148.952 26.833 C 149.000 26.650,149.174 26.500,149.338 26.500 C 149.588 26.500,149.633 26.369,149.610 25.708 C 149.587 25.017,149.628 24.910,149.939 24.866 C 150.253 24.821,150.292 24.715,150.272 23.949 C 150.253 23.181,150.288 23.084,150.587 23.093 C 150.773 23.098,151.054 22.979,151.211 22.829 C 151.481 22.573,151.476 22.558,151.124 22.570 C 150.666 22.586,150.463 21.568,150.892 21.403 C 151.040 21.346,151.185 20.973,151.253 20.476 C 151.318 20.005,151.469 19.604,151.601 19.554 C 151.729 19.505,151.833 19.240,151.833 18.967 C 151.833 18.609,151.927 18.444,152.167 18.382 C 152.403 18.320,152.500 18.154,152.500 17.814 C 152.500 17.487,152.584 17.333,152.763 17.333 C 152.969 17.333,153.003 17.442,152.917 17.833 C 152.822 18.263,152.855 18.333,153.151 18.333 C 153.488 18.333,153.495 18.414,153.539 22.708 L 153.583 27.083 155.333 27.083 L 157.083 27.083 157.083 14.583 L 157.083 2.083 155.000 2.143 C 153.658 2.182,152.768 2.284,152.500 2.431 L 152.083 2.659 152.500 2.621 C 153.061 2.570,153.101 3.224,152.542 3.303 C 152.171 3.356,152.002 3.667,152.343 3.667 C 152.446 3.667,152.498 3.930,152.468 4.292 C 152.405 5.052,151.749 5.317,151.619 4.635 C 151.557 4.312,151.542 4.328,151.523 4.737 C 151.510 5.005,151.613 5.349,151.751 5.501 C 152.102 5.888,151.909 6.833,151.479 6.833 C 151.215 6.833,151.167 6.963,151.167 7.667 C 151.167 8.125,151.100 8.500,151.019 8.500 C 150.937 8.500,150.821 8.762,150.761 9.083 C 150.684 9.492,150.562 9.667,150.354 9.667 C 149.943 9.667,149.802 9.845,150.012 10.098 C 150.312 10.460,150.112 11.409,149.723 11.467 C 149.421 11.511,149.393 11.608,149.463 12.342 C 149.528 13.013,149.494 13.167,149.282 13.167 C 149.110 13.167,149.003 13.350,148.969 13.708 C 148.929 14.126,148.830 14.262,148.536 14.304 C 148.203 14.351,148.169 14.425,148.259 14.907 C 148.353 15.407,148.321 15.463,147.900 15.544 C 147.289 15.661,147.000 15.534,147.000 15.149 C 147.000 14.975,146.915 14.833,146.812 14.833 C 146.687 14.833,146.651 14.556,146.704 14.008 C 146.775 13.267,146.747 13.178,146.433 13.133 C 146.132 13.090,146.085 12.973,146.094 12.292 C 146.102 11.653,146.049 11.500,145.821 11.500 C 145.476 11.500,145.210 10.390,145.488 10.112 C 145.778 9.822,145.695 9.667,145.250 9.667 C 144.875 9.667,144.833 9.600,144.833 9.000 C 144.833 8.633,144.908 8.333,145.000 8.333 C 145.092 8.333,145.167 8.258,145.167 8.167 C 145.167 8.075,144.969 8.000,144.728 8.000 C 144.320 8.000,144.296 7.960,144.384 7.417 C 144.464 6.924,144.430 6.833,144.167 6.833 C 143.778 6.833,143.602 6.312,143.742 5.569 C 143.834 5.078,143.803 5.000,143.521 5.000 C 143.132 5.000,142.852 4.082,143.150 3.784 C 143.429 3.505,143.372 3.362,142.958 3.303 C 142.671 3.262,142.571 3.123,142.531 2.708 C 142.482 2.202,142.438 2.167,141.848 2.167 C 141.502 2.167,140.550 2.120,139.734 2.064 C 138.918 2.008,138.194 2.020,138.125 2.092 M161.946 2.110 C 161.884 2.172,161.833 7.835,161.833 14.694 L 161.833 27.167 170.250 27.167 L 178.667 27.167 178.667 20.164 L 178.667 13.161 174.292 13.206 L 169.917 13.250 169.869 15.042 L 169.822 16.833 172.161 16.833 C 173.447 16.833,174.500 16.900,174.500 16.981 C 174.500 17.062,174.650 17.167,174.833 17.215 C 175.255 17.325,175.361 22.866,174.946 23.117 C 174.824 23.190,174.677 23.381,174.618 23.542 C 174.453 23.990,166.547 23.990,166.382 23.542 C 166.323 23.381,166.176 23.190,166.054 23.117 C 165.876 23.009,165.833 21.394,165.833 14.667 C 165.833 7.939,165.876 6.324,166.054 6.217 C 166.176 6.143,166.323 5.952,166.382 5.792 C 166.482 5.521,166.932 5.500,172.584 5.500 L 178.678 5.500 178.631 3.792 L 178.583 2.083 170.321 2.040 C 165.777 2.016,162.008 2.048,161.946 2.110 M192.167 14.582 L 192.167 27.167 200.572 27.167 L 208.978 27.167 209.031 25.502 L 209.083 23.837 202.924 23.793 L 196.765 23.750 196.674 23.365 C 196.624 23.154,196.508 22.985,196.417 22.990 C 196.008 23.014,196.215 17.255,196.625 17.197 C 196.831 17.167,197.000 17.074,197.000 16.988 C 197.000 16.896,199.410 16.833,203.000 16.833 L 209.000 16.833 209.000 15.000 L 209.000 13.167 202.958 13.164 L 196.917 13.161 196.542 12.765 C 196.083 12.281,195.946 6.483,196.388 6.217 C 196.509 6.143,196.657 5.952,196.716 5.792 C 196.815 5.521,197.265 5.500,202.917 5.500 L 209.012 5.500 208.964 3.792 L 208.917 2.083 200.542 2.040 L 192.167 1.997 192.167 14.582 M214.259 2.208 C 213.965 3.162,213.988 3.333,214.413 3.333 C 214.722 3.333,214.833 3.422,214.833 3.667 C 214.833 3.850,214.754 4.000,214.657 4.000 C 214.404 4.000,214.537 5.215,214.796 5.266 C 214.913 5.289,214.931 5.270,214.838 5.224 C 214.525 5.069,214.633 4.302,214.958 4.369 C 215.178 4.415,215.242 4.575,215.217 5.019 C 215.188 5.524,215.235 5.606,215.541 5.596 C 215.811 5.586,215.939 5.726,216.066 6.167 C 216.159 6.487,216.332 6.849,216.450 6.970 C 216.569 7.091,216.712 7.372,216.768 7.595 C 216.824 7.818,216.936 8.000,217.018 8.000 C 217.100 8.000,217.167 8.095,217.167 8.211 C 217.167 8.327,217.317 8.701,217.500 9.044 C 217.683 9.386,217.833 9.781,217.833 9.921 C 217.833 10.062,217.941 10.219,218.073 10.269 C 218.205 10.320,218.361 10.580,218.420 10.847 C 218.478 11.115,218.592 11.333,218.672 11.333 C 218.753 11.333,218.866 11.591,218.925 11.905 C 218.984 12.220,219.134 12.516,219.257 12.563 C 219.381 12.610,219.531 12.915,219.592 13.240 C 219.653 13.565,219.764 13.793,219.838 13.747 C 220.036 13.625,220.202 14.552,220.074 15.062 C 220.002 15.346,219.851 15.500,219.641 15.500 C 219.364 15.500,219.333 15.581,219.425 16.070 C 219.520 16.578,219.490 16.645,219.141 16.695 C 218.809 16.742,218.758 16.832,218.802 17.292 C 218.866 17.956,218.243 18.108,218.118 17.458 C 218.073 17.226,218.037 17.321,218.023 17.708 C 218.010 18.052,218.075 18.333,218.167 18.333 C 218.522 18.333,218.330 18.977,217.958 19.030 C 217.644 19.075,217.592 19.170,217.638 19.625 C 217.683 20.083,217.637 20.167,217.338 20.167 C 217.025 20.167,216.997 20.232,217.094 20.750 C 217.191 21.267,217.164 21.333,216.852 21.333 C 216.561 21.333,216.500 21.434,216.500 21.917 C 216.500 22.389,216.437 22.500,216.166 22.500 C 215.892 22.500,215.840 22.597,215.874 23.042 C 215.910 23.494,215.854 23.592,215.536 23.637 C 215.200 23.685,215.168 23.757,215.263 24.262 C 215.357 24.761,215.327 24.833,215.030 24.833 C 214.810 24.833,214.664 24.701,214.618 24.458 C 214.573 24.226,214.537 24.321,214.523 24.708 C 214.510 25.052,214.575 25.333,214.667 25.333 C 214.758 25.333,214.833 25.483,214.833 25.667 C 214.833 25.912,214.722 26.000,214.413 26.000 C 214.010 26.000,213.953 26.453,214.283 27.042 C 214.466 27.369,217.695 27.177,217.785 26.833 C 217.833 26.650,217.933 26.500,218.006 26.500 C 218.080 26.500,218.190 26.275,218.250 26.001 C 218.310 25.727,218.485 25.432,218.638 25.346 C 218.791 25.260,218.901 25.129,218.882 25.053 C 218.824 24.821,219.029 24.167,219.161 24.167 C 219.229 24.167,219.358 23.923,219.448 23.625 C 219.538 23.327,219.689 23.099,219.785 23.118 C 219.880 23.137,220.001 22.893,220.052 22.575 C 220.104 22.257,220.263 21.880,220.406 21.736 C 220.550 21.593,220.667 21.329,220.667 21.150 C 220.667 20.970,220.772 20.783,220.900 20.733 C 221.029 20.684,221.172 20.499,221.218 20.322 C 221.267 20.133,221.446 20.000,221.651 20.000 C 221.843 20.000,222.001 19.906,222.003 19.792 C 222.004 19.640,222.038 19.636,222.128 19.775 C 222.195 19.880,222.438 19.993,222.667 20.025 C 222.950 20.065,223.100 20.204,223.137 20.461 C 223.166 20.668,223.256 20.798,223.337 20.748 C 223.417 20.698,223.533 20.922,223.593 21.245 C 223.657 21.583,223.802 21.833,223.935 21.833 C 224.063 21.833,224.167 21.966,224.167 22.127 C 224.167 22.289,224.317 22.701,224.500 23.044 C 224.683 23.386,224.833 23.741,224.833 23.833 C 224.833 23.925,224.983 24.150,225.167 24.333 C 225.350 24.517,225.500 24.810,225.500 24.986 C 225.500 25.162,225.556 25.331,225.625 25.361 C 225.694 25.392,225.946 25.792,226.185 26.250 L 226.619 27.083 228.481 27.131 C 230.480 27.181,231.288 26.998,230.458 26.683 C 229.998 26.508,229.827 25.960,230.167 25.750 C 230.444 25.579,230.355 25.406,229.973 25.377 C 229.552 25.345,229.339 25.066,229.336 24.542 C 229.334 24.326,229.230 24.167,229.091 24.167 C 228.946 24.167,228.805 23.933,228.739 23.585 C 228.679 23.265,228.563 23.044,228.482 23.095 C 228.400 23.145,228.333 23.084,228.333 22.960 C 228.333 22.645,227.944 21.836,227.792 21.835 C 227.723 21.834,227.666 21.702,227.666 21.542 C 227.665 21.381,227.515 21.025,227.333 20.750 C 227.151 20.475,227.002 20.127,227.001 19.976 C 227.000 19.826,226.895 19.662,226.766 19.612 C 226.637 19.563,226.478 19.278,226.412 18.979 C 226.346 18.680,226.189 18.332,226.063 18.206 C 225.937 18.080,225.833 17.840,225.833 17.673 C 225.833 17.506,225.725 17.327,225.593 17.277 C 225.460 17.226,225.302 16.918,225.241 16.594 C 225.180 16.269,225.063 16.044,224.982 16.095 C 224.900 16.145,224.820 16.013,224.804 15.802 C 224.706 14.503,224.702 14.196,224.771 13.708 C 224.829 13.304,224.933 13.167,225.182 13.167 C 225.472 13.167,225.501 13.092,225.406 12.583 C 225.304 12.041,225.326 12.000,225.721 12.000 C 226.113 12.000,226.138 11.955,226.051 11.417 C 225.937 10.714,226.582 10.512,226.716 11.208 C 226.769 11.487,226.794 11.448,226.811 11.056 C 226.823 10.765,226.927 10.490,227.042 10.444 C 227.156 10.397,227.081 10.354,226.875 10.346 C 226.323 10.327,226.353 9.667,226.906 9.667 C 227.277 9.667,227.304 9.616,227.218 9.083 C 227.158 8.717,227.190 8.500,227.304 8.500 C 227.403 8.500,227.534 8.237,227.594 7.917 C 227.655 7.596,227.756 7.333,227.821 7.333 C 227.885 7.333,228.041 7.071,228.167 6.750 C 228.293 6.429,228.457 6.167,228.531 6.167 C 228.606 6.167,228.667 6.017,228.667 5.833 C 228.667 5.650,228.809 5.358,228.983 5.184 C 229.157 5.010,229.350 4.635,229.413 4.350 C 229.475 4.066,229.587 3.833,229.661 3.833 C 229.736 3.833,229.845 3.571,229.906 3.250 C 229.971 2.901,230.112 2.667,230.258 2.667 C 230.644 2.667,230.538 2.216,230.125 2.105 C 229.225 1.864,226.125 2.142,225.771 2.496 C 225.641 2.625,225.707 2.663,226.004 2.630 C 226.553 2.568,226.603 3.224,226.054 3.302 C 225.739 3.346,225.703 3.430,225.784 3.927 C 225.866 4.430,225.834 4.500,225.521 4.500 C 225.224 4.500,225.172 4.587,225.208 5.026 C 225.244 5.476,225.183 5.570,224.781 5.681 C 224.237 5.831,223.833 6.131,223.833 6.386 C 223.833 6.484,223.934 6.425,224.058 6.256 C 224.182 6.087,224.369 6.002,224.475 6.068 C 224.710 6.213,224.731 6.833,224.500 6.833 C 224.408 6.833,224.331 6.927,224.328 7.042 C 224.321 7.313,223.339 9.292,223.317 9.079 C 223.308 8.990,223.248 9.104,223.185 9.333 C 223.026 9.909,221.859 10.050,221.718 9.511 C 221.668 9.322,221.565 9.167,221.488 9.167 C 221.411 9.167,221.300 8.909,221.241 8.595 C 221.182 8.280,221.029 7.983,220.900 7.933 C 220.772 7.884,220.667 7.697,220.667 7.517 C 220.667 7.337,220.558 7.082,220.425 6.949 C 220.292 6.816,220.129 6.492,220.064 6.228 C 219.998 5.965,219.846 5.675,219.725 5.583 C 219.431 5.361,219.229 4.333,219.479 4.333 C 219.582 4.333,219.667 4.258,219.667 4.167 C 219.667 4.075,219.514 4.000,219.328 4.000 C 218.903 4.000,218.719 3.554,218.975 3.145 C 219.146 2.871,219.118 2.833,218.736 2.833 C 218.452 2.833,218.274 2.725,218.220 2.521 C 218.089 2.017,214.407 1.727,214.259 2.208 M235.444 2.111 C 235.383 2.172,235.333 7.835,235.333 14.694 L 235.333 27.167 244.167 27.167 L 253.000 27.167 253.000 25.500 L 253.000 23.833 246.495 23.833 C 240.452 23.833,239.982 23.813,239.880 23.542 C 239.820 23.381,239.670 23.175,239.548 23.082 C 239.101 22.746,239.328 17.263,239.792 17.197 C 239.998 17.167,240.167 17.074,240.167 16.988 C 240.167 16.895,242.736 16.833,246.583 16.833 L 253.000 16.833 253.000 15.000 L 253.000 13.167 246.542 13.164 L 240.083 13.161 239.708 12.765 C 239.241 12.272,239.107 6.167,239.564 6.167 C 239.691 6.167,239.834 6.017,239.882 5.833 C 239.967 5.507,240.109 5.500,246.484 5.500 L 253.000 5.500 253.000 3.750 L 253.000 2.000 244.278 2.000 C 239.481 2.000,235.506 2.050,235.444 2.111 M16.292 6.458 C 17.965 6.485,20.702 6.485,22.375 6.458 C 24.048 6.431,22.679 6.409,19.333 6.409 C 15.987 6.409,14.619 6.431,16.292 6.458 M76.290 6.456 L 79.331 6.507 79.376 16.920 L 79.420 27.333 79.419 16.875 L 79.417 6.417 76.333 6.411 L 73.250 6.406 76.290 6.456 M86.208 6.457 C 86.919 6.488,88.081 6.488,88.792 6.457 C 89.502 6.426,88.921 6.400,87.500 6.400 C 86.079 6.400,85.498 6.426,86.208 6.457 M124.292 6.458 C 126.056 6.485,128.944 6.485,130.708 6.458 C 132.473 6.431,131.029 6.409,127.500 6.409 C 123.971 6.409,122.527 6.431,124.292 6.458 M169.625 6.458 C 171.298 6.485,174.035 6.485,175.708 6.458 C 177.381 6.431,176.012 6.409,172.667 6.409 C 169.321 6.409,167.952 6.431,169.625 6.458 M199.958 6.458 C 201.631 6.485,204.369 6.485,206.042 6.458 C 207.715 6.431,206.346 6.409,203.000 6.409 C 199.654 6.409,198.285 6.431,199.958 6.458 M243.292 6.458 C 245.056 6.485,247.944 6.485,249.708 6.458 C 251.473 6.431,250.029 6.409,246.500 6.409 C 242.971 6.409,241.527 6.431,243.292 6.458 M64.209 14.708 C 64.236 19.223,64.321 23.085,64.399 23.292 L 64.539 23.667 60.353 23.667 C 56.320 23.667,56.167 23.655,56.167 23.343 C 56.167 23.165,56.242 22.973,56.333 22.917 C 56.441 22.850,56.500 19.915,56.500 14.657 L 56.500 6.500 60.330 6.500 L 64.161 6.500 64.209 14.708 M183.500 25.380 L 183.500 27.177 185.458 27.130 L 187.417 27.083 187.417 25.417 L 187.417 23.750 185.458 23.667 L 183.499 23.583 183.500 25.380 " stroke="none" fill="#040404" fill-rule="evenodd"></path><path id="path2" d="M50.667 1.721 C 50.667 1.946,50.779 2.174,50.917 2.227 C 51.136 2.311,51.167 3.832,51.167 14.523 C 51.167 21.232,51.202 26.687,51.246 26.643 C 51.567 26.322,51.333 1.414,51.009 1.363 C 50.742 1.322,50.667 1.400,50.667 1.721 M72.500 3.917 C 72.500 6.266,72.526 6.500,72.792 6.500 C 73.057 6.500,73.083 6.266,73.083 3.917 C 73.083 1.568,73.057 1.333,72.792 1.333 C 72.526 1.333,72.500 1.567,72.500 3.917 M161.004 14.630 L 161.004 27.928 161.377 27.959 L 161.750 27.989 161.750 14.661 L 161.750 1.333 161.377 1.333 L 161.004 1.333 161.004 14.630 M191.319 1.403 C 191.041 1.681,191.437 27.916,191.721 27.971 C 191.967 28.018,192.015 27.939,191.971 27.556 C 191.940 27.287,191.827 27.101,191.708 27.125 C 191.366 27.194,191.407 2.238,191.750 2.106 C 192.115 1.966,192.070 1.333,191.694 1.333 C 191.526 1.333,191.358 1.365,191.319 1.403 M94.579 14.583 C 94.579 21.550,94.600 24.376,94.625 20.863 C 94.650 17.350,94.650 11.650,94.625 8.196 C 94.600 4.742,94.579 7.617,94.579 14.583 M116.246 14.583 C 116.246 21.550,116.266 24.376,116.292 20.863 C 116.317 17.350,116.317 11.650,116.292 8.196 C 116.266 4.742,116.246 7.617,116.246 14.583 M218.417 2.167 C 218.263 2.416,218.477 2.667,218.843 2.667 C 219.056 2.667,219.167 2.552,219.167 2.333 C 219.167 1.980,218.609 1.856,218.417 2.167 M235.167 14.700 C 235.121 21.639,235.140 27.260,235.209 27.191 C 235.279 27.121,235.316 21.444,235.293 14.574 L 235.250 2.083 235.167 14.700 M219.083 3.139 C 218.858 3.365,219.026 3.833,219.333 3.833 C 219.571 3.833,219.667 3.722,219.667 3.444 C 219.667 3.092,219.314 2.908,219.083 3.139 M143.278 3.778 C 143.048 4.007,143.179 4.333,143.500 4.333 C 143.722 4.333,143.833 4.222,143.833 4.000 C 143.833 3.679,143.507 3.548,143.278 3.778 M152.275 3.961 C 152.337 4.200,152.272 4.327,152.057 4.382 C 151.774 4.455,151.773 4.463,152.047 4.481 C 152.404 4.504,152.616 4.049,152.365 3.798 C 152.237 3.670,152.211 3.716,152.275 3.961 M219.762 4.429 C 219.448 4.743,219.559 5.000,220.010 5.000 C 220.219 5.000,220.333 4.886,220.333 4.677 C 220.333 4.226,220.076 4.114,219.762 4.429 M151.167 5.833 C 151.167 6.056,151.278 6.167,151.500 6.167 C 151.722 6.167,151.833 6.056,151.833 5.833 C 151.833 5.611,151.722 5.500,151.500 5.500 C 151.278 5.500,151.167 5.611,151.167 5.833 M228.891 5.757 C 228.837 5.899,228.839 6.061,228.896 6.118 C 228.953 6.175,229.000 6.102,229.000 5.956 C 229.000 5.810,229.169 5.657,229.375 5.618 L 229.750 5.545 229.370 5.523 C 229.161 5.510,228.945 5.616,228.891 5.757 M220.778 6.611 C 220.507 6.882,220.676 7.333,221.042 7.314 C 221.347 7.298,221.360 7.280,221.110 7.215 C 220.903 7.162,220.830 7.032,220.886 6.818 C 220.975 6.477,220.953 6.436,220.778 6.611 M144.889 8.595 C 144.834 8.738,144.869 8.936,144.967 9.033 C 145.187 9.253,145.671 9.087,145.654 8.797 C 145.643 8.630,145.622 8.628,145.556 8.792 C 145.411 9.153,144.951 9.040,145.048 8.667 C 145.151 8.272,145.033 8.219,144.889 8.595 M222.833 9.260 C 222.833 9.548,222.186 9.540,221.946 9.250 C 221.863 9.150,221.835 9.184,221.875 9.333 C 221.988 9.754,223.000 9.763,223.000 9.344 C 223.000 9.155,222.963 9.000,222.917 9.000 C 222.871 9.000,222.833 9.117,222.833 9.260 M145.500 10.417 C 145.500 10.722,145.589 10.833,145.833 10.833 C 146.078 10.833,146.167 10.722,146.167 10.417 C 146.167 10.111,146.078 10.000,145.833 10.000 C 145.589 10.000,145.500 10.111,145.500 10.417 M148.625 13.000 C 148.965 13.381,148.883 13.719,148.476 13.612 C 148.221 13.545,148.170 13.570,148.298 13.698 C 148.526 13.926,149.000 13.753,149.000 13.442 C 149.000 13.313,148.869 13.108,148.708 12.987 C 148.460 12.799,148.448 12.801,148.625 13.000 M219.333 14.583 C 219.333 14.722,219.481 14.833,219.667 14.833 C 219.852 14.833,220.000 14.722,220.000 14.583 C 220.000 14.444,219.852 14.333,219.667 14.333 C 219.481 14.333,219.333 14.444,219.333 14.583 M224.833 15.167 C 224.833 15.389,224.944 15.500,225.167 15.500 C 225.389 15.500,225.500 15.389,225.500 15.167 C 225.500 14.944,225.389 14.833,225.167 14.833 C 224.944 14.833,224.833 14.944,224.833 15.167 M225.353 16.292 C 225.337 16.599,225.416 16.663,225.792 16.644 C 226.169 16.625,226.186 16.609,225.885 16.550 C 225.685 16.511,225.487 16.353,225.446 16.198 C 225.394 15.999,225.366 16.026,225.353 16.292 M226.667 17.488 C 226.667 17.574,226.498 17.676,226.292 17.716 C 225.970 17.778,225.982 17.791,226.375 17.811 C 226.681 17.826,226.833 17.750,226.833 17.583 C 226.833 17.446,226.796 17.333,226.750 17.333 C 226.704 17.333,226.667 17.403,226.667 17.488 M151.853 19.375 C 151.866 19.641,151.894 19.668,151.946 19.469 C 151.987 19.314,152.147 19.154,152.302 19.113 C 152.501 19.060,152.474 19.033,152.208 19.019 C 151.920 19.004,151.838 19.086,151.853 19.375 M222.448 20.275 C 222.649 20.318,222.851 20.480,222.897 20.635 C 222.957 20.838,222.971 20.823,222.947 20.583 C 222.924 20.357,222.780 20.241,222.498 20.223 C 222.151 20.200,222.142 20.208,222.448 20.275 M221.333 20.667 C 221.333 20.889,221.444 21.000,221.667 21.000 C 221.889 21.000,222.000 20.889,222.000 20.667 C 222.000 20.444,221.889 20.333,221.667 20.333 C 221.444 20.333,221.333 20.444,221.333 20.667 M220.730 21.575 C 220.611 21.885,220.784 22.167,221.093 22.167 C 221.238 22.167,221.333 22.002,221.333 21.750 C 221.333 21.292,220.888 21.163,220.730 21.575 M223.698 22.613 C 223.853 22.654,224.013 22.814,224.054 22.969 C 224.106 23.168,224.134 23.141,224.147 22.875 C 224.162 22.586,224.080 22.504,223.792 22.519 C 223.526 22.533,223.499 22.560,223.698 22.613 M8.513 23.123 C 8.521 23.297,8.560 23.332,8.610 23.208 C 8.747 22.869,21.000 22.909,21.000 23.248 C 21.000 23.463,20.100 23.502,14.292 23.543 L 7.583 23.589 14.333 23.586 C 20.971 23.583,21.083 23.578,21.083 23.250 C 21.083 22.923,20.958 22.916,14.792 22.873 C 8.874 22.832,8.501 22.847,8.513 23.123 M99.429 23.111 C 99.231 23.627,99.596 23.673,103.509 23.628 C 107.103 23.587,107.414 23.560,107.439 23.288 C 107.458 23.082,107.442 23.070,107.387 23.247 C 107.271 23.623,99.667 23.629,99.667 23.253 C 99.667 23.044,100.242 22.999,103.458 22.958 L 107.250 22.910 103.393 22.872 C 99.924 22.837,99.525 22.861,99.429 23.111 M125.042 22.958 C 128.258 22.999,128.833 23.044,128.833 23.253 C 128.833 23.590,121.234 23.628,121.121 23.292 C 121.081 23.172,121.059 23.190,121.069 23.333 C 121.090 23.617,128.760 23.807,129.036 23.531 C 129.637 22.930,129.054 22.832,125.107 22.872 L 121.250 22.910 125.042 22.958 M166.556 23.095 C 166.355 23.620,166.770 23.673,170.678 23.625 L 174.583 23.577 170.625 23.538 C 167.256 23.506,166.667 23.463,166.667 23.253 C 166.667 23.043,167.261 22.999,170.625 22.958 L 174.583 22.910 170.620 22.872 C 167.152 22.838,166.644 22.866,166.556 23.095 M183.233 25.167 C 183.233 26.496,183.259 27.040,183.290 26.375 C 183.322 25.710,183.322 24.623,183.290 23.958 C 183.259 23.294,183.233 23.837,183.233 25.167 M196.889 23.095 C 196.681 23.636,197.112 23.671,203.510 23.625 L 209.917 23.579 203.458 23.540 C 197.846 23.505,197.000 23.467,197.000 23.250 C 197.000 22.916,208.594 22.867,208.706 23.200 C 208.747 23.325,208.813 23.294,208.881 23.117 C 208.982 22.853,208.567 22.833,202.990 22.833 C 197.696 22.833,196.978 22.864,196.889 23.095 M240.056 23.095 C 239.848 23.636,240.279 23.671,246.677 23.625 L 253.083 23.579 246.625 23.540 C 241.037 23.505,240.167 23.467,240.167 23.252 C 240.167 23.038,241.011 22.998,246.375 22.958 L 252.583 22.912 246.370 22.873 C 240.858 22.838,240.145 22.863,240.056 23.095 M144.667 24.083 C 144.667 24.389,144.756 24.500,145.000 24.500 C 145.244 24.500,145.333 24.389,145.333 24.083 C 145.333 23.778,145.244 23.667,145.000 23.667 C 144.756 23.667,144.667 23.778,144.667 24.083 M224.781 24.950 C 224.982 24.989,225.180 25.147,225.220 25.302 C 225.273 25.501,225.300 25.474,225.314 25.208 C 225.330 24.901,225.251 24.837,224.875 24.856 C 224.498 24.875,224.481 24.891,224.781 24.950 M145.448 25.450 C 145.649 25.489,145.846 25.647,145.887 25.802 C 145.940 26.001,145.967 25.974,145.981 25.708 C 145.997 25.401,145.918 25.337,145.542 25.356 C 145.164 25.375,145.148 25.391,145.448 25.450 M50.667 27.236 C 50.667 27.696,50.873 28.000,51.184 28.000 C 51.505 28.000,51.581 27.739,51.399 27.264 C 51.273 26.936,50.667 26.914,50.667 27.236 M84.205 27.500 C 84.205 27.821,84.240 27.952,84.282 27.792 C 84.323 27.631,84.323 27.369,84.282 27.208 C 84.240 27.048,84.205 27.179,84.205 27.500 M225.948 27.283 C 226.159 27.324,226.343 27.508,226.384 27.719 C 226.442 28.019,226.459 28.002,226.477 27.625 C 226.497 27.226,226.441 27.170,226.042 27.189 C 225.664 27.208,225.648 27.225,225.948 27.283 M149.066 27.597 C 149.121 27.742,149.167 27.892,149.167 27.930 C 149.167 27.969,149.254 28.000,149.361 28.000 C 149.468 28.000,149.506 27.951,149.446 27.890 C 149.386 27.830,149.420 27.680,149.522 27.557 C 149.668 27.381,149.628 27.333,149.336 27.333 C 149.066 27.333,148.992 27.405,149.066 27.597 " stroke="none" fill="#6c6c6c" fill-rule="evenodd"></path><path id="path3" d="M29.169 14.413 C 29.175 27.859,29.179 28.000,29.643 28.000 C 29.895 28.000,29.917 26.923,29.917 14.667 L 29.917 1.333 29.540 1.333 L 29.163 1.333 29.169 14.413 M34.167 1.762 C 34.167 2.309,34.724 2.261,34.803 1.707 C 34.844 1.423,34.774 1.333,34.512 1.333 C 34.252 1.333,34.167 1.440,34.167 1.762 M51.391 1.625 C 51.392 1.785,51.361 7.504,51.323 14.333 L 51.253 26.750 51.168 14.514 C 51.102 4.934,51.038 2.263,50.875 2.208 C 50.710 2.153,50.667 4.699,50.667 14.569 C 50.667 26.829,50.671 27.000,50.995 27.000 C 51.221 27.000,51.365 27.157,51.454 27.501 C 51.525 27.776,51.583 22.001,51.583 14.667 C 51.583 7.334,51.540 1.333,51.487 1.333 C 51.434 1.333,51.391 1.465,51.391 1.625 M94.746 14.667 C 94.746 22.046,94.767 25.065,94.792 21.375 C 94.817 17.685,94.817 11.648,94.792 7.958 C 94.767 4.269,94.746 7.287,94.746 14.667 M142.120 1.555 C 141.960 1.963,141.954 1.949,142.333 2.048 C 142.517 2.096,142.667 2.067,142.667 1.984 C 142.667 1.901,142.597 1.833,142.512 1.833 C 142.427 1.833,142.331 1.702,142.299 1.542 C 142.244 1.271,142.232 1.272,142.120 1.555 M152.833 1.667 C 152.833 1.911,152.944 2.000,153.250 2.000 C 153.556 2.000,153.667 1.911,153.667 1.667 C 153.667 1.422,153.556 1.333,153.250 1.333 C 152.944 1.333,152.833 1.422,152.833 1.667 M192.000 1.672 C 192.000 1.858,191.887 2.054,191.750 2.106 C 191.416 2.235,191.365 27.195,191.699 27.125 C 191.809 27.102,191.950 27.308,192.013 27.583 C 192.076 27.858,192.136 22.065,192.147 14.708 C 192.158 7.352,192.129 1.333,192.083 1.333 C 192.037 1.333,192.000 1.486,192.000 1.672 M217.833 1.635 C 217.833 1.824,217.978 1.999,218.177 2.051 C 218.454 2.123,218.510 2.072,218.468 1.780 C 218.401 1.311,217.833 1.181,217.833 1.635 M226.333 1.667 C 226.333 1.911,226.444 2.000,226.750 2.000 C 227.056 2.000,227.167 1.911,227.167 1.667 C 227.167 1.422,227.056 1.333,226.750 1.333 C 226.444 1.333,226.333 1.422,226.333 1.667 M191.246 14.667 C 191.246 21.863,191.267 24.806,191.292 21.208 C 191.317 17.610,191.317 11.723,191.292 8.125 C 191.267 4.527,191.246 7.471,191.246 14.667 M161.746 14.667 C 161.746 21.679,161.766 24.548,161.792 21.042 C 161.817 17.535,161.817 11.798,161.792 8.292 C 161.766 4.785,161.746 7.654,161.746 14.667 M73.062 3.833 C 73.062 4.796,73.089 5.190,73.123 4.708 C 73.157 4.227,73.157 3.440,73.123 2.958 C 73.089 2.477,73.062 2.871,73.062 3.833 M19.500 5.624 C 14.729 5.659,13.381 5.715,13.250 5.886 C 13.158 6.006,12.952 6.153,12.792 6.213 C 12.528 6.312,12.500 6.623,12.500 9.411 L 12.500 12.500 12.917 12.500 L 13.333 12.500 13.333 9.417 L 13.333 6.333 19.750 6.333 C 25.935 6.333,26.167 6.322,26.167 6.018 C 26.167 5.765,25.723 5.382,25.611 5.540 C 25.596 5.561,22.846 5.599,19.500 5.624 M87.667 5.667 C 85.370 5.736,84.917 5.791,84.917 6.000 C 84.917 6.211,85.377 6.257,87.875 6.296 C 90.695 6.339,90.833 6.326,90.833 6.022 C 90.833 5.580,90.765 5.573,87.667 5.667 M143.833 5.833 C 143.833 6.056,143.944 6.167,144.167 6.167 C 144.389 6.167,144.500 6.056,144.500 5.833 C 144.500 5.611,144.389 5.500,144.167 5.500 C 143.944 5.500,143.833 5.611,143.833 5.833 M172.875 5.667 C 169.460 5.712,166.666 5.806,166.667 5.875 C 166.667 5.944,166.667 6.076,166.667 6.169 C 166.667 6.492,179.402 6.304,179.464 5.979 C 179.542 5.576,179.564 5.577,172.875 5.667 M203.125 5.667 C 199.756 5.712,197.000 5.806,197.000 5.875 C 197.000 5.944,197.000 6.075,197.000 6.167 C 197.000 6.275,199.250 6.333,203.417 6.333 L 209.833 6.333 209.833 5.952 C 209.833 5.698,209.736 5.573,209.542 5.577 C 209.381 5.581,206.494 5.621,203.125 5.667 M73.167 5.993 C 73.167 6.304,73.317 6.322,76.334 6.368 L 79.500 6.417 79.500 6.042 L 79.500 5.667 76.333 5.667 C 73.300 5.667,73.167 5.680,73.167 5.993 M121.167 6.002 C 121.167 6.492,133.874 6.448,133.968 5.958 C 134.021 5.685,133.629 5.667,127.596 5.667 C 121.265 5.667,121.167 5.672,121.167 6.002 M240.074 5.848 C 239.803 6.287,240.514 6.336,246.591 6.294 C 252.459 6.253,252.916 6.229,252.968 5.958 C 253.036 5.604,240.292 5.495,240.074 5.848 M84.245 16.583 C 84.245 22.358,84.266 24.697,84.292 21.780 C 84.317 18.863,84.317 14.138,84.292 11.280 C 84.266 8.422,84.245 10.808,84.245 16.583 M221.223 8.167 C 221.243 8.473,221.350 8.589,221.628 8.606 C 221.921 8.623,221.933 8.611,221.679 8.554 C 221.500 8.513,221.318 8.315,221.275 8.115 C 221.209 7.811,221.200 7.820,221.223 8.167 M149.333 10.417 C 149.333 10.722,149.422 10.833,149.667 10.833 C 149.911 10.833,150.000 10.722,150.000 10.417 C 150.000 10.111,149.911 10.000,149.667 10.000 C 149.422 10.000,149.333 10.111,149.333 10.417 M146.167 12.250 C 146.167 12.556,146.256 12.667,146.500 12.667 C 146.744 12.667,146.833 12.556,146.833 12.250 C 146.833 11.944,146.744 11.833,146.500 11.833 C 146.256 11.833,146.167 11.944,146.167 12.250 M123.760 12.463 C 123.452 12.771,123.675 16.833,124.000 16.833 C 124.311 16.833,124.333 16.722,124.333 15.188 C 124.333 14.282,124.378 13.318,124.433 13.044 C 124.528 12.569,124.058 12.164,123.760 12.463 M220.000 14.639 C 220.000 14.746,219.831 14.842,219.625 14.853 C 219.316 14.869,219.305 14.886,219.559 14.952 C 219.892 15.037,220.302 14.746,220.114 14.558 C 220.051 14.496,220.000 14.532,220.000 14.639 M225.894 17.250 C 225.737 17.658,225.962 18.002,226.370 17.977 L 226.750 17.955 226.358 17.880 C 226.047 17.821,225.982 17.723,226.043 17.403 C 226.129 16.954,226.042 16.864,225.894 17.250 M227.056 19.833 C 227.076 20.140,227.183 20.256,227.461 20.272 C 227.754 20.289,227.766 20.278,227.513 20.220 C 227.334 20.180,227.152 19.982,227.108 19.781 C 227.042 19.478,227.033 19.486,227.056 19.833 M223.115 21.275 C 223.315 21.318,223.513 21.500,223.554 21.679 C 223.611 21.933,223.623 21.921,223.606 21.628 C 223.589 21.350,223.473 21.243,223.167 21.223 C 222.820 21.200,222.811 21.209,223.115 21.275 M144.167 22.262 C 144.167 22.809,144.724 22.761,144.803 22.207 C 144.844 21.923,144.774 21.833,144.512 21.833 C 144.252 21.833,144.167 21.940,144.167 22.262 M21.083 23.266 C 21.083 23.486,21.140 23.667,21.208 23.667 C 21.277 23.667,21.333 23.521,21.333 23.343 C 21.333 23.165,21.277 22.985,21.208 22.942 C 21.140 22.900,21.083 23.046,21.083 23.266 M56.444 22.944 C 55.947 23.442,56.356 23.500,60.351 23.500 C 63.946 23.500,64.358 23.472,64.268 23.236 C 64.212 23.091,64.167 22.941,64.167 22.903 C 64.167 22.785,56.563 22.826,56.444 22.944 M239.944 22.944 C 239.793 23.096,239.804 23.667,239.958 23.667 C 240.027 23.667,240.083 23.479,240.083 23.250 C 240.083 23.021,240.077 22.833,240.069 22.833 C 240.062 22.833,240.006 22.883,239.944 22.944 M188.232 25.417 C 188.233 26.700,188.259 27.203,188.291 26.534 C 188.322 25.866,188.322 24.816,188.290 24.201 C 188.258 23.586,188.232 24.133,188.232 25.417 M144.948 23.608 C 145.149 23.652,145.346 23.834,145.387 24.013 C 145.445 24.266,145.456 24.254,145.439 23.961 C 145.423 23.683,145.306 23.576,145.000 23.556 C 144.653 23.533,144.644 23.542,144.948 23.608 M223.833 23.632 C 223.833 23.718,224.032 23.749,224.274 23.703 C 224.678 23.626,224.707 23.657,224.628 24.072 C 224.572 24.365,224.599 24.468,224.703 24.364 C 225.004 24.063,224.768 23.586,224.290 23.531 C 224.039 23.502,223.833 23.547,223.833 23.632 M218.896 24.911 C 218.844 25.046,218.841 25.252,218.888 25.370 C 218.935 25.487,218.980 25.420,218.987 25.220 C 218.995 24.981,219.129 24.832,219.375 24.784 L 219.750 24.712 219.370 24.689 C 219.161 24.677,218.947 24.777,218.896 24.911 M149.667 25.823 C 149.667 26.043,149.773 26.138,150.000 26.121 C 150.397 26.091,150.443 25.745,150.070 25.601 C 149.688 25.455,149.667 25.467,149.667 25.823 M225.448 25.941 C 225.649 25.985,225.846 26.167,225.887 26.346 C 225.945 26.599,225.956 26.588,225.939 26.294 C 225.923 26.017,225.806 25.909,225.500 25.889 C 225.153 25.867,225.144 25.875,225.448 25.941 M34.266 27.123 C 34.012 27.377,34.178 28.000,34.500 28.000 C 34.740 28.000,34.833 27.889,34.833 27.601 C 34.833 27.218,34.474 26.915,34.266 27.123 M149.020 27.213 C 148.783 27.451,148.776 28.000,149.011 28.000 C 149.111 28.000,149.144 27.859,149.087 27.679 C 149.009 27.434,149.076 27.345,149.368 27.303 C 149.672 27.258,149.695 27.225,149.479 27.137 C 149.329 27.076,149.123 27.110,149.020 27.213 M183.372 27.500 C 183.372 27.821,183.406 27.952,183.448 27.792 C 183.490 27.631,183.490 27.369,183.448 27.208 C 183.406 27.048,183.372 27.179,183.372 27.500 " stroke="none" fill="#434343" fill-rule="evenodd"></path><path id="path4" d="M7.601 1.597 C 7.469 1.941,7.469 16.225,7.601 16.570 C 7.657 16.715,7.863 16.833,8.059 16.833 L 8.417 16.833 8.369 9.792 C 8.343 5.919,8.364 2.581,8.415 2.373 L 8.507 1.997 16.879 2.040 L 25.250 2.083 25.297 3.790 L 25.345 5.496 19.216 5.540 C 13.236 5.582,13.086 5.591,13.029 5.917 C 12.974 6.226,12.986 6.229,13.193 5.961 C 13.398 5.697,13.953 5.672,19.792 5.659 L 26.167 5.645 26.167 3.489 L 26.167 1.333 16.934 1.333 C 8.670 1.333,7.692 1.361,7.601 1.597 M29.938 1.854 C 29.802 2.531,29.805 26.555,29.940 27.375 L 30.044 28.000 32.094 28.000 L 34.145 28.000 34.197 27.542 C 34.235 27.212,34.332 27.097,34.542 27.132 C 34.814 27.178,34.833 26.846,34.833 22.091 C 34.833 17.207,34.821 17.000,34.518 17.000 C 34.023 17.000,34.000 17.238,34.000 22.347 L 34.000 27.167 31.999 27.167 L 29.998 27.167 30.041 14.625 L 30.083 2.083 32.042 2.036 L 34.000 1.989 34.000 7.260 C 34.000 12.391,34.009 12.534,34.333 12.618 C 34.517 12.666,34.667 12.809,34.667 12.936 C 34.667 13.126,35.384 13.167,38.750 13.167 C 42.269 13.167,42.833 13.132,42.833 12.917 C 42.833 12.779,42.945 12.667,43.081 12.667 C 43.294 12.667,43.335 11.926,43.373 7.375 L 43.417 2.083 45.120 2.036 C 46.775 1.990,46.827 1.999,46.916 2.369 C 46.967 2.579,46.988 8.225,46.963 14.917 L 46.917 27.083 45.167 27.083 L 43.417 27.083 43.373 22.125 C 43.330 17.305,43.319 17.167,42.998 17.167 C 42.674 17.167,42.667 17.291,42.667 22.588 L 42.667 28.009 45.125 27.963 L 47.583 27.917 47.626 14.625 L 47.669 1.333 45.168 1.333 L 42.667 1.333 42.667 6.833 L 42.667 12.333 38.750 12.333 L 34.833 12.333 34.833 7.182 C 34.833 2.113,34.828 2.033,34.500 2.118 C 34.229 2.189,34.167 2.123,34.167 1.769 L 34.167 1.333 32.104 1.333 L 30.042 1.333 29.938 1.854 M51.667 1.662 C 51.667 1.992,51.782 1.998,60.042 2.040 L 68.417 2.083 68.459 14.625 L 68.502 27.167 60.084 27.167 L 51.667 27.167 51.626 14.625 L 51.586 2.083 51.535 14.167 C 51.508 20.813,51.531 26.644,51.588 27.126 L 51.691 28.003 60.471 27.960 L 69.250 27.917 69.289 14.631 L 69.328 1.345 60.497 1.336 C 51.765 1.328,51.667 1.332,51.667 1.662 M73.167 1.708 L 73.167 2.083 81.530 2.039 C 88.143 2.003,89.921 2.038,90.027 2.205 C 90.101 2.322,90.163 3.110,90.164 3.958 L 90.167 5.500 87.625 5.502 C 84.887 5.505,84.333 5.578,84.333 5.936 C 84.333 6.240,84.665 6.231,84.898 5.920 C 85.048 5.721,85.631 5.671,87.958 5.657 L 90.833 5.639 90.833 3.486 L 90.833 1.333 82.000 1.333 L 73.167 1.333 73.167 1.708 M94.833 1.704 C 94.833 2.077,94.864 2.083,96.791 2.083 L 98.750 2.083 98.833 12.569 C 98.896 20.427,98.966 23.072,99.114 23.121 C 99.632 23.294,99.669 22.485,99.626 11.967 L 99.583 1.417 97.208 1.370 C 94.835 1.324,94.833 1.324,94.833 1.704 M107.336 12.037 C 107.338 21.931,107.385 23.195,107.750 23.195 C 108.117 23.195,108.164 21.959,108.161 12.513 C 108.158 6.883,108.222 2.211,108.302 2.132 C 108.381 2.052,109.152 2.009,110.015 2.035 L 111.583 2.083 111.583 14.583 L 111.583 27.083 103.208 27.127 L 94.833 27.170 94.833 27.586 L 94.833 28.003 103.625 27.960 L 112.417 27.917 112.417 14.667 L 112.417 1.417 109.875 1.371 L 107.333 1.325 107.336 12.037 M116.333 1.708 L 116.333 2.083 125.167 2.039 C 133.848 1.995,134.000 1.989,134.000 1.664 C 134.000 1.338,133.863 1.333,125.167 1.333 L 116.333 1.333 116.333 1.708 M137.788 14.625 L 137.827 27.917 140.247 27.963 L 142.667 28.009 142.667 23.171 C 142.667 18.444,142.659 18.333,142.333 18.333 C 142.008 18.333,142.000 18.444,142.000 22.750 L 142.000 27.167 139.999 27.167 L 137.998 27.167 138.041 14.625 L 138.083 2.083 140.333 2.115 C 141.571 2.132,142.449 2.107,142.285 2.059 C 142.079 2.000,142.018 1.874,142.088 1.653 C 142.184 1.349,142.082 1.333,139.970 1.333 L 137.750 1.333 137.788 14.625 M153.667 1.651 C 153.667 1.877,153.526 2.002,153.208 2.058 C 152.956 2.102,153.725 2.125,154.917 2.110 L 157.083 2.083 157.083 14.583 L 157.083 27.083 155.333 27.083 L 153.583 27.083 153.539 22.708 C 153.496 18.472,153.484 18.333,153.164 18.333 C 152.813 18.333,152.633 27.260,152.974 27.796 C 153.076 27.957,153.701 27.998,155.513 27.963 L 157.917 27.917 157.917 14.667 L 157.917 1.417 155.792 1.370 C 153.775 1.326,153.667 1.340,153.667 1.651 M161.833 1.708 L 161.833 2.083 170.208 2.083 L 178.583 2.083 178.631 3.792 L 178.678 5.500 172.584 5.500 C 166.932 5.500,166.482 5.521,166.382 5.792 C 166.323 5.952,166.176 6.143,166.054 6.217 C 165.688 6.438,165.733 22.972,166.100 23.113 C 166.624 23.314,166.665 22.665,166.660 14.270 C 166.657 9.606,166.681 5.764,166.713 5.732 C 166.745 5.700,169.638 5.669,173.143 5.663 L 179.514 5.652 179.490 3.493 L 179.465 1.333 170.649 1.333 L 161.833 1.333 161.833 1.708 M192.167 1.665 C 192.167 1.991,192.305 1.998,200.542 2.040 L 208.917 2.083 208.964 3.792 L 209.012 5.500 202.917 5.500 C 197.265 5.500,196.815 5.521,196.716 5.792 C 196.657 5.952,196.509 6.143,196.388 6.217 C 195.946 6.483,196.083 12.281,196.542 12.765 L 196.917 13.161 202.958 13.164 L 209.000 13.167 209.000 15.000 L 209.000 16.833 209.417 16.833 L 209.833 16.833 209.833 14.684 C 209.833 12.879,209.791 12.520,209.570 12.434 C 209.425 12.379,206.540 12.333,203.160 12.333 L 197.014 12.333 196.965 9.062 C 196.934 6.987,196.978 5.769,197.083 5.732 C 197.175 5.699,200.063 5.652,203.500 5.628 L 209.750 5.583 209.797 3.458 L 209.843 1.333 201.005 1.333 C 192.291 1.333,192.167 1.338,192.167 1.665 M213.533 2.124 C 213.592 3.055,214.101 3.383,214.196 2.552 C 214.282 1.804,218.023 1.767,218.218 2.512 C 218.278 2.743,218.435 2.826,218.776 2.808 L 219.250 2.783 218.792 2.714 C 218.474 2.666,218.333 2.546,218.333 2.322 C 218.333 2.145,218.221 2.000,218.083 2.000 C 217.944 2.000,217.833 1.852,217.833 1.667 C 217.833 1.350,217.722 1.333,215.658 1.333 L 213.482 1.333 213.533 2.124 M227.167 1.656 C 227.167 1.882,227.030 1.996,226.708 2.038 C 226.456 2.070,227.225 2.078,228.417 2.055 C 229.608 2.032,230.752 2.010,230.958 2.007 C 231.220 2.002,231.333 1.899,231.333 1.667 C 231.333 1.351,231.222 1.333,229.250 1.333 C 227.302 1.333,227.167 1.354,227.167 1.656 M235.000 1.653 C 235.000 2.108,234.520 2.087,244.166 2.039 C 252.848 1.995,253.000 1.989,253.000 1.664 C 253.000 1.338,252.863 1.333,244.000 1.333 C 235.242 1.333,235.000 1.342,235.000 1.653 M152.375 2.611 C 151.984 2.767,152.128 3.362,152.542 3.303 C 152.782 3.269,152.917 3.135,152.917 2.931 C 152.917 2.592,152.718 2.474,152.375 2.611 M225.875 2.611 C 225.484 2.767,225.628 3.362,226.042 3.303 C 226.282 3.269,226.417 3.135,226.417 2.931 C 226.417 2.592,226.218 2.474,225.875 2.611 M142.535 2.980 C 142.564 3.128,142.755 3.274,142.960 3.303 C 143.492 3.379,143.443 2.893,142.909 2.791 C 142.582 2.729,142.496 2.772,142.535 2.980 M229.906 3.250 C 229.845 3.571,229.738 3.833,229.668 3.833 C 229.597 3.833,229.503 3.969,229.460 4.134 C 229.394 4.388,229.464 4.423,229.899 4.358 C 230.184 4.315,230.323 4.249,230.208 4.210 C 229.784 4.065,229.959 3.167,230.411 3.167 C 230.709 3.167,230.796 3.097,230.727 2.917 C 230.537 2.423,230.022 2.632,229.906 3.250 M214.031 3.625 C 214.115 4.067,214.833 4.115,214.833 3.678 C 214.833 3.419,214.727 3.333,214.404 3.333 C 214.086 3.333,213.990 3.408,214.031 3.625 M225.167 4.083 C 225.167 4.389,225.256 4.500,225.500 4.500 C 225.744 4.500,225.833 4.389,225.833 4.083 C 225.833 3.778,225.744 3.667,225.500 3.667 C 225.256 3.667,225.167 3.778,225.167 4.083 M143.025 4.000 C 142.982 4.531,143.213 5.000,143.519 5.000 C 143.692 5.000,143.833 4.887,143.833 4.750 C 143.833 4.612,143.689 4.500,143.512 4.500 C 143.310 4.500,143.163 4.359,143.118 4.125 C 143.078 3.919,143.036 3.862,143.025 4.000 M214.667 4.738 C 214.667 5.060,214.752 5.167,215.012 5.167 C 215.274 5.167,215.344 5.077,215.303 4.793 C 215.224 4.239,214.667 4.191,214.667 4.738 M219.422 4.828 C 219.523 5.523,219.685 5.713,220.055 5.571 C 220.459 5.416,220.396 5.055,219.969 5.070 C 219.720 5.079,219.562 4.951,219.471 4.667 C 219.368 4.344,219.357 4.380,219.422 4.828 M151.667 4.762 C 151.667 4.935,151.788 5.005,152.029 4.970 C 152.562 4.891,152.619 4.500,152.097 4.500 C 151.817 4.500,151.667 4.591,151.667 4.762 M224.500 5.250 C 224.500 5.611,224.567 5.680,224.875 5.637 C 225.121 5.602,225.250 5.469,225.250 5.250 C 225.250 5.031,225.121 4.898,224.875 4.863 C 224.567 4.820,224.500 4.889,224.500 5.250 M228.826 5.348 C 228.723 5.539,228.683 5.739,228.736 5.792 C 228.790 5.845,228.833 5.801,228.833 5.694 C 228.833 5.588,229.021 5.500,229.250 5.500 C 229.715 5.500,229.809 5.257,229.403 5.101 C 229.034 4.960,229.033 4.960,228.826 5.348 M76.292 5.625 L 79.500 5.674 79.500 16.837 L 79.500 28.000 81.740 28.000 L 83.980 28.000 84.080 27.292 C 84.135 26.902,84.158 21.971,84.131 16.333 L 84.081 6.083 84.040 16.625 L 84.000 27.167 82.083 27.167 L 80.167 27.167 80.167 16.667 C 80.167 7.838,80.130 6.167,79.936 6.167 C 79.809 6.167,79.666 6.017,79.618 5.833 C 79.535 5.513,79.407 5.501,76.307 5.538 L 73.083 5.576 76.292 5.625 M120.882 5.833 C 120.834 6.017,120.728 6.167,120.647 6.167 C 120.564 6.167,120.500 9.859,120.500 14.667 C 120.500 23.186,120.528 23.613,121.039 22.917 C 121.106 22.825,121.163 18.907,121.164 14.210 L 121.167 5.671 127.625 5.625 L 134.083 5.579 127.526 5.540 C 121.092 5.501,120.967 5.506,120.882 5.833 M143.689 5.861 C 143.657 6.504,143.824 6.833,144.184 6.833 C 144.389 6.833,144.500 6.716,144.500 6.500 C 144.500 6.282,144.389 6.167,144.178 6.167 C 143.977 6.167,143.829 6.026,143.784 5.792 C 143.721 5.460,143.709 5.469,143.689 5.861 M215.284 5.605 C 215.026 5.863,215.193 6.133,215.650 6.200 C 216.079 6.263,216.119 6.232,216.006 5.927 C 215.875 5.572,215.489 5.400,215.284 5.605 M239.882 5.833 C 239.834 6.017,239.691 6.167,239.564 6.167 C 239.090 6.167,239.249 12.331,239.735 12.792 L 240.130 13.167 246.565 13.167 C 252.768 13.167,253.000 13.155,253.000 12.851 C 253.000 12.349,252.795 12.333,246.320 12.333 L 240.167 12.333 240.142 9.250 C 240.128 7.554,240.109 6.073,240.100 5.958 C 240.087 5.796,241.528 5.731,246.583 5.664 L 253.083 5.577 246.526 5.539 C 240.092 5.501,239.967 5.506,239.882 5.833 M151.833 5.889 C 151.833 6.056,151.700 6.167,151.500 6.167 C 151.278 6.167,151.167 6.278,151.167 6.500 C 151.167 7.077,151.775 6.916,151.897 6.307 C 151.955 6.017,151.964 5.742,151.918 5.696 C 151.871 5.649,151.833 5.736,151.833 5.889 M224.112 6.120 C 224.065 6.196,224.088 6.519,224.163 6.837 C 224.238 7.156,224.307 7.285,224.316 7.125 C 224.326 6.965,224.414 6.833,224.512 6.833 C 224.747 6.833,224.639 6.128,224.390 6.046 C 224.284 6.011,224.159 6.044,224.112 6.120 M228.566 6.134 C 228.469 6.198,228.284 6.494,228.154 6.792 C 228.025 7.090,227.862 7.333,227.793 7.333 C 227.723 7.333,227.667 7.446,227.667 7.583 C 227.667 7.721,227.809 7.833,227.983 7.833 C 228.234 7.833,228.294 7.721,228.275 7.292 C 228.254 6.848,228.318 6.740,228.625 6.697 C 229.022 6.640,229.073 6.540,228.868 6.217 C 228.798 6.107,228.662 6.070,228.566 6.134 M12.444 6.278 C 12.131 6.591,12.329 12.530,12.655 12.615 C 12.832 12.662,13.017 12.805,13.067 12.933 C 13.141 13.128,14.177 13.167,19.245 13.167 L 25.333 13.167 25.333 20.168 L 25.333 27.170 16.875 27.127 L 8.417 27.083 8.369 25.460 L 8.321 23.837 14.702 23.788 L 21.083 23.738 14.292 23.720 L 7.500 23.701 7.500 25.663 C 7.500 27.117,7.559 27.675,7.727 27.814 C 7.891 27.951,10.463 27.991,17.019 27.960 L 26.083 27.917 26.127 20.212 L 26.170 12.507 25.780 12.409 C 25.566 12.356,22.487 12.335,18.939 12.364 L 12.486 12.417 12.535 9.291 C 12.562 7.573,12.577 6.166,12.569 6.166 C 12.562 6.167,12.506 6.217,12.444 6.278 M220.130 6.483 C 220.317 6.977,220.667 7.235,220.667 6.879 C 220.667 6.707,220.738 6.495,220.824 6.408 C 220.924 6.309,220.806 6.244,220.506 6.233 C 220.134 6.220,220.052 6.275,220.130 6.483 M215.833 6.981 C 215.833 7.062,216.014 7.162,216.235 7.205 C 216.522 7.260,216.612 7.218,216.550 7.057 C 216.456 6.811,215.833 6.744,215.833 6.981 M144.333 7.572 C 144.333 7.921,144.413 8.000,144.762 8.000 C 145.110 8.000,145.180 7.930,145.137 7.625 C 145.055 7.050,144.333 7.002,144.333 7.572 M150.532 7.790 C 150.610 8.732,151.167 8.781,151.167 7.846 C 151.167 7.271,151.114 7.167,150.823 7.167 C 150.528 7.167,150.487 7.255,150.532 7.790 M216.686 7.611 C 216.675 7.718,216.625 7.915,216.574 8.048 C 216.515 8.202,216.614 8.324,216.847 8.385 C 217.163 8.468,217.200 8.562,217.117 9.074 C 217.029 9.617,217.055 9.667,217.427 9.667 L 217.834 9.667 217.500 9.044 C 217.317 8.702,217.167 8.327,217.167 8.211 C 217.167 8.095,217.097 8.000,217.012 8.000 C 216.927 8.000,216.823 7.869,216.782 7.708 C 216.740 7.548,216.697 7.504,216.686 7.611 M220.708 7.708 C 220.747 7.823,220.878 7.917,221.000 7.917 C 221.122 7.917,221.253 7.823,221.292 7.708 C 221.333 7.584,221.215 7.500,221.000 7.500 C 220.785 7.500,220.667 7.584,220.708 7.708 M223.566 7.764 C 223.621 7.909,223.667 8.110,223.667 8.212 C 223.667 8.411,224.153 7.834,224.161 7.625 C 224.164 7.556,224.009 7.500,223.816 7.500 C 223.564 7.500,223.493 7.575,223.566 7.764 M227.514 8.208 C 227.506 8.369,227.425 8.500,227.333 8.500 C 227.242 8.500,227.167 8.688,227.167 8.917 C 227.167 9.180,227.261 9.333,227.422 9.333 C 227.771 9.333,227.861 9.013,227.680 8.417 C 227.597 8.142,227.522 8.048,227.514 8.208 M221.292 8.861 C 221.336 9.029,221.430 9.167,221.500 9.167 C 221.570 9.167,221.668 9.322,221.718 9.511 C 221.854 10.032,223.060 9.914,223.137 9.373 C 223.166 9.165,223.252 9.033,223.326 9.079 C 223.401 9.125,223.498 9.026,223.542 8.859 C 223.605 8.616,223.543 8.570,223.235 8.629 C 222.908 8.691,222.864 8.776,222.945 9.185 C 223.038 9.648,223.017 9.667,222.417 9.667 C 221.816 9.667,221.795 9.648,221.888 9.185 C 221.970 8.776,221.925 8.691,221.598 8.629 C 221.289 8.570,221.228 8.616,221.292 8.861 M150.292 9.119 C 149.988 9.165,149.833 9.290,149.833 9.488 C 149.833 9.899,150.606 9.750,150.719 9.317 C 150.765 9.143,150.790 9.011,150.776 9.025 C 150.762 9.039,150.544 9.081,150.292 9.119 M144.833 9.417 C 144.833 9.572,144.991 9.667,145.250 9.667 C 145.509 9.667,145.667 9.572,145.667 9.417 C 145.667 9.261,145.509 9.167,145.250 9.167 C 144.991 9.167,144.833 9.261,144.833 9.417 M226.500 10.000 C 226.500 10.244,226.611 10.333,226.917 10.333 C 227.222 10.333,227.333 10.244,227.333 10.000 C 227.333 9.756,227.222 9.667,226.917 9.667 C 226.611 9.667,226.500 9.756,226.500 10.000 M150.000 10.500 C 150.000 10.722,149.889 10.833,149.667 10.833 C 149.441 10.833,149.333 10.944,149.333 11.178 C 149.333 11.864,150.060 11.511,150.129 10.792 C 150.162 10.448,150.147 10.167,150.095 10.167 C 150.043 10.167,150.000 10.317,150.000 10.500 M217.708 10.288 C 217.345 10.415,217.484 10.667,217.917 10.667 C 218.146 10.667,218.333 10.600,218.333 10.518 C 218.333 10.326,217.976 10.195,217.708 10.288 M218.353 11.272 C 218.339 11.652,218.418 11.817,218.646 11.876 C 218.886 11.939,218.939 11.886,218.876 11.646 C 218.831 11.474,218.734 11.333,218.659 11.333 C 218.585 11.333,218.490 11.202,218.448 11.042 C 218.406 10.881,218.363 10.985,218.353 11.272 M226.000 11.250 C 226.000 11.556,226.089 11.667,226.333 11.667 C 226.578 11.667,226.667 11.556,226.667 11.250 C 226.667 10.944,226.578 10.833,226.333 10.833 C 226.089 10.833,226.000 10.944,226.000 11.250 M145.500 11.250 C 145.500 11.389,145.648 11.500,145.833 11.500 C 146.019 11.500,146.167 11.389,146.167 11.250 C 146.167 11.111,146.019 11.000,145.833 11.000 C 145.648 11.000,145.500 11.111,145.500 11.250 M146.060 12.417 C 146.084 13.101,146.833 13.597,146.833 12.928 C 146.833 12.781,146.693 12.667,146.511 12.667 C 146.289 12.667,146.165 12.524,146.113 12.208 C 146.067 11.930,146.046 12.012,146.060 12.417 M148.778 11.944 C 148.597 12.126,148.651 12.751,148.867 12.967 C 149.262 13.362,149.500 13.187,149.500 12.500 C 149.500 11.856,149.142 11.580,148.778 11.944 M225.333 12.323 C 225.333 12.716,225.546 12.869,225.902 12.733 C 226.347 12.562,226.230 12.000,225.750 12.000 C 225.449 12.000,225.333 12.090,225.333 12.323 M124.173 12.441 C 124.387 12.499,124.425 12.854,124.408 14.630 C 124.389 16.532,124.393 16.566,124.449 14.958 L 124.511 13.167 129.255 13.167 C 133.800 13.167,134.000 13.153,134.000 12.851 C 134.000 12.355,133.755 12.332,128.695 12.353 C 126.067 12.363,124.032 12.403,124.173 12.441 M169.375 12.444 C 168.975 12.605,169.090 16.833,169.494 16.833 C 169.797 16.833,169.826 16.696,169.869 15.042 L 169.917 13.250 174.292 13.206 L 178.667 13.161 178.667 20.164 L 178.667 27.167 170.250 27.167 L 161.833 27.167 161.833 27.585 L 161.833 28.003 170.625 27.960 L 179.417 27.917 179.460 20.261 C 179.494 14.247,179.458 12.577,179.293 12.472 C 179.069 12.329,169.725 12.303,169.375 12.444 M218.869 12.698 C 218.571 12.996,218.621 13.111,219.042 13.097 C 219.361 13.085,219.413 13.164,219.392 13.625 C 219.373 14.054,219.433 14.167,219.684 14.167 C 219.858 14.167,220.000 14.254,220.000 14.361 C 220.000 14.468,220.039 14.516,220.087 14.469 C 220.135 14.421,220.102 14.202,220.014 13.983 C 219.926 13.763,219.844 13.658,219.831 13.750 C 219.818 13.842,219.719 13.623,219.611 13.263 C 219.395 12.550,219.181 12.386,218.869 12.698 M224.792 13.473 C 224.728 13.719,224.789 13.764,225.106 13.703 C 225.323 13.662,225.500 13.524,225.500 13.397 C 225.500 13.053,224.885 13.119,224.792 13.473 M146.667 14.167 C 146.667 14.533,146.742 14.833,146.833 14.833 C 146.925 14.833,147.007 15.002,147.017 15.208 C 147.033 15.568,147.039 15.566,147.167 15.167 C 147.443 14.303,147.363 13.500,147.000 13.500 C 146.722 13.500,146.667 13.611,146.667 14.167 M148.167 14.095 C 148.167 14.269,148.288 14.339,148.529 14.303 C 149.062 14.225,149.119 13.833,148.597 13.833 C 148.317 13.833,148.167 13.925,148.167 14.095 M147.833 15.167 C 147.833 15.352,147.944 15.500,148.083 15.500 C 148.222 15.500,148.333 15.352,148.333 15.167 C 148.333 14.981,148.222 14.833,148.083 14.833 C 147.944 14.833,147.833 14.981,147.833 15.167 M219.708 14.951 C 219.255 15.038,219.204 15.500,219.647 15.500 C 219.821 15.500,220.000 15.351,220.048 15.167 C 220.096 14.983,220.124 14.844,220.109 14.856 C 220.095 14.869,219.915 14.911,219.708 14.951 M224.798 15.777 C 224.838 15.989,224.930 16.127,225.001 16.083 C 225.072 16.039,225.179 16.262,225.238 16.579 C 225.367 17.266,225.586 17.441,225.946 17.142 C 226.182 16.946,226.168 16.912,225.814 16.825 C 225.479 16.742,225.422 16.634,225.451 16.131 C 225.480 15.630,225.426 15.525,225.105 15.463 C 224.782 15.402,224.735 15.450,224.798 15.777 M218.784 15.939 C 218.459 16.263,218.670 16.787,219.092 16.706 C 219.411 16.645,219.505 16.536,219.467 16.272 C 219.417 15.920,219.004 15.718,218.784 15.939 M128.833 19.784 C 128.833 22.518,128.946 23.167,129.423 23.167 C 129.628 23.167,129.667 22.693,129.667 20.186 L 129.667 17.206 129.250 17.126 L 128.833 17.046 128.833 19.784 M218.167 17.404 C 218.167 17.727,218.252 17.833,218.512 17.833 C 218.774 17.833,218.844 17.744,218.803 17.460 C 218.724 16.906,218.167 16.857,218.167 17.404 M21.000 19.968 C 21.000 22.836,21.161 23.572,21.678 23.055 C 22.067 22.666,21.787 17.255,21.375 17.197 L 21.000 17.143 21.000 19.968 M142.568 17.397 C 142.513 17.539,142.507 17.752,142.554 17.870 C 142.602 17.987,142.646 17.910,142.654 17.698 C 142.661 17.487,142.738 17.358,142.826 17.412 C 142.914 17.466,142.943 17.621,142.892 17.755 C 142.840 17.890,142.886 18.000,142.994 18.000 C 143.251 18.000,143.145 17.296,142.875 17.208 C 142.761 17.170,142.622 17.255,142.568 17.397 M174.538 20.112 C 174.576 22.622,174.622 23.083,174.833 23.083 C 175.248 23.083,175.203 17.278,174.788 17.198 C 174.512 17.145,174.495 17.343,174.538 20.112 M196.278 17.278 C 196.136 17.419,196.131 22.909,196.272 23.050 C 196.814 23.592,197.000 22.812,197.000 19.994 C 197.000 17.118,196.882 16.674,196.278 17.278 M239.444 17.278 C 239.255 17.467,239.315 22.969,239.507 23.088 C 240.040 23.417,240.167 22.821,240.167 19.980 C 240.167 17.118,240.048 16.674,239.444 17.278 M152.500 17.681 C 152.500 18.087,152.889 18.029,152.971 17.611 C 153.002 17.447,152.917 17.333,152.762 17.333 C 152.608 17.333,152.500 17.476,152.500 17.681 M225.833 17.928 C 225.833 17.954,225.931 18.075,226.049 18.196 C 226.168 18.318,226.338 18.673,226.427 18.987 C 226.621 19.671,226.910 19.812,227.161 19.343 C 227.325 19.037,227.298 19.000,226.904 19.000 C 226.511 19.000,226.470 18.947,226.534 18.514 C 226.593 18.110,226.539 18.015,226.219 17.953 C 226.007 17.913,225.833 17.901,225.833 17.928 M142.833 18.583 C 142.833 18.721,142.940 18.833,143.070 18.833 C 143.200 18.833,143.433 18.882,143.589 18.942 C 143.833 19.036,143.846 19.002,143.680 18.692 C 143.462 18.285,142.833 18.204,142.833 18.583 M151.944 18.444 C 151.702 18.687,151.844 18.966,152.167 18.882 C 152.350 18.834,152.500 18.691,152.500 18.564 C 152.500 18.326,152.140 18.248,151.944 18.444 M217.500 18.727 C 217.500 19.057,217.567 19.108,217.917 19.041 C 218.185 18.989,218.333 18.850,218.333 18.647 C 218.333 18.424,218.214 18.333,217.917 18.333 C 217.590 18.333,217.500 18.418,217.500 18.727 M217.111 19.444 C 216.862 19.693,217.008 20.167,217.333 20.167 C 217.578 20.167,217.667 20.056,217.667 19.750 C 217.667 19.358,217.364 19.191,217.111 19.444 M143.782 19.634 C 143.375 19.716,143.444 20.888,143.861 20.966 C 144.203 21.031,144.370 20.560,144.206 19.995 C 144.122 19.707,143.988 19.593,143.782 19.634 M151.425 19.708 C 151.131 20.665,151.158 20.777,151.671 20.702 C 152.047 20.646,152.167 20.541,152.167 20.264 C 152.167 19.683,151.571 19.236,151.425 19.708 M222.643 20.122 C 222.976 20.181,223.022 20.265,222.943 20.662 C 222.864 21.056,222.911 21.143,223.235 21.205 C 223.543 21.264,223.605 21.217,223.542 20.974 C 223.498 20.807,223.401 20.708,223.326 20.754 C 223.252 20.801,223.166 20.668,223.137 20.461 C 223.098 20.189,222.967 20.079,222.667 20.067 C 222.267 20.052,222.266 20.054,222.643 20.122 M227.168 20.483 C 227.567 21.176,227.620 21.205,227.702 20.780 C 227.766 20.445,227.705 20.348,227.398 20.289 C 227.085 20.229,227.043 20.264,227.168 20.483 M216.500 20.904 C 216.500 21.227,216.585 21.333,216.845 21.333 C 217.107 21.333,217.177 21.244,217.137 20.960 C 217.058 20.406,216.500 20.357,216.500 20.904 M220.958 20.680 C 220.548 20.919,220.580 21.325,221.000 21.215 C 221.184 21.167,221.333 20.988,221.333 20.814 C 221.333 20.453,221.343 20.456,220.958 20.680 M144.167 21.583 C 144.167 21.722,144.315 21.833,144.500 21.833 C 144.685 21.833,144.833 21.722,144.833 21.583 C 144.833 21.444,144.685 21.333,144.500 21.333 C 144.315 21.333,144.167 21.444,144.167 21.583 M150.732 21.571 C 150.570 21.992,150.741 22.578,151.042 22.636 C 151.399 22.704,151.572 22.310,151.431 21.750 C 151.318 21.298,150.879 21.187,150.732 21.571 M220.408 21.725 C 219.984 22.190,220.018 22.451,220.500 22.434 C 220.790 22.423,220.919 22.353,220.837 22.250 C 220.763 22.158,220.676 21.959,220.643 21.808 C 220.599 21.604,220.538 21.583,220.408 21.725 M227.667 21.667 C 227.667 21.758,227.742 21.833,227.833 21.833 C 227.925 21.833,228.005 21.965,228.012 22.125 C 228.022 22.374,228.044 22.368,228.167 22.083 C 228.384 21.577,228.362 21.500,228.000 21.500 C 227.817 21.500,227.667 21.575,227.667 21.667 M215.833 22.167 C 215.833 22.389,215.944 22.500,216.167 22.500 C 216.389 22.500,216.500 22.389,216.500 22.167 C 216.500 21.944,216.389 21.833,216.167 21.833 C 215.944 21.833,215.833 21.944,215.833 22.167 M223.611 21.944 C 223.411 22.144,223.494 22.293,223.856 22.388 C 224.150 22.464,224.195 22.567,224.114 22.972 C 224.030 23.394,224.072 23.475,224.411 23.540 L 224.806 23.615 224.487 23.018 C 224.311 22.690,224.167 22.289,224.167 22.127 C 224.167 21.838,223.829 21.727,223.611 21.944 M228.333 22.833 C 228.333 23.172,228.649 23.221,228.872 22.917 C 229.080 22.634,229.014 22.500,228.667 22.500 C 228.444 22.500,228.333 22.611,228.333 22.833 M56.278 22.944 C 55.627 23.595,56.029 23.667,60.333 23.667 C 64.649 23.667,64.772 23.646,64.320 23.000 C 64.183 22.804,64.168 22.831,64.250 23.125 L 64.356 23.500 60.325 23.500 C 56.377 23.500,56.296 23.493,56.382 23.167 C 56.475 22.811,56.454 22.768,56.278 22.944 M183.530 23.208 C 183.581 23.567,183.668 23.587,185.500 23.667 L 187.417 23.750 187.417 25.417 L 187.417 27.083 185.458 27.130 L 183.500 27.177 183.500 27.593 L 183.500 28.009 185.792 27.963 L 188.083 27.917 188.129 25.375 L 188.175 22.833 185.826 22.833 C 183.485 22.833,183.477 22.835,183.530 23.208 M215.284 22.939 C 214.998 23.224,215.170 23.689,215.542 23.637 C 215.787 23.602,215.917 23.469,215.917 23.252 C 215.917 22.922,215.505 22.718,215.284 22.939 M144.667 23.219 C 144.667 23.352,144.846 23.495,145.065 23.537 C 145.359 23.593,145.453 23.544,145.425 23.348 C 145.375 23.006,144.667 22.885,144.667 23.219 M150.284 23.105 C 150.049 23.340,150.161 24.342,150.433 24.446 C 150.785 24.581,151.014 24.205,150.960 23.585 C 150.919 23.108,150.545 22.844,150.284 23.105 M219.491 23.441 C 219.404 23.669,219.333 23.925,219.333 24.011 C 219.333 24.097,219.267 24.167,219.186 24.167 C 219.105 24.167,219.003 24.304,218.959 24.473 C 218.895 24.715,218.956 24.764,219.254 24.707 C 219.555 24.649,219.625 24.531,219.606 24.109 C 219.588 23.682,219.654 23.573,219.958 23.530 C 220.427 23.464,220.445 23.235,219.991 23.116 C 219.735 23.049,219.608 23.132,219.491 23.441 M103.417 23.667 L 99.250 23.759 103.365 23.796 C 105.970 23.820,107.518 23.772,107.583 23.667 C 107.640 23.575,107.663 23.517,107.635 23.537 C 107.607 23.558,105.708 23.616,103.417 23.667 M120.978 23.711 C 121.048 23.782,122.938 23.819,125.178 23.794 L 129.250 23.750 125.050 23.666 C 122.740 23.621,120.907 23.641,120.978 23.711 M166.478 23.711 C 166.548 23.782,168.401 23.819,170.595 23.795 L 174.583 23.750 170.466 23.666 C 168.202 23.621,166.407 23.641,166.478 23.711 M196.776 23.708 C 196.818 23.777,199.605 23.833,202.968 23.833 L 209.083 23.833 209.031 25.500 L 208.978 27.167 200.572 27.167 L 192.167 27.167 192.167 27.585 L 192.167 28.003 200.958 27.960 L 209.750 27.917 209.797 25.875 C 209.823 24.752,209.823 23.819,209.797 23.801 C 209.646 23.698,196.712 23.606,196.776 23.708 M228.779 23.809 C 228.875 24.177,229.398 24.300,229.583 24.000 C 229.640 23.908,229.547 23.833,229.377 23.833 C 229.206 23.833,228.981 23.748,228.876 23.643 C 228.733 23.500,228.709 23.541,228.779 23.809 M183.395 25.333 C 183.395 26.296,183.423 26.690,183.456 26.208 C 183.490 25.727,183.490 24.940,183.456 24.458 C 183.423 23.977,183.395 24.371,183.395 25.333 M243.208 23.791 C 245.019 23.818,247.981 23.818,249.792 23.791 C 251.602 23.765,250.121 23.743,246.500 23.743 C 242.879 23.743,241.398 23.765,243.208 23.791 M214.667 24.404 C 214.667 24.727,214.752 24.833,215.012 24.833 C 215.274 24.833,215.344 24.744,215.303 24.460 C 215.224 23.906,214.667 23.857,214.667 24.404 M224.671 24.411 C 224.489 24.630,224.525 24.667,224.918 24.667 C 225.347 24.667,225.371 24.704,225.285 25.233 C 225.205 25.728,225.242 25.809,225.581 25.874 C 225.946 25.943,226.004 25.613,225.677 25.333 C 225.623 25.287,225.505 25.031,225.415 24.764 C 225.218 24.184,224.961 24.062,224.671 24.411 M145.167 25.064 C 145.167 25.192,145.381 25.327,145.643 25.365 C 146.036 25.423,146.105 25.383,146.040 25.134 C 145.946 24.776,145.167 24.713,145.167 25.064 M149.611 24.944 C 149.550 25.006,149.509 25.287,149.519 25.569 C 149.530 25.864,149.572 25.956,149.616 25.785 C 149.670 25.577,149.792 25.517,150.014 25.588 C 150.272 25.670,150.333 25.607,150.333 25.261 C 150.333 24.847,149.899 24.657,149.611 24.944 M229.456 25.125 C 229.500 25.240,229.640 25.333,229.768 25.333 C 229.896 25.333,230.052 25.335,230.115 25.338 C 230.178 25.340,230.243 25.247,230.260 25.130 C 230.279 25.001,230.110 24.917,229.834 24.917 C 229.536 24.917,229.404 24.989,229.456 25.125 M214.111 25.444 C 213.858 25.697,214.024 26.000,214.417 26.000 C 214.722 26.000,214.833 25.911,214.833 25.667 C 214.833 25.341,214.360 25.196,214.111 25.444 M218.329 25.761 C 218.240 25.996,218.167 26.258,218.167 26.344 C 218.167 26.430,218.100 26.500,218.019 26.500 C 217.938 26.500,217.832 26.653,217.783 26.839 C 217.640 27.389,214.276 27.266,214.197 26.708 C 214.078 25.875,213.477 26.253,213.533 27.125 L 213.583 27.917 215.613 27.963 L 217.644 28.010 217.697 27.547 C 217.734 27.221,217.856 27.068,218.107 27.032 C 218.393 26.992,218.459 26.875,218.440 26.449 C 218.421 26.011,218.485 25.907,218.801 25.862 C 219.113 25.818,219.149 25.763,218.989 25.570 C 218.702 25.224,218.513 25.278,218.329 25.761 M230.060 25.917 C 229.919 26.285,230.092 26.608,230.486 26.711 C 230.761 26.783,230.833 26.725,230.833 26.434 C 230.833 25.809,230.251 25.419,230.060 25.917 M226.003 26.375 C 226.001 26.535,225.925 26.667,225.833 26.667 C 225.742 26.667,225.667 26.742,225.667 26.833 C 225.667 26.925,225.856 27.000,226.088 27.000 C 226.423 27.000,226.529 27.103,226.609 27.505 L 226.710 28.009 228.980 27.963 L 231.250 27.917 231.300 27.488 L 231.350 27.060 229.037 27.134 L 226.725 27.208 226.365 26.645 C 226.123 26.267,226.005 26.179,226.003 26.375 M145.833 26.917 C 145.833 27.160,145.929 27.333,146.064 27.333 C 146.191 27.333,146.334 27.483,146.382 27.667 C 146.507 28.147,148.833 28.178,148.833 27.700 C 148.833 27.308,149.147 27.003,149.437 27.114 C 149.587 27.172,149.667 27.081,149.667 26.851 C 149.667 26.391,149.071 26.376,148.952 26.833 C 148.876 27.123,148.724 27.167,147.785 27.167 C 146.846 27.167,146.694 27.123,146.618 26.833 C 146.484 26.321,145.833 26.390,145.833 26.917 M116.333 27.585 L 116.333 28.003 125.125 27.960 L 133.917 27.917 133.970 27.542 L 134.023 27.167 125.178 27.167 L 116.333 27.167 116.333 27.585 M235.184 27.319 C 235.056 27.400,234.998 27.586,235.054 27.735 C 235.148 27.977,236.004 27.999,244.037 27.960 L 252.917 27.917 252.970 27.542 L 253.023 27.167 244.220 27.169 C 239.378 27.171,235.312 27.238,235.184 27.319 " stroke="none" fill="#242424" fill-rule="evenodd"></path></g></svg>