<svg id="svg" version="1.1" xmlns="http://www.w3.org/2000/svg" xmlns:xlink="http://www.w3.org/1999/xlink" width="400" height="300" viewBox="0, 0, 400,300"><g id="svgg"><path id="path0" d="M0.000 150.038 L 0.000 300.075 200.000 300.075 L 400.000 300.075 400.000 150.038 L 400.000 0.000 200.000 0.000 L 0.000 0.000 0.000 150.038 M27.157 15.004 L 27.157 16.954 21.680 17.036 L 16.204 17.118 16.204 19.662 L 16.204 22.206 21.600 22.206 C 28.050 22.206,27.359 21.305,27.242 29.557 L 27.157 35.559 19.280 35.639 L 11.403 35.719 11.403 33.613 L 11.403 31.508 16.729 31.503 C 23.129 31.498,22.859 31.620,22.745 28.781 L 22.656 26.557 17.029 26.475 L 11.403 26.393 11.403 19.643 L 11.403 12.893 19.280 12.973 L 27.157 13.053 27.157 15.004 M34.742 17.639 L 34.824 22.226 38.042 22.141 L 41.260 22.056 41.343 17.479 L 41.426 12.903 43.519 12.903 L 45.611 12.903 45.611 24.306 L 45.611 35.709 43.511 35.709 L 41.410 35.709 41.410 31.240 C 41.410 26.021,41.711 26.407,37.643 26.407 L 34.824 26.407 34.741 30.983 L 34.659 35.559 32.258 35.559 L 29.857 35.559 29.779 24.607 C 29.685 11.615,29.413 12.856,32.329 12.966 L 34.659 13.053 34.742 17.639 M64.216 24.311 L 64.216 35.719 56.339 35.639 L 48.462 35.559 48.383 24.231 L 48.305 12.903 56.260 12.903 L 64.216 12.903 64.216 24.311 M82.821 15.004 L 82.821 17.104 80.274 17.104 L 77.728 17.104 77.649 26.332 L 77.569 35.559 75.244 35.647 L 72.918 35.734 72.918 26.419 L 72.918 17.104 69.917 17.104 L 66.917 17.104 66.917 15.004 L 66.917 12.903 74.869 12.903 L 82.821 12.903 82.821 15.004 M90.323 22.206 L 90.473 31.358 93.623 31.358 L 96.774 31.358 96.854 22.117 L 96.933 12.877 99.104 12.965 L 101.275 13.053 101.275 24.306 L 101.275 35.559 93.323 35.559 L 85.371 35.559 85.293 24.607 C 85.199 11.615,84.927 12.856,87.842 12.966 L 90.173 13.053 90.323 22.206 M119.880 15.004 L 119.880 16.954 114.254 17.036 L 108.627 17.118 108.627 24.131 C 108.627 32.258,108.243 31.508,112.403 31.508 L 115.229 31.508 115.229 28.970 L 115.229 26.433 113.053 26.345 L 110.878 26.257 110.878 24.306 L 110.878 22.356 114.779 22.269 C 116.924 22.221,118.986 22.258,119.361 22.351 L 120.042 22.520 119.961 29.039 L 119.880 35.559 111.928 35.559 L 103.976 35.559 103.897 24.226 L 103.819 12.893 111.849 12.973 L 119.880 13.053 119.880 15.004 M127.418 13.428 C 127.511 13.717,127.727 14.291,127.899 14.704 C 128.366 15.822,128.616 16.497,129.176 18.155 C 129.454 18.980,129.761 19.857,129.857 20.105 C 129.953 20.353,130.327 21.427,130.688 22.494 L 131.345 24.432 131.870 23.244 C 132.582 21.629,132.787 21.100,133.375 19.355 C 133.653 18.530,133.991 17.584,134.128 17.254 C 134.264 16.924,134.675 15.810,135.041 14.779 L 135.707 12.903 137.921 12.903 L 140.135 12.903 140.135 24.306 L 140.135 35.709 138.035 35.709 L 135.934 35.709 135.899 31.583 C 135.880 29.314,135.798 27.727,135.717 28.057 C 135.636 28.387,135.464 28.792,135.336 28.957 C 135.208 29.122,135.004 29.730,134.883 30.308 C 134.762 30.885,134.578 31.493,134.475 31.658 C 134.371 31.823,134.016 32.768,133.685 33.758 L 133.083 35.559 131.679 35.649 C 130.115 35.750,130.021 35.636,128.884 32.258 C 128.606 31.433,128.256 30.523,128.105 30.237 C 127.955 29.950,127.832 29.511,127.832 29.261 C 127.832 29.012,127.697 28.807,127.532 28.807 C 127.349 28.807,127.232 30.158,127.232 32.258 L 127.232 35.709 124.831 35.709 L 122.431 35.709 122.431 24.306 L 122.431 12.903 124.841 12.903 C 126.872 12.903,127.277 12.986,127.418 13.428 M158.740 15.004 L 158.740 17.104 153.188 17.104 L 147.637 17.104 147.637 24.306 L 147.637 31.508 150.938 31.508 L 154.239 31.508 154.239 28.970 L 154.239 26.433 152.063 26.345 L 149.887 26.257 149.887 24.306 L 149.887 22.356 154.239 22.356 L 158.590 22.356 158.670 29.032 L 158.751 35.709 150.793 35.709 L 142.836 35.709 142.836 24.306 L 142.836 12.903 150.788 12.903 L 158.740 12.903 158.740 15.004 M184.696 15.004 L 184.696 16.954 179.220 17.036 L 173.743 17.118 173.743 19.662 L 173.743 22.206 179.113 22.206 C 185.077 22.206,184.846 22.121,184.846 24.306 C 184.846 26.491,185.077 26.407,179.113 26.407 L 173.743 26.407 173.743 28.950 L 173.743 31.494 179.220 31.576 L 184.696 31.658 184.696 33.608 L 184.696 35.559 176.819 35.639 L 168.942 35.719 168.942 24.306 L 168.942 12.893 176.819 12.973 L 184.696 13.053 184.696 15.004 M193.848 16.054 C 195.691 19.864,195.465 19.860,197.299 16.116 L 198.800 13.053 200.975 12.965 C 202.598 12.899,203.152 12.976,203.156 13.265 C 203.163 13.742,200.088 19.916,199.775 20.055 C 199.651 20.110,199.550 20.278,199.550 20.428 C 199.550 20.922,198.513 23.106,198.279 23.106 C 197.491 23.106,198.393 25.387,202.119 32.814 C 203.590 35.745,203.587 35.751,200.831 35.647 L 198.511 35.559 196.887 32.321 L 195.262 29.084 193.585 32.396 L 191.907 35.709 189.777 35.709 C 188.605 35.709,187.573 35.635,187.482 35.544 C 187.274 35.336,187.919 33.914,188.222 33.911 C 188.346 33.910,188.447 33.774,188.447 33.610 C 188.447 33.098,189.477 30.908,189.718 30.908 C 189.844 30.908,189.947 30.759,189.947 30.578 C 189.947 30.218,190.865 28.149,191.132 27.907 C 191.223 27.824,191.669 27.013,192.122 26.104 L 192.946 24.451 191.447 21.453 C 190.622 19.804,189.947 18.286,189.947 18.080 C 189.947 17.873,189.812 17.704,189.647 17.704 C 189.482 17.704,189.347 17.579,189.347 17.425 C 189.347 17.272,188.942 16.271,188.447 15.201 C 187.952 14.131,187.547 13.177,187.547 13.080 C 187.547 12.983,188.622 12.903,189.936 12.903 L 192.325 12.903 193.848 16.054 M222.056 15.004 L 222.056 17.104 216.342 17.104 L 210.628 17.104 210.716 19.580 L 210.803 22.056 216.354 22.223 C 222.882 22.419,222.056 22.122,222.056 24.274 C 222.056 26.489,222.275 26.407,216.354 26.407 C 210.327 26.407,210.653 26.261,210.653 28.957 C 210.653 31.666,210.268 31.508,216.842 31.508 L 222.083 31.508 221.994 33.533 L 221.905 35.559 213.953 35.559 L 206.002 35.559 205.923 24.231 L 205.844 12.903 213.950 12.903 L 222.056 12.903 222.056 15.004 M53.113 24.316 L 53.113 31.528 56.339 31.443 L 59.565 31.358 59.645 24.231 L 59.726 17.104 56.420 17.104 L 53.113 17.104 53.113 24.316 M166.092 33.458 L 166.092 35.559 163.766 35.647 L 161.440 35.734 161.440 33.671 C 161.440 31.127,161.401 31.165,163.978 31.271 L 166.092 31.358 166.092 33.458 " stroke="none" fill="#fbfbfb" fill-rule="evenodd"></path><path id="path1" d="M11.703 19.498 L 11.703 25.793 17.329 25.875 L 22.956 25.956 22.956 28.807 L 22.956 31.658 17.329 31.740 L 11.703 31.821 11.703 33.615 L 11.703 35.409 19.361 35.409 L 27.019 35.409 26.938 29.032 L 26.857 22.656 21.380 22.574 L 15.904 22.492 15.904 19.648 L 15.904 16.804 21.273 16.804 C 27.285 16.804,27.007 16.915,27.007 14.529 L 27.007 13.203 19.355 13.203 L 11.703 13.203 11.703 19.498 M30.308 24.306 L 30.308 35.409 32.258 35.409 L 34.209 35.409 34.213 31.283 C 34.219 25.319,33.896 25.771,38.072 25.872 L 41.560 25.956 41.643 30.683 L 41.726 35.409 43.518 35.409 L 45.311 35.409 45.311 24.306 L 45.311 13.203 43.511 13.203 L 41.710 13.203 41.710 17.864 L 41.710 22.524 38.035 22.440 L 34.359 22.356 34.276 17.779 L 34.193 13.203 32.250 13.203 L 30.308 13.203 30.308 24.306 M48.612 24.306 L 48.612 35.409 56.264 35.409 L 63.916 35.409 63.916 24.306 L 63.916 13.203 56.264 13.203 L 48.612 13.203 48.612 24.306 M67.217 14.993 L 67.217 16.782 70.143 16.868 L 73.068 16.954 73.148 26.182 L 73.227 35.409 75.169 35.409 L 77.111 35.409 77.190 26.182 L 77.269 16.954 79.820 16.804 L 82.371 16.654 82.461 14.929 L 82.551 13.203 74.884 13.203 L 67.217 13.203 67.217 14.993 M85.821 24.306 L 85.821 35.409 93.323 35.409 L 100.825 35.409 100.825 24.306 L 100.825 13.203 99.029 13.203 L 97.233 13.203 97.154 22.431 L 97.074 31.658 93.647 31.743 C 91.108 31.806,90.157 31.729,89.976 31.443 C 89.842 31.231,89.730 27.041,89.727 22.131 L 89.722 13.203 87.772 13.203 L 85.821 13.203 85.821 24.306 M104.426 24.306 L 104.426 35.409 111.928 35.409 L 119.430 35.409 119.430 28.949 L 119.430 22.489 115.304 22.572 L 111.178 22.656 111.088 24.218 L 110.997 25.780 113.188 25.868 L 115.379 25.956 115.465 28.892 L 115.551 31.827 112.014 31.743 L 108.477 31.658 108.477 24.306 L 108.477 16.954 113.953 16.872 L 119.430 16.791 119.430 14.997 L 119.430 13.203 111.928 13.203 L 104.426 13.203 104.426 24.306 M123.031 24.306 L 123.031 35.409 124.981 35.409 L 126.932 35.409 126.932 31.208 C 126.932 26.015,127.122 25.894,128.584 30.158 C 128.867 30.983,129.173 31.860,129.265 32.108 C 129.356 32.356,129.653 33.166,129.925 33.908 C 130.385 35.167,130.499 35.265,131.601 35.347 L 132.783 35.436 133.354 33.397 C 133.668 32.275,134.015 31.223,134.124 31.058 C 134.234 30.893,134.585 29.914,134.904 28.882 C 135.766 26.094,136.073 26.684,136.168 31.307 L 136.251 35.409 138.043 35.409 L 139.835 35.409 139.835 24.292 L 139.835 13.175 137.968 13.264 L 136.101 13.353 135.096 16.054 C 134.544 17.539,133.966 18.989,133.812 19.276 C 133.659 19.562,133.533 19.967,133.532 20.176 C 133.531 20.385,133.357 20.893,133.147 21.305 C 132.936 21.718,132.580 22.622,132.356 23.315 C 131.948 24.572,131.212 25.228,130.996 24.526 C 130.717 23.616,129.846 21.100,129.622 20.555 C 129.486 20.225,129.095 19.179,128.754 18.230 C 128.412 17.281,127.852 15.761,127.510 14.854 L 126.889 13.203 124.960 13.203 L 123.031 13.203 123.031 24.306 M143.136 24.306 L 143.136 35.409 150.794 35.409 L 158.452 35.409 158.371 29.032 L 158.290 22.656 154.239 22.656 L 150.188 22.656 150.097 24.218 L 150.007 25.780 152.198 25.868 L 154.389 25.956 154.475 28.892 L 154.561 31.827 151.024 31.743 L 147.487 31.658 147.487 24.306 L 147.487 16.954 152.963 16.872 L 158.440 16.791 158.440 14.997 L 158.440 13.203 150.788 13.203 L 143.136 13.203 143.136 24.306 M169.242 24.306 L 169.242 35.409 176.744 35.409 L 184.246 35.409 184.246 33.608 L 184.246 31.808 178.834 31.808 L 173.422 31.808 173.508 28.882 L 173.593 25.956 178.920 25.875 L 184.246 25.793 184.246 24.149 L 184.246 22.506 178.845 22.506 L 173.443 22.506 173.443 19.655 L 173.443 16.804 178.845 16.804 L 184.246 16.804 184.246 15.004 L 184.246 13.203 176.744 13.203 L 169.242 13.203 169.242 24.306 M188.147 13.428 C 188.147 13.552,189.295 15.993,190.698 18.853 C 193.763 25.100,193.784 23.623,190.537 30.061 L 187.826 35.438 189.709 35.348 L 191.592 35.259 192.303 33.908 C 192.694 33.166,193.481 31.647,194.052 30.533 C 195.357 27.985,195.190 27.912,197.183 31.894 L 198.866 35.259 200.888 35.348 C 202.000 35.397,202.863 35.330,202.805 35.198 C 202.748 35.066,201.506 32.528,200.046 29.557 L 197.391 24.156 200.046 18.905 C 201.506 16.017,202.748 13.545,202.806 13.413 C 202.864 13.281,202.067 13.214,201.036 13.263 L 199.162 13.353 197.544 16.504 C 195.499 20.487,195.514 20.487,193.553 16.513 L 191.920 13.203 190.033 13.203 C 188.996 13.203,188.147 13.305,188.147 13.428 M206.452 24.306 L 206.452 35.409 213.953 35.409 L 221.455 35.409 221.455 33.615 L 221.455 31.821 215.979 31.740 L 210.503 31.658 210.503 28.807 L 210.503 25.956 215.994 25.875 L 221.486 25.793 221.396 24.224 L 221.305 22.656 215.818 22.574 L 210.330 22.492 210.416 19.723 L 210.503 16.954 215.979 16.872 L 221.455 16.791 221.455 14.997 L 221.455 13.203 213.953 13.203 L 206.452 13.203 206.452 24.306 M60.015 24.316 L 60.015 31.827 56.489 31.742 L 52.963 31.658 52.883 24.612 C 52.783 15.924,52.369 16.804,56.555 16.804 L 60.015 16.804 60.015 24.316 M161.953 31.695 C 161.836 31.812,161.740 32.696,161.740 33.658 L 161.740 35.409 163.855 35.409 L 165.970 35.409 165.881 33.533 L 165.791 31.658 163.979 31.570 C 162.982 31.522,162.070 31.578,161.953 31.695 " stroke="none" fill="#050505" fill-rule="evenodd"></path><path id="path2" d="M48.378 24.063 C 48.342 30.284,48.413 35.436,48.537 35.513 C 48.742 35.640,48.737 27.090,48.527 16.804 C 48.481 14.576,48.414 17.843,48.378 24.063 M82.622 15.004 C 82.622 16.242,82.674 16.748,82.739 16.129 C 82.804 15.510,82.804 14.497,82.739 13.878 C 82.674 13.260,82.622 13.766,82.622 15.004 M85.358 13.280 C 84.942 14.363,85.381 35.512,85.821 35.632 C 86.162 35.725,86.179 35.689,85.889 35.485 C 85.589 35.272,85.524 32.830,85.589 24.059 C 85.634 17.923,85.633 12.903,85.587 12.903 C 85.541 12.903,85.438 13.073,85.358 13.280 M103.970 24.131 C 103.975 33.987,104.036 35.525,104.426 35.632 C 104.756 35.722,104.777 35.684,104.505 35.491 C 104.224 35.292,104.113 32.499,104.049 23.991 L 103.965 12.753 103.970 24.131 M119.580 15.004 C 119.580 16.128,119.681 16.984,119.805 16.908 C 119.929 16.831,120.030 15.975,120.030 15.004 C 120.030 14.033,119.929 13.176,119.805 13.100 C 119.681 13.023,119.580 13.880,119.580 15.004 M122.496 24.231 C 122.460 30.544,122.532 35.709,122.656 35.709 C 122.861 35.709,122.856 27.091,122.645 16.804 C 122.600 14.576,122.533 17.918,122.496 24.231 M142.902 24.231 C 142.865 30.544,142.937 35.709,143.061 35.709 C 143.266 35.709,143.261 27.091,143.050 16.804 C 143.005 14.576,142.938 17.918,142.902 24.231 M205.923 24.206 C 205.991 33.953,206.063 35.526,206.452 35.632 C 206.792 35.725,206.809 35.689,206.519 35.485 C 206.219 35.272,206.155 32.830,206.219 24.059 C 206.265 17.923,206.199 12.903,206.073 12.903 C 205.947 12.903,205.880 17.990,205.923 24.206 M221.605 15.004 C 221.605 16.159,221.707 17.104,221.830 17.104 C 221.954 17.104,222.056 16.159,222.056 15.004 C 222.056 13.848,221.954 12.903,221.830 12.903 C 221.707 12.903,221.605 13.848,221.605 15.004 M27.103 15.004 C 27.103 16.077,27.157 16.515,27.224 15.979 C 27.290 15.443,27.290 14.565,27.224 14.029 C 27.157 13.492,27.103 13.931,27.103 15.004 M29.773 24.213 C 29.737 30.351,29.809 35.436,29.932 35.513 C 30.137 35.640,30.132 26.807,29.922 16.954 C 29.876 14.809,29.809 18.075,29.773 24.213 M34.647 17.779 L 34.659 22.356 38.035 22.440 C 39.891 22.487,41.411 22.420,41.411 22.290 C 41.411 22.161,39.929 22.098,38.118 22.149 L 34.825 22.243 34.729 17.723 L 34.634 13.203 34.647 17.779 M90.086 22.281 C 90.051 27.356,90.124 31.508,90.248 31.508 C 90.371 31.508,90.438 28.774,90.396 25.432 C 90.253 14.076,90.150 13.031,90.086 22.281 M101.125 24.366 C 101.043 30.589,101.078 35.576,101.204 35.450 C 101.330 35.324,101.397 30.233,101.354 24.137 L 101.275 13.053 101.125 24.366 M184.642 15.004 C 184.642 16.077,184.697 16.515,184.763 15.979 C 184.830 15.443,184.830 14.565,184.763 14.029 C 184.697 13.492,184.642 13.931,184.642 15.004 M134.767 15.337 C 134.582 15.867,134.483 16.354,134.548 16.418 C 134.612 16.482,134.816 16.101,135.000 15.571 C 135.185 15.040,135.284 14.554,135.220 14.490 C 135.156 14.425,134.952 14.807,134.767 15.337 M16.009 19.505 C 16.009 20.908,16.061 21.482,16.124 20.780 C 16.187 20.079,16.187 18.931,16.124 18.230 C 16.061 17.528,16.009 18.102,16.009 19.505 M59.650 24.306 C 59.603 28.267,59.666 31.508,59.790 31.508 C 59.914 31.508,60.015 28.267,60.015 24.306 C 60.015 20.345,59.952 17.104,59.875 17.104 C 59.799 17.104,59.697 20.345,59.650 24.306 M77.490 26.157 C 77.436 33.184,77.331 35.395,77.044 35.510 C 76.750 35.629,76.753 35.667,77.054 35.685 C 77.702 35.725,77.731 35.239,77.644 25.953 L 77.560 16.954 77.490 26.157 M173.574 19.655 L 173.593 22.356 178.995 22.366 L 184.396 22.376 179.081 22.284 L 173.767 22.192 173.660 19.573 L 173.554 16.954 173.574 19.655 M210.914 22.288 C 211.043 22.416,213.500 22.483,216.376 22.437 L 221.605 22.354 216.143 22.205 C 213.139 22.123,210.786 22.160,210.914 22.288 M18.830 22.429 C 20.356 22.484,22.854 22.484,24.381 22.429 C 25.908 22.375,24.659 22.330,21.605 22.330 C 18.552 22.330,17.303 22.375,18.830 22.429 M110.851 22.616 C 110.765 22.842,110.735 23.754,110.786 24.642 L 110.878 26.257 113.042 26.344 L 115.206 26.432 115.311 28.971 L 115.416 31.510 115.397 28.883 L 115.379 26.257 113.203 26.168 L 111.028 26.080 111.028 24.301 L 111.028 22.522 115.304 22.430 L 119.580 22.338 115.294 22.272 C 111.898 22.219,110.976 22.291,110.851 22.616 M149.861 22.616 C 149.774 22.842,149.745 23.754,149.795 24.642 L 149.887 26.257 152.052 26.344 L 154.216 26.432 154.321 28.971 L 154.426 31.510 154.407 28.883 L 154.389 26.257 152.213 26.168 L 150.038 26.080 150.038 24.278 L 150.038 22.475 154.361 22.565 C 156.738 22.615,158.621 22.554,158.544 22.431 C 158.270 21.990,150.034 22.166,149.861 22.616 M119.729 29.018 C 119.647 32.682,119.684 35.576,119.811 35.448 C 119.938 35.321,120.006 32.323,119.961 28.786 L 119.879 22.356 119.729 29.018 M221.851 24.306 C 221.851 25.379,221.906 25.818,221.973 25.281 C 222.039 24.745,222.039 23.867,221.973 23.331 C 221.906 22.794,221.851 23.233,221.851 24.306 M27.006 29.168 C 26.924 32.750,26.961 35.576,27.088 35.448 C 27.215 35.321,27.283 32.390,27.238 28.936 L 27.156 22.656 27.006 29.168 M131.613 23.736 C 131.262 24.439,131.249 24.583,131.558 24.326 C 131.928 24.020,132.421 22.806,132.177 22.806 C 132.122 22.806,131.868 23.224,131.613 23.736 M184.636 24.306 C 184.636 25.214,184.692 25.585,184.761 25.131 C 184.830 24.677,184.830 23.935,184.761 23.481 C 184.692 23.027,184.636 23.398,184.636 24.306 M13.203 26.312 C 17.977 26.528,22.738 26.538,22.610 26.332 C 22.533 26.208,19.946 26.133,16.862 26.165 C 13.777 26.198,12.131 26.264,13.203 26.312 M34.656 26.482 C 34.419 27.148,34.351 35.658,34.584 35.513 C 34.707 35.436,34.809 33.344,34.809 30.863 L 34.809 26.354 38.081 26.455 C 39.881 26.511,41.291 26.455,41.214 26.332 C 40.962 25.924,34.805 26.065,34.656 26.482 M176.369 26.330 C 177.896 26.385,180.394 26.385,181.920 26.330 C 183.447 26.276,182.198 26.231,179.145 26.231 C 176.092 26.231,174.842 26.276,176.369 26.330 M210.848 26.332 C 210.772 26.455,212.553 26.520,214.807 26.476 C 221.403 26.346,222.004 26.219,216.297 26.161 C 213.377 26.131,210.925 26.208,210.848 26.332 M173.546 28.957 C 173.547 30.278,173.600 30.780,173.663 30.075 C 173.727 29.369,173.726 28.289,173.661 27.674 C 173.597 27.059,173.545 27.637,173.546 28.957 M163.753 31.423 L 165.915 31.534 166.024 33.396 L 166.133 35.259 166.112 33.308 L 166.092 31.358 163.841 31.335 L 161.590 31.312 163.753 31.423 M221.752 33.520 C 221.671 34.709,221.714 35.573,221.846 35.440 C 221.978 35.307,222.044 34.334,221.993 33.278 L 221.899 31.358 221.752 33.520 M184.542 33.670 C 184.462 34.776,184.505 35.572,184.637 35.439 C 184.770 35.305,184.836 34.400,184.784 33.427 L 184.689 31.658 184.542 33.670 " stroke="none" fill="#b3b3b3" fill-rule="evenodd"></path><path id="path3" d="M67.117 13.103 C 66.841 13.379,66.863 16.736,67.142 16.908 C 67.266 16.984,67.367 16.115,67.367 14.975 C 67.367 13.836,67.356 12.903,67.342 12.903 C 67.328 12.903,67.227 12.993,67.117 13.103 M63.987 24.226 L 63.916 35.399 56.339 35.484 L 48.762 35.570 56.349 35.639 C 62.207 35.693,63.968 35.623,64.079 35.333 C 64.159 35.125,64.186 30.028,64.141 24.005 L 64.058 13.053 63.987 24.226 M158.536 15.004 C 158.536 16.077,158.590 16.515,158.657 15.979 C 158.723 15.443,158.723 14.565,158.657 14.029 C 158.590 13.492,158.536 13.931,158.536 15.004 M147.466 24.156 C 147.466 28.117,147.509 29.696,147.561 27.665 C 147.613 25.633,147.613 22.393,147.561 20.463 C 147.509 18.533,147.466 20.195,147.466 24.156 M158.508 29.027 L 158.440 35.399 150.863 35.484 L 143.286 35.570 150.872 35.639 C 156.801 35.694,158.491 35.625,158.605 35.326 C 158.686 35.115,158.713 32.178,158.665 28.799 L 158.577 22.656 158.508 29.027 M22.909 28.957 C 22.910 30.278,22.962 30.780,23.026 30.075 C 23.089 29.369,23.088 28.289,23.024 27.674 C 22.959 27.059,22.907 27.637,22.909 28.957 M126.932 31.344 L 126.932 35.381 125.056 35.491 L 123.181 35.600 125.131 35.579 L 127.082 35.559 127.232 31.432 C 127.314 29.163,127.281 27.306,127.157 27.306 C 127.033 27.307,126.932 29.124,126.932 31.344 M161.539 33.458 C 161.540 34.614,161.594 35.050,161.659 34.427 C 161.724 33.804,161.723 32.859,161.657 32.326 C 161.591 31.794,161.537 32.303,161.539 33.458 M201.050 35.409 L 199.100 35.605 200.958 35.657 C 201.979 35.686,202.899 35.574,203.001 35.409 C 203.103 35.244,203.144 35.132,203.093 35.161 C 203.042 35.189,202.123 35.301,201.050 35.409 M15.379 35.633 C 17.483 35.685,20.926 35.685,23.031 35.633 C 25.135 35.581,23.413 35.539,19.205 35.539 C 14.996 35.539,13.275 35.581,15.379 35.633 M31.126 35.625 C 31.659 35.692,32.604 35.693,33.227 35.628 C 33.849 35.563,33.413 35.509,32.258 35.507 C 31.103 35.506,30.593 35.559,31.126 35.625 M42.536 35.626 C 43.072 35.692,43.950 35.692,44.486 35.626 C 45.023 35.559,44.584 35.505,43.511 35.505 C 42.438 35.505,41.999 35.559,42.536 35.626 M74.044 35.626 C 74.580 35.692,75.458 35.692,75.994 35.626 C 76.530 35.559,76.092 35.505,75.019 35.505 C 73.946 35.505,73.507 35.559,74.044 35.626 M89.815 35.633 C 91.929 35.685,95.305 35.685,97.317 35.633 C 99.329 35.581,97.599 35.539,93.473 35.539 C 89.347 35.539,87.701 35.582,89.815 35.633 M108.420 35.633 C 110.533 35.685,113.909 35.685,115.921 35.633 C 117.934 35.581,116.204 35.539,112.078 35.539 C 107.952 35.539,106.306 35.582,108.420 35.633 M131.061 35.621 C 131.435 35.693,131.975 35.690,132.262 35.615 C 132.548 35.540,132.243 35.481,131.583 35.485 C 130.923 35.488,130.688 35.549,131.061 35.621 M137.059 35.626 C 137.596 35.692,138.473 35.692,139.010 35.626 C 139.546 35.559,139.107 35.505,138.035 35.505 C 136.962 35.505,136.523 35.559,137.059 35.626 M162.859 35.625 C 163.392 35.692,164.337 35.693,164.960 35.628 C 165.582 35.563,165.146 35.509,163.991 35.507 C 162.836 35.506,162.326 35.559,162.859 35.625 M173.236 35.633 C 175.350 35.685,178.726 35.685,180.738 35.633 C 182.750 35.581,181.020 35.539,176.894 35.539 C 172.768 35.539,171.122 35.582,173.236 35.633 M188.822 35.624 C 189.276 35.693,190.019 35.693,190.473 35.624 C 190.926 35.555,190.555 35.499,189.647 35.499 C 188.740 35.499,188.368 35.555,188.822 35.624 M210.445 35.633 C 212.559 35.685,215.935 35.685,217.947 35.633 C 219.959 35.581,218.230 35.539,214.104 35.539 C 209.977 35.539,208.331 35.582,210.445 35.633 " stroke="none" fill="#848484" fill-rule="evenodd"></path><path id="path4" d="M11.537 13.286 C 11.456 13.497,11.427 16.434,11.471 19.813 L 11.553 25.956 17.091 26.039 C 21.042 26.097,22.704 26.226,22.890 26.489 C 23.079 26.755,23.118 26.733,23.029 26.407 C 22.926 26.031,21.982 25.943,17.305 25.875 L 11.703 25.793 11.703 19.503 L 11.703 13.214 19.280 13.128 L 26.857 13.042 19.270 12.973 C 13.342 12.918,11.652 12.987,11.537 13.286 M30.150 13.266 C 30.067 13.480,30.037 18.584,30.083 24.607 L 30.165 35.559 30.236 24.381 L 30.308 13.203 32.250 13.203 L 34.193 13.203 34.288 17.705 L 34.383 22.206 34.371 17.630 L 34.359 13.053 32.329 12.964 C 30.874 12.901,30.257 12.986,30.150 13.266 M41.548 13.277 C 41.463 13.499,41.435 15.699,41.486 18.168 L 41.578 22.656 41.644 17.929 L 41.710 13.203 43.507 13.203 L 45.304 13.203 45.388 24.231 L 45.472 35.259 45.467 24.156 L 45.461 13.053 43.582 12.964 C 42.221 12.899,41.660 12.986,41.548 13.277 M52.588 13.127 C 54.692 13.179,58.136 13.179,60.240 13.127 C 62.344 13.076,60.623 13.034,56.414 13.034 C 52.206 13.034,50.484 13.076,52.588 13.127 M71.210 13.128 C 73.324 13.179,76.700 13.179,78.712 13.127 C 80.724 13.075,78.995 13.033,74.869 13.033 C 70.743 13.034,69.096 13.076,71.210 13.128 M87.843 13.117 L 89.714 13.232 89.800 22.145 L 89.886 31.058 89.879 22.056 L 89.872 13.053 87.922 13.028 L 85.971 13.003 87.843 13.117 M97.137 13.091 C 97.020 13.208,96.924 17.395,96.924 22.396 L 96.924 31.489 93.473 31.588 L 90.021 31.688 93.548 31.673 L 97.074 31.658 97.154 22.431 L 97.233 13.203 99.025 13.203 L 100.818 13.203 100.902 24.231 L 100.986 35.259 100.981 24.156 L 100.975 13.053 99.162 12.966 C 98.165 12.917,97.254 12.974,97.137 13.091 M112.063 13.125 L 119.400 13.214 119.517 14.934 L 119.634 16.654 119.607 14.854 L 119.580 13.053 112.153 13.045 L 104.726 13.037 112.063 13.125 M122.867 13.280 C 122.788 13.487,122.760 18.584,122.806 24.607 L 122.888 35.559 122.960 24.381 L 123.031 13.203 124.961 13.203 C 126.651 13.203,126.916 13.281,127.089 13.826 C 127.198 14.169,127.353 14.383,127.434 14.302 C 127.514 14.221,127.430 13.873,127.246 13.529 C 126.848 12.786,123.138 12.575,122.867 13.280 M136.006 13.251 C 135.802 13.456,135.638 13.765,135.643 13.938 C 135.648 14.112,135.790 14.017,135.958 13.728 C 136.195 13.322,136.665 13.203,138.046 13.203 L 139.828 13.203 139.912 24.231 L 139.996 35.259 139.990 24.156 L 139.985 13.053 138.182 12.966 C 137.038 12.910,136.243 13.015,136.006 13.251 M147.112 13.127 C 149.216 13.179,152.659 13.179,154.764 13.127 C 156.868 13.076,155.146 13.034,150.938 13.034 C 146.729 13.034,145.008 13.076,147.112 13.127 M169.081 13.274 C 169.000 13.484,168.972 18.584,169.017 24.607 L 169.100 35.559 169.171 24.381 L 169.242 13.203 176.744 13.203 L 184.246 13.203 184.246 14.997 L 184.246 16.791 178.770 16.883 L 173.293 16.976 178.845 16.965 L 184.396 16.954 184.396 15.004 L 184.396 13.053 176.812 12.973 C 170.893 12.911,169.195 12.977,169.081 13.274 M188.047 13.103 C 187.937 13.213,187.849 13.450,187.852 13.628 C 187.854 13.834,187.940 13.822,188.084 13.595 C 188.209 13.398,189.118 13.188,190.105 13.127 L 191.898 13.017 190.073 12.960 C 189.069 12.929,188.157 12.993,188.047 13.103 M199.026 13.278 C 198.574 13.850,198.009 15.004,198.181 15.004 C 198.265 15.004,198.540 14.605,198.792 14.118 C 199.214 13.302,199.399 13.223,201.126 13.125 L 203.001 13.019 201.162 12.961 C 199.987 12.924,199.216 13.039,199.026 13.278 M214.103 13.125 L 221.455 13.214 221.455 15.002 L 221.455 16.791 215.979 16.872 L 210.503 16.954 210.486 19.655 L 210.469 22.356 210.572 19.737 L 210.675 17.118 216.140 17.036 L 221.605 16.954 221.605 15.004 L 221.605 13.053 214.178 13.045 L 206.751 13.037 214.103 13.125 M85.657 24.306 C 85.657 30.495,85.697 33.027,85.746 29.932 C 85.795 26.838,85.795 21.774,85.746 18.680 C 85.697 15.585,85.657 18.117,85.657 24.306 M104.262 24.306 C 104.262 30.495,104.302 33.027,104.351 29.932 C 104.399 26.838,104.399 21.774,104.351 18.680 C 104.302 15.585,104.262 18.117,104.262 24.306 M206.288 24.306 C 206.288 30.495,206.327 33.027,206.376 29.932 C 206.425 26.838,206.425 21.774,206.376 18.680 C 206.327 15.585,206.288 18.117,206.288 24.306 M26.707 16.454 C 26.707 16.706,25.164 16.823,21.230 16.872 L 15.754 16.939 21.133 17.029 C 26.134 17.112,27.540 16.937,26.912 16.309 C 26.799 16.196,26.707 16.262,26.707 16.454 M79.820 16.785 L 77.269 16.954 77.263 26.257 L 77.256 35.559 77.342 26.332 L 77.428 17.104 79.807 17.104 C 81.115 17.104,82.269 16.969,82.371 16.804 C 82.473 16.639,82.514 16.529,82.463 16.560 C 82.412 16.591,81.223 16.692,79.820 16.785 M52.948 17.186 C 52.868 17.395,52.838 20.737,52.883 24.612 L 52.963 31.658 56.490 31.673 L 60.016 31.688 56.565 31.588 L 53.113 31.489 53.113 24.306 L 53.113 17.123 56.639 17.028 L 60.165 16.933 56.630 16.869 C 53.999 16.821,53.057 16.902,52.948 17.186 M70.288 17.024 L 72.910 17.127 72.995 26.193 L 73.081 35.259 73.075 26.107 L 73.068 16.954 70.368 16.937 L 67.667 16.920 70.288 17.024 M108.462 17.186 C 108.382 17.395,108.352 20.737,108.396 24.612 L 108.477 31.658 112.004 31.673 L 115.530 31.688 112.079 31.588 L 108.627 31.489 108.627 24.303 L 108.627 17.118 114.104 17.029 L 119.580 16.940 114.094 16.872 C 109.884 16.820,108.574 16.893,108.462 17.186 M150.263 17.028 C 151.789 17.082,154.287 17.082,155.814 17.028 C 157.341 16.973,156.092 16.929,153.038 16.929 C 149.985 16.929,148.736 16.973,150.263 17.028 M132.984 20.990 C 132.808 21.493,132.728 21.905,132.806 21.905 C 133.009 21.905,133.575 20.347,133.426 20.198 C 133.358 20.130,133.159 20.486,132.984 20.990 M184.300 24.074 L 184.246 25.793 178.920 25.882 L 173.593 25.971 178.929 26.039 C 184.921 26.115,184.655 26.221,184.468 23.818 L 184.354 22.356 184.300 24.074 M221.408 24.163 L 221.510 25.793 216.006 25.875 L 210.503 25.956 210.503 28.807 L 210.503 31.658 215.904 31.668 L 221.305 31.678 215.979 31.586 L 210.653 31.494 210.653 28.807 L 210.653 26.120 216.129 26.038 L 221.605 25.956 221.699 24.489 C 221.750 23.682,221.682 22.912,221.549 22.778 C 221.415 22.644,221.351 23.267,221.408 24.163 M119.557 29.107 C 119.557 32.656,119.601 34.107,119.654 32.333 C 119.707 30.559,119.707 27.656,119.654 25.881 C 119.601 24.107,119.557 25.559,119.557 29.107 M197.601 23.700 C 197.498 24.027,197.529 24.502,197.671 24.756 C 197.854 25.083,197.929 24.909,197.929 24.162 C 197.929 22.953,197.867 22.864,197.601 23.700 M37.951 26.026 L 41.395 26.125 41.490 30.767 L 41.584 35.409 41.572 30.683 L 41.560 25.956 38.034 25.942 L 34.508 25.927 37.951 26.026 M112.003 26.025 C 112.622 26.090,113.635 26.090,114.254 26.025 C 114.872 25.960,114.366 25.907,113.128 25.907 C 111.890 25.907,111.384 25.960,112.003 26.025 M151.013 26.025 C 151.632 26.090,152.644 26.090,153.263 26.025 C 153.882 25.960,153.376 25.907,152.138 25.907 C 150.900 25.907,150.394 25.960,151.013 26.025 M34.329 31.058 C 34.329 33.533,34.375 34.506,34.432 33.220 C 34.488 31.933,34.488 29.907,34.431 28.718 C 34.374 27.529,34.328 28.582,34.329 31.058 M136.052 31.358 C 136.053 33.668,136.100 34.574,136.157 33.370 C 136.214 32.166,136.214 30.276,136.156 29.169 C 136.099 28.062,136.052 29.047,136.052 31.358 M194.743 29.182 C 194.449 29.788,194.459 29.804,194.837 29.337 C 195.069 29.051,195.346 28.904,195.454 29.012 C 195.561 29.119,195.649 29.050,195.649 28.857 C 195.649 28.267,195.089 28.468,194.743 29.182 M128.304 30.008 C 128.414 30.420,128.630 30.960,128.783 31.208 C 128.976 31.521,129.000 31.429,128.860 30.908 C 128.750 30.495,128.534 29.955,128.381 29.707 C 128.188 29.395,128.165 29.486,128.304 30.008 M17.254 31.508 L 11.553 31.678 17.162 31.743 C 20.649 31.783,22.840 31.694,22.956 31.508 C 23.058 31.343,23.099 31.237,23.048 31.273 C 22.997 31.309,20.390 31.414,17.254 31.508 M147.601 31.593 C 147.731 31.723,149.379 31.789,151.263 31.742 L 154.689 31.655 151.027 31.506 C 149.012 31.425,147.471 31.464,147.601 31.593 M178.830 31.729 L 184.218 31.821 184.328 33.540 L 184.439 35.259 184.418 33.458 L 184.396 31.658 178.919 31.647 L 173.443 31.637 178.830 31.729 M11.496 33.758 C 11.498 34.749,11.554 35.118,11.620 34.578 C 11.687 34.039,11.686 33.229,11.617 32.778 C 11.549 32.327,11.494 32.768,11.496 33.758 M221.548 33.758 C 221.550 34.749,221.606 35.118,221.673 34.578 C 221.740 34.039,221.738 33.229,221.670 32.778 C 221.601 32.327,221.547 32.768,221.548 33.758 " stroke="none" fill="#6c6c6c" fill-rule="evenodd"></path></g></svg>