<svg id="svg" version="1.1" xmlns="http://www.w3.org/2000/svg" xmlns:xlink="http://www.w3.org/1999/xlink" width="400" height="102.47933884297521" viewBox="0, 0, 400,102.47933884297521"><g id="svgg"><path id="path0" d="M55.222 1.238 C 55.222 1.374,55.328 1.526,55.457 1.576 C 55.610 1.634,55.672 1.569,55.637 1.388 C 55.569 1.035,55.222 0.909,55.222 1.238 M73.040 12.027 C 73.078 21.695,73.115 23.085,73.333 23.127 C 73.718 23.201,73.638 1.111,73.253 1.029 C 73.025 0.981,73.002 2.164,73.040 12.027 M90.833 12.083 C 90.833 23.056,90.837 23.167,91.167 23.167 C 91.497 23.167,91.500 23.056,91.500 12.083 C 91.500 1.111,91.497 1.000,91.167 1.000 C 90.837 1.000,90.833 1.111,90.833 12.083 M108.601 1.764 C 108.469 2.108,108.469 22.059,108.601 22.403 C 108.732 22.743,109.102 22.743,109.232 22.403 C 109.364 22.059,109.364 2.108,109.232 1.764 C 109.102 1.424,108.732 1.424,108.601 1.764 M113.333 1.833 C 113.333 2.017,113.441 2.167,113.573 2.167 C 113.921 2.167,114.082 1.821,113.813 1.651 C 113.456 1.425,113.333 1.471,113.333 1.833 M189.000 12.056 C 189.000 22.568,189.018 22.998,189.443 22.645 C 189.871 22.290,189.763 1.500,189.333 1.500 C 189.004 1.500,189.000 1.611,189.000 12.056 M186.000 2.083 C 186.000 2.222,186.148 2.333,186.333 2.333 C 186.519 2.333,186.667 2.222,186.667 2.083 C 186.667 1.944,186.519 1.833,186.333 1.833 C 186.148 1.833,186.000 1.944,186.000 2.083 M185.607 2.782 C 185.407 2.982,185.499 3.333,185.750 3.333 C 185.887 3.333,186.000 3.225,186.000 3.093 C 186.000 2.815,185.762 2.627,185.607 2.782 M120.875 2.944 C 120.582 3.062,120.615 3.500,120.917 3.500 C 121.056 3.500,121.167 3.352,121.167 3.167 C 121.167 2.983,121.148 2.839,121.125 2.846 C 121.102 2.854,120.990 2.897,120.875 2.944 M185.093 3.818 C 184.935 4.073,185.179 4.485,185.430 4.388 C 185.740 4.270,185.737 3.667,185.427 3.667 C 185.294 3.667,185.144 3.735,185.093 3.818 M177.333 4.738 C 177.333 4.892,177.476 5.000,177.681 5.000 C 178.087 5.000,178.029 4.611,177.611 4.529 C 177.447 4.498,177.333 4.583,177.333 4.738 M184.532 4.958 C 184.563 5.119,184.698 5.250,184.833 5.250 C 184.968 5.250,185.104 5.119,185.135 4.958 C 185.174 4.754,185.084 4.667,184.833 4.667 C 184.582 4.667,184.492 4.754,184.532 4.958 M65.139 13.821 C 65.124 18.595,65.105 22.631,65.097 22.792 C 65.088 22.977,65.205 23.083,65.417 23.083 C 65.906 23.083,65.947 5.293,65.458 5.198 C 65.184 5.146,65.165 5.654,65.139 13.821 M173.000 5.422 C 173.000 5.770,173.499 5.937,173.681 5.649 C 173.918 5.274,173.859 5.167,173.417 5.167 C 173.154 5.167,173.000 5.261,173.000 5.422 M177.917 5.500 C 177.781 5.720,177.980 6.032,178.178 5.910 C 178.381 5.784,178.379 5.333,178.177 5.333 C 178.090 5.333,177.973 5.408,177.917 5.500 M179.833 5.667 C 179.833 5.889,179.944 6.000,180.167 6.000 C 180.389 6.000,180.500 5.889,180.500 5.667 C 180.500 5.444,180.389 5.333,180.167 5.333 C 179.944 5.333,179.833 5.444,179.833 5.667 M184.066 5.930 C 184.121 6.075,184.167 6.225,184.167 6.264 C 184.167 6.302,184.279 6.333,184.417 6.333 C 184.556 6.333,184.667 6.185,184.667 6.000 C 184.667 5.772,184.556 5.667,184.316 5.667 C 184.064 5.667,183.993 5.741,184.066 5.930 M173.667 6.500 C 173.667 6.896,174.087 6.947,174.232 6.570 C 174.379 6.187,174.367 6.167,174.000 6.167 C 173.778 6.167,173.667 6.278,173.667 6.500 M178.333 6.667 C 178.333 6.850,178.406 7.000,178.494 7.000 C 178.583 7.000,178.735 6.850,178.833 6.667 C 178.985 6.384,178.960 6.333,178.673 6.333 C 178.444 6.333,178.333 6.443,178.333 6.667 M179.500 6.667 C 179.500 6.852,179.611 7.000,179.750 7.000 C 179.889 7.000,180.000 6.852,180.000 6.667 C 180.000 6.481,179.889 6.333,179.750 6.333 C 179.611 6.333,179.500 6.481,179.500 6.667 M119.267 6.932 C 119.141 7.261,119.278 7.500,119.593 7.500 C 119.853 7.500,119.891 7.344,119.732 6.930 C 119.603 6.593,119.397 6.593,119.267 6.932 M183.531 6.956 C 183.615 7.391,184.167 7.439,184.167 7.012 C 184.167 6.774,184.060 6.667,183.821 6.667 C 183.583 6.667,183.493 6.756,183.531 6.956 M115.276 7.076 C 115.207 7.256,115.279 7.333,115.519 7.333 C 115.709 7.333,115.832 7.245,115.795 7.135 C 115.692 6.827,115.385 6.792,115.276 7.076 M174.208 7.111 C 173.833 7.261,173.970 7.694,174.375 7.637 C 174.581 7.607,174.750 7.477,174.750 7.347 C 174.750 7.084,174.524 6.985,174.208 7.111 M178.833 7.583 C 178.833 7.722,178.981 7.833,179.167 7.833 C 179.352 7.833,179.500 7.722,179.500 7.583 C 179.500 7.444,179.352 7.333,179.167 7.333 C 178.981 7.333,178.833 7.444,178.833 7.583 M174.667 8.417 C 174.667 8.676,174.761 8.833,174.917 8.833 C 175.072 8.833,175.167 8.676,175.167 8.417 C 175.167 8.157,175.072 8.000,174.917 8.000 C 174.761 8.000,174.667 8.157,174.667 8.417 M175.167 9.417 C 175.167 9.882,175.410 9.975,175.566 9.570 C 175.726 9.153,175.686 9.000,175.417 9.000 C 175.261 9.000,175.167 9.157,175.167 9.417 M175.500 10.346 C 175.500 10.773,176.052 10.724,176.135 10.290 C 176.174 10.090,176.084 10.000,175.846 10.000 C 175.607 10.000,175.500 10.107,175.500 10.346 M117.789 10.766 C 117.627 10.928,117.850 11.333,118.101 11.333 C 118.229 11.333,118.333 11.183,118.333 11.000 C 118.333 10.686,118.009 10.547,117.789 10.766 M176.046 11.339 C 176.077 11.750,176.554 11.710,176.635 11.290 C 176.673 11.092,176.585 11.000,176.356 11.000 C 176.122 11.000,176.028 11.102,176.046 11.339 M181.281 11.441 C 181.045 11.677,181.179 12.000,181.512 12.000 C 181.745 12.000,181.840 11.909,181.804 11.722 C 181.744 11.415,181.460 11.262,181.281 11.441 M117.167 12.333 C 117.167 12.517,117.242 12.667,117.333 12.667 C 117.425 12.667,117.500 12.517,117.500 12.333 C 117.500 12.150,117.425 12.000,117.333 12.000 C 117.242 12.000,117.167 12.150,117.167 12.333 M181.667 13.417 C 181.667 13.556,181.815 13.667,182.000 13.667 C 182.185 13.667,182.333 13.556,182.333 13.417 C 182.333 13.278,182.185 13.167,182.000 13.167 C 181.815 13.167,181.667 13.278,181.667 13.417 M182.278 14.111 C 182.075 14.314,182.163 14.667,182.417 14.667 C 182.556 14.667,182.667 14.519,182.667 14.333 C 182.667 14.001,182.489 13.900,182.278 14.111 M182.667 15.333 C 182.667 15.712,183.085 15.787,183.221 15.433 C 183.325 15.160,183.202 15.000,182.889 15.000 C 182.767 15.000,182.667 15.150,182.667 15.333 M113.365 15.956 C 113.448 16.391,114.000 16.439,114.000 16.012 C 114.000 15.774,113.893 15.667,113.654 15.667 C 113.416 15.667,113.326 15.756,113.365 15.956 M121.036 16.026 C 121.077 16.149,121.245 16.276,121.408 16.308 C 121.598 16.344,121.678 16.284,121.630 16.141 C 121.589 16.018,121.422 15.891,121.259 15.859 C 121.069 15.822,120.989 15.882,121.036 16.026 M183.167 16.333 C 183.167 16.542,183.278 16.667,183.464 16.667 C 183.651 16.667,183.762 16.542,183.762 16.333 C 183.762 16.124,183.651 16.000,183.464 16.000 C 183.278 16.000,183.167 16.124,183.167 16.333 M178.938 16.966 C 178.832 17.138,179.024 17.405,179.292 17.458 C 179.406 17.481,179.500 17.350,179.500 17.167 C 179.500 16.842,179.102 16.700,178.938 16.966 M183.604 17.090 C 183.454 17.481,183.465 17.500,183.846 17.500 C 184.079 17.500,184.174 17.409,184.137 17.222 C 184.063 16.842,183.731 16.759,183.604 17.090 M120.500 17.500 C 120.500 17.722,120.611 17.833,120.833 17.833 C 121.056 17.833,121.167 17.722,121.167 17.500 C 121.167 17.278,121.056 17.167,120.833 17.167 C 120.611 17.167,120.500 17.278,120.500 17.500 M179.566 18.097 C 179.621 18.242,179.668 18.411,179.669 18.472 C 179.673 18.621,179.994 18.118,179.997 17.958 C 179.999 17.890,179.879 17.833,179.732 17.833 C 179.556 17.833,179.499 17.924,179.566 18.097 M184.101 18.097 C 183.954 18.479,183.966 18.500,184.333 18.500 C 184.556 18.500,184.667 18.389,184.667 18.167 C 184.667 17.771,184.246 17.719,184.101 18.097 M177.333 18.990 C 177.333 19.210,177.439 19.305,177.667 19.288 C 177.866 19.272,178.000 19.143,178.000 18.965 C 178.000 18.778,177.876 18.667,177.667 18.667 C 177.448 18.667,177.333 18.778,177.333 18.990 M180.000 18.836 C 179.778 18.982,179.778 19.018,180.000 19.164 C 180.375 19.410,180.500 19.369,180.500 19.000 C 180.500 18.631,180.375 18.590,180.000 18.836 M1.865 19.125 C 1.896 19.285,2.014 19.409,2.127 19.400 C 2.241 19.391,4.693 19.372,7.578 19.358 C 12.165 19.336,12.811 19.302,12.727 19.083 C 12.568 18.669,1.785 18.710,1.865 19.125 M77.773 19.083 C 77.690 19.300,78.106 19.333,80.917 19.333 C 83.728 19.333,84.144 19.300,84.060 19.083 C 83.980 18.874,83.472 18.833,80.917 18.833 C 78.361 18.833,77.853 18.874,77.773 19.083 M95.500 19.083 C 95.500 19.297,95.969 19.333,98.722 19.333 C 101.475 19.333,101.944 19.297,101.944 19.083 C 101.944 18.870,101.475 18.833,98.722 18.833 C 95.969 18.833,95.500 18.870,95.500 19.083 M133.167 19.083 C 133.167 19.297,133.629 19.333,136.328 19.333 C 139.070 19.333,139.477 19.300,139.394 19.083 C 139.313 18.874,138.803 18.833,136.232 18.833 C 133.618 18.833,133.167 18.870,133.167 19.083 M146.167 21.000 C 146.167 22.952,146.196 23.167,146.458 23.167 C 146.721 23.167,146.750 22.952,146.750 21.000 C 146.750 19.048,146.721 18.833,146.458 18.833 C 146.196 18.833,146.167 19.048,146.167 21.000 M158.167 19.077 C 158.167 19.283,158.944 19.327,163.375 19.368 C 169.045 19.421,168.860 19.431,168.725 19.078 C 168.584 18.711,158.167 18.710,158.167 19.077 M184.615 18.941 C 184.379 19.177,184.512 19.500,184.846 19.500 C 185.079 19.500,185.174 19.409,185.137 19.222 C 185.078 18.915,184.793 18.762,184.615 18.941 M193.833 19.083 C 193.833 19.300,194.527 19.333,199.078 19.333 C 203.672 19.333,204.311 19.302,204.227 19.083 C 204.145 18.869,203.405 18.833,198.982 18.833 C 194.517 18.833,193.833 18.867,193.833 19.083 M176.865 19.956 C 176.946 20.379,177.429 20.421,177.429 20.005 C 177.429 19.786,177.319 19.667,177.119 19.667 C 176.914 19.667,176.828 19.765,176.865 19.956 M180.438 19.800 C 180.392 19.873,180.425 20.042,180.511 20.175 C 180.666 20.416,180.990 20.161,180.997 19.792 C 181.001 19.625,180.542 19.631,180.438 19.800 M185.104 19.923 C 184.931 20.374,184.984 20.500,185.345 20.500 C 185.604 20.500,185.677 20.410,185.637 20.138 C 185.571 19.690,185.244 19.558,185.104 19.923 M176.417 20.667 C 176.277 20.892,176.465 21.167,176.760 21.167 C 176.892 21.167,177.000 21.017,177.000 20.833 C 177.000 20.488,176.598 20.373,176.417 20.667 M180.875 20.875 C 180.913 20.990,181.044 21.083,181.167 21.083 C 181.289 21.083,181.420 20.990,181.458 20.875 C 181.500 20.751,181.381 20.667,181.167 20.667 C 180.952 20.667,180.834 20.751,180.875 20.875 M115.521 21.154 C 115.363 21.251,115.342 21.379,115.451 21.574 C 115.595 21.831,115.627 21.832,115.830 21.587 C 116.093 21.270,115.860 20.944,115.521 21.154 M175.833 21.833 C 175.833 22.056,175.944 22.167,176.167 22.167 C 176.389 22.167,176.500 22.056,176.500 21.833 C 176.500 21.611,176.389 21.500,176.167 21.500 C 175.944 21.500,175.833 21.611,175.833 21.833 M181.333 21.833 C 181.333 22.084,181.420 22.174,181.625 22.135 C 181.785 22.104,181.917 21.968,181.917 21.833 C 181.917 21.698,181.785 21.563,181.625 21.532 C 181.420 21.492,181.333 21.582,181.333 21.833 M175.333 22.833 C 175.333 23.239,175.915 23.294,176.066 22.903 C 176.215 22.514,176.204 22.500,175.750 22.500 C 175.444 22.500,175.333 22.589,175.333 22.833 M181.865 22.792 C 181.896 22.952,182.032 23.083,182.167 23.083 C 182.302 23.083,182.437 22.952,182.468 22.792 C 182.508 22.587,182.418 22.500,182.167 22.500 C 181.916 22.500,181.826 22.587,181.865 22.792 " stroke="none" fill="#979797" fill-rule="evenodd"></path><path id="path1" d="M2.500 1.333 C 2.500 1.632,2.326 1.745,1.956 1.686 C 1.886 1.674,1.849 4.422,1.873 7.791 L 1.917 13.917 7.292 13.961 L 12.667 14.005 12.667 16.326 C 12.667 17.693,12.735 18.689,12.833 18.750 C 12.925 18.807,13.000 19.036,13.000 19.260 L 13.000 19.667 7.417 19.667 L 1.833 19.667 1.833 20.989 C 1.833 22.184,1.867 22.322,2.182 22.422 C 2.422 22.498,2.505 22.630,2.448 22.849 C 2.367 23.158,2.565 23.167,9.404 23.167 L 16.443 23.167 16.430 22.797 C 16.411 22.280,16.951 22.194,17.048 22.699 C 17.088 22.910,17.131 20.219,17.144 16.718 C 17.156 13.217,17.103 10.313,17.024 10.265 C 16.946 10.216,16.918 10.369,16.963 10.605 C 17.030 10.955,16.988 11.022,16.731 10.973 C 16.557 10.940,16.393 10.747,16.363 10.540 L 16.310 10.167 11.438 10.167 C 8.083 10.167,6.509 10.224,6.381 10.352 C 5.944 10.789,5.833 10.279,5.833 7.823 C 5.833 4.376,5.232 4.701,11.733 4.636 C 16.876 4.584,16.989 4.590,17.055 4.917 C 17.091 5.100,17.121 4.313,17.121 3.167 C 17.121 2.021,17.088 1.256,17.048 1.468 C 16.953 1.962,16.437 1.890,16.363 1.373 L 16.310 1.000 9.405 1.000 C 2.611 1.000,2.500 1.005,2.500 1.333 M20.271 1.521 C 20.214 1.807,20.167 6.560,20.167 12.083 C 20.167 17.606,20.214 22.359,20.271 22.646 L 20.375 23.167 21.917 23.167 L 23.458 23.167 23.563 22.646 C 23.620 22.359,23.667 20.372,23.667 18.229 C 23.667 14.444,23.676 14.333,24.000 14.333 C 24.183 14.333,24.333 14.258,24.333 14.167 C 24.333 14.062,25.472 14.000,27.417 14.000 L 30.500 14.000 30.500 18.490 C 30.500 20.996,30.567 23.022,30.651 23.074 C 30.734 23.125,30.766 23.027,30.721 22.857 C 30.672 22.668,30.746 22.505,30.910 22.442 C 31.256 22.309,31.467 22.813,31.149 23.014 C 31.006 23.105,31.579 23.163,32.645 23.164 C 34.061 23.166,34.341 23.127,34.191 22.946 C 33.985 22.698,34.238 22.333,34.617 22.333 C 34.792 22.333,34.833 20.390,34.833 12.123 L 34.833 1.912 34.458 1.748 C 34.252 1.657,34.083 1.471,34.083 1.333 C 34.083 0.823,31.532 0.893,31.336 1.410 C 31.137 1.934,30.715 1.963,30.618 1.458 C 30.578 1.252,30.535 3.127,30.523 5.625 L 30.500 10.167 27.458 10.169 C 25.785 10.170,24.248 10.216,24.042 10.272 L 23.667 10.372 23.667 6.207 C 23.667 3.916,23.620 1.807,23.563 1.521 L 23.458 1.000 21.917 1.000 L 20.375 1.000 20.271 1.521 M38.321 1.040 C 38.314 1.064,38.260 1.233,38.201 1.417 C 38.107 1.708,38.062 22.109,38.153 22.875 C 38.185 23.148,38.646 23.167,45.197 23.167 C 51.107 23.167,52.178 23.131,52.018 22.939 C 51.874 22.765,51.893 22.658,52.099 22.487 C 52.330 22.296,52.403 22.309,52.601 22.580 C 52.800 22.852,52.831 21.358,52.814 12.074 C 52.803 6.121,52.760 1.381,52.718 1.542 C 52.587 2.045,51.928 1.805,51.919 1.250 C 51.917 1.107,38.362 0.897,38.321 1.040 M55.917 2.042 C 55.856 2.615,55.832 3.421,55.862 3.833 L 55.917 4.583 58.542 4.629 C 61.107 4.674,61.693 4.822,61.000 5.250 C 60.620 5.485,60.789 22.333,61.172 22.333 C 61.585 22.333,61.803 22.811,61.483 23.014 C 61.339 23.105,61.929 23.163,63.019 23.164 L 64.788 23.167 64.894 22.393 C 64.952 21.968,65.000 17.908,65.000 13.370 C 65.000 3.658,64.704 4.680,67.521 4.672 C 68.586 4.669,69.693 4.620,69.979 4.563 L 70.500 4.458 70.500 3.081 C 70.500 1.872,70.464 1.707,70.208 1.727 C 70.024 1.742,69.897 1.612,69.863 1.375 L 69.810 1.000 62.918 1.000 L 56.027 1.000 55.917 2.042 M73.833 12.083 L 73.833 23.167 80.729 23.167 L 87.625 23.167 87.724 22.670 C 87.796 22.313,87.895 22.201,88.078 22.271 C 88.305 22.358,88.333 21.245,88.333 12.083 C 88.333 3.276,88.299 1.811,88.097 1.888 C 87.880 1.972,87.633 1.655,87.598 1.250 C 87.560 0.817,85.005 0.965,84.836 1.410 C 84.737 1.671,84.546 1.833,84.337 1.833 C 84.003 1.833,84.000 1.910,84.000 10.333 C 84.000 16.257,84.054 18.833,84.178 18.833 C 84.276 18.833,84.333 19.002,84.303 19.208 C 84.250 19.581,84.231 19.584,80.917 19.628 L 77.583 19.673 77.633 10.667 C 77.660 5.714,77.623 1.671,77.550 1.684 C 77.176 1.747,77.000 1.634,77.000 1.333 C 77.000 1.023,76.889 1.000,75.417 1.000 L 73.833 1.000 73.833 12.083 M91.607 1.625 C 91.472 2.443,91.472 21.728,91.608 22.546 L 91.712 23.176 99.023 23.161 L 106.333 23.147 106.333 17.023 C 106.333 12.483,106.282 10.848,106.133 10.700 C 105.978 10.544,105.980 10.500,106.143 10.500 C 106.259 10.500,106.310 10.430,106.257 10.344 C 106.098 10.087,98.553 10.113,98.392 10.371 C 98.318 10.488,98.229 11.352,98.194 12.292 L 98.129 14.000 99.981 14.000 L 101.833 14.000 101.870 16.375 L 101.906 18.750 101.958 16.625 C 101.995 15.093,102.067 14.500,102.213 14.500 C 102.446 14.499,102.355 19.088,102.115 19.458 C 101.965 19.691,95.344 19.772,95.321 19.542 C 95.314 19.473,95.283 19.285,95.252 19.125 C 95.221 18.965,95.267 18.833,95.353 18.833 C 95.449 18.833,95.504 16.095,95.494 11.792 L 95.479 4.750 100.906 4.706 L 106.333 4.662 106.333 3.174 C 106.333 2.356,106.258 1.640,106.167 1.583 C 106.075 1.527,106.000 1.405,106.000 1.314 C 106.000 1.222,106.087 1.201,106.192 1.266 C 106.312 1.340,106.340 1.312,106.266 1.192 C 106.179 1.052,104.205 1.000,98.929 1.000 L 91.710 1.000 91.607 1.625 M109.191 1.148 C 109.033 1.248,109.020 1.326,109.149 1.406 C 109.395 1.558,109.412 22.598,109.167 22.750 C 108.714 23.030,109.168 23.133,110.957 23.156 C 112.496 23.176,112.871 23.137,112.711 22.978 C 112.475 22.742,112.724 22.333,113.104 22.333 C 113.291 22.333,113.333 21.723,113.333 19.018 C 113.333 15.539,113.429 15.124,114.104 15.684 C 114.370 15.904,114.411 16.333,114.167 16.333 C 114.075 16.333,114.000 16.408,114.000 16.500 C 114.000 16.592,114.094 16.648,114.208 16.625 C 114.355 16.596,114.401 16.790,114.365 17.279 C 114.320 17.894,114.350 17.964,114.634 17.890 C 115.019 17.790,115.236 18.226,115.011 18.646 C 114.831 18.982,114.958 19.228,115.394 19.389 C 115.611 19.469,115.674 19.604,115.602 19.835 C 115.546 20.018,115.454 20.317,115.397 20.500 C 115.317 20.762,115.371 20.833,115.652 20.833 C 116.069 20.833,116.296 21.270,116.022 21.545 C 115.763 21.803,115.785 22.000,116.073 22.000 C 116.206 22.000,116.356 22.068,116.407 22.152 C 116.551 22.384,116.322 22.846,116.123 22.723 C 116.020 22.660,115.998 22.695,116.069 22.810 C 116.135 22.918,116.254 22.965,116.333 22.917 C 116.412 22.868,116.524 22.904,116.582 22.997 C 116.805 23.358,118.305 23.199,118.363 22.809 C 118.393 22.612,118.563 22.368,118.743 22.267 C 119.358 21.921,119.518 21.709,119.246 21.605 C 118.887 21.467,118.945 20.983,119.333 20.882 C 119.517 20.834,119.667 20.656,119.667 20.486 C 119.667 20.297,119.753 20.210,119.889 20.262 C 120.051 20.324,120.119 20.155,120.139 19.642 C 120.154 19.254,120.254 18.882,120.362 18.816 C 120.580 18.681,120.668 17.833,120.464 17.833 C 120.121 17.833,120.353 17.001,120.722 16.909 C 121.080 16.819,121.291 16.333,120.972 16.333 C 120.650 16.333,120.867 15.705,121.250 15.530 L 121.667 15.340 121.667 18.902 C 121.667 22.191,121.689 22.461,121.958 22.440 C 122.160 22.424,122.246 22.532,122.237 22.792 C 122.224 23.155,122.273 23.167,123.773 23.167 C 125.070 23.167,125.307 23.127,125.229 22.921 C 125.128 22.658,125.558 22.113,125.730 22.286 C 125.787 22.342,125.833 17.769,125.833 12.122 C 125.833 2.002,125.829 1.854,125.500 1.750 C 125.317 1.692,125.167 1.499,125.167 1.322 C 125.167 1.058,125.048 1.000,124.510 1.000 C 123.871 1.000,123.347 1.322,123.948 1.345 C 124.688 1.374,123.535 1.644,122.625 1.655 C 122.098 1.661,121.667 1.742,121.667 1.833 C 121.667 1.925,121.571 2.000,121.453 2.000 C 121.181 2.000,121.107 2.810,121.352 3.106 C 121.586 3.388,121.425 3.833,121.089 3.833 C 120.948 3.833,120.824 3.927,120.814 4.042 C 120.803 4.156,120.737 4.025,120.667 3.750 L 120.539 3.250 120.520 3.698 C 120.509 3.945,120.575 4.193,120.667 4.250 C 120.989 4.449,120.859 5.167,120.500 5.167 C 120.221 5.167,120.165 5.281,120.156 5.875 C 120.147 6.498,120.126 6.535,119.986 6.184 C 119.754 5.603,119.644 5.841,119.836 6.510 C 120.076 7.346,120.044 7.491,119.583 7.667 C 119.147 7.833,119.047 8.147,119.339 8.439 C 119.587 8.687,119.352 9.167,118.982 9.167 C 118.809 9.167,118.667 9.279,118.667 9.417 C 118.667 9.554,118.592 9.667,118.500 9.667 C 118.275 9.667,118.287 10.554,118.515 10.782 C 118.647 10.914,118.646 11.061,118.510 11.315 C 118.301 11.705,117.912 11.780,117.768 11.458 C 117.717 11.344,117.681 11.438,117.689 11.667 C 117.723 12.654,117.668 12.833,117.333 12.833 C 116.964 12.833,116.876 12.357,117.188 12.046 C 117.411 11.823,117.233 10.939,116.995 11.086 C 116.906 11.141,116.833 11.023,116.833 10.824 C 116.833 10.543,116.758 10.481,116.500 10.548 C 116.205 10.625,116.167 10.553,116.167 9.921 C 116.167 9.346,116.101 9.188,115.833 9.118 C 115.484 9.027,115.381 8.593,115.667 8.417 C 115.980 8.223,115.853 7.667,115.495 7.667 C 115.094 7.667,114.876 7.224,115.145 6.955 C 115.417 6.683,115.377 6.333,115.073 6.333 C 114.931 6.333,114.863 6.254,114.923 6.157 C 115.121 5.836,114.844 5.151,114.537 5.202 C 114.297 5.242,114.257 5.133,114.295 4.542 C 114.333 3.928,114.295 3.833,114.003 3.833 C 113.755 3.833,113.667 3.723,113.667 3.417 C 113.667 3.170,113.762 3.000,113.901 3.000 C 114.053 3.000,114.105 2.883,114.048 2.667 C 113.992 2.451,113.821 2.333,113.564 2.333 C 113.278 2.333,113.167 2.240,113.167 2.000 C 113.167 1.706,113.055 1.666,112.208 1.664 C 111.453 1.662,110.249 1.354,110.917 1.333 C 111.008 1.331,110.971 1.256,110.833 1.167 C 110.524 0.967,109.496 0.955,109.191 1.148 M129.167 12.083 L 129.167 23.167 136.151 23.167 C 143.120 23.167,143.135 23.166,143.046 22.823 C 142.980 22.571,143.050 22.456,143.311 22.387 C 143.854 22.246,143.875 11.093,143.333 10.952 C 143.134 10.900,143.000 10.724,143.000 10.516 C 143.000 10.173,142.941 10.167,139.496 10.167 L 135.992 10.167 135.833 10.583 C 135.735 10.842,135.544 11.000,135.331 11.000 C 135.006 11.000,134.990 11.081,135.035 12.458 L 135.083 13.917 137.208 13.963 L 139.333 14.010 139.333 16.422 C 139.333 17.918,139.397 18.833,139.500 18.833 C 139.592 18.833,139.667 19.022,139.667 19.253 L 139.667 19.674 136.292 19.628 C 132.934 19.584,132.916 19.581,132.863 19.208 C 132.834 19.002,132.894 18.833,132.997 18.833 C 133.132 18.833,133.170 16.896,133.133 11.750 L 133.083 4.666 137.854 4.667 C 140.478 4.667,142.859 4.620,143.146 4.563 L 143.667 4.458 143.667 3.081 C 143.667 1.872,143.631 1.707,143.375 1.727 C 143.190 1.742,143.064 1.612,143.030 1.375 L 142.977 1.000 136.072 1.000 L 129.167 1.000 129.167 12.083 M154.282 1.107 C 154.224 1.165,154.173 6.153,154.169 12.190 L 154.162 23.167 161.136 23.167 L 168.110 23.167 168.097 22.792 C 168.086 22.499,168.166 22.425,168.458 22.456 C 168.821 22.495,168.833 22.449,168.833 21.081 L 168.833 19.667 163.427 19.667 C 159.284 19.667,157.988 19.618,157.885 19.458 C 157.702 19.176,157.599 14.500,157.776 14.500 C 157.853 14.500,157.894 15.475,157.866 16.666 C 157.822 18.538,157.850 18.833,158.074 18.833 C 158.297 18.833,158.333 18.492,158.333 16.417 L 158.333 14.000 163.458 13.980 C 166.277 13.969,168.640 13.969,168.708 13.980 C 168.777 13.991,168.833 13.325,168.833 12.500 C 168.833 11.116,168.808 11.000,168.503 11.000 C 168.290 11.000,168.136 10.852,168.068 10.583 L 167.964 10.167 163.149 10.167 L 158.333 10.167 158.333 7.750 C 158.333 6.250,158.270 5.333,158.167 5.333 C 158.075 5.333,158.000 5.183,158.000 5.000 C 158.000 4.674,158.111 4.667,162.896 4.667 C 165.589 4.667,168.026 4.620,168.313 4.563 L 168.833 4.458 168.833 3.091 C 168.833 1.780,168.818 1.724,168.458 1.737 C 168.191 1.746,168.068 1.642,168.030 1.375 L 167.977 1.000 161.183 1.000 C 157.446 1.000,154.341 1.048,154.282 1.107 M172.479 1.083 C 172.468 1.129,172.448 1.223,172.435 1.292 C 172.375 1.610,172.134 1.810,171.911 1.725 C 171.744 1.661,171.667 1.742,171.667 1.982 C 171.667 2.183,171.774 2.333,171.917 2.333 C 172.131 2.333,172.259 2.749,172.186 3.208 C 172.176 3.277,172.260 3.334,172.375 3.335 C 172.490 3.335,172.670 3.523,172.776 3.751 C 172.902 4.022,172.909 4.167,172.797 4.167 C 172.531 4.167,172.986 4.642,173.478 4.877 C 173.717 4.992,173.940 5.235,173.974 5.418 C 174.007 5.601,174.155 5.885,174.301 6.051 C 174.511 6.287,174.528 6.417,174.379 6.656 C 174.223 6.905,174.239 6.955,174.470 6.938 C 174.671 6.923,174.748 7.046,174.743 7.375 C 174.739 7.700,174.820 7.833,175.024 7.833 C 175.395 7.833,175.616 8.491,175.310 8.685 C 175.146 8.788,175.193 8.829,175.477 8.831 C 175.820 8.833,175.862 8.899,175.798 9.333 C 175.739 9.733,175.785 9.833,176.029 9.833 C 176.239 9.833,176.333 9.957,176.333 10.232 C 176.333 10.452,176.454 10.677,176.602 10.734 C 176.781 10.803,176.846 10.972,176.795 11.239 C 176.738 11.535,176.803 11.663,177.040 11.725 C 177.479 11.840,177.353 12.401,176.873 12.470 C 176.634 12.504,176.500 12.639,176.500 12.845 C 176.500 13.022,176.404 13.167,176.286 13.167 C 176.169 13.167,176.056 13.370,176.035 13.618 C 176.015 13.866,175.912 14.147,175.808 14.243 C 175.672 14.367,175.651 14.357,175.735 14.208 C 175.800 14.094,175.774 14.000,175.677 14.000 C 175.579 14.000,175.500 14.225,175.500 14.500 C 175.500 14.775,175.425 15.000,175.333 15.000 C 175.242 15.000,175.167 15.225,175.167 15.500 C 175.167 15.833,175.083 16.000,174.917 16.000 C 174.752 16.000,174.667 16.165,174.667 16.481 C 174.667 16.838,174.591 16.957,174.375 16.940 C 174.139 16.921,174.087 17.044,174.104 17.583 C 174.115 17.950,174.090 18.156,174.048 18.041 C 173.928 17.712,173.667 17.976,173.667 18.427 C 173.667 18.670,173.570 18.833,173.427 18.833 C 173.294 18.833,173.133 18.920,173.067 19.026 C 172.987 19.156,173.024 19.173,173.183 19.077 C 173.446 18.918,173.062 19.477,172.750 19.706 C 172.644 19.783,172.654 19.829,172.777 19.831 C 172.922 19.833,172.925 19.956,172.786 20.323 C 172.685 20.592,172.540 20.775,172.465 20.729 C 172.391 20.682,172.282 20.881,172.224 21.170 C 172.167 21.459,172.017 21.734,171.893 21.782 C 171.640 21.879,171.579 22.926,171.818 23.074 C 171.901 23.125,171.930 23.017,171.882 22.834 C 171.824 22.613,171.876 22.500,172.036 22.500 C 172.400 22.500,172.520 22.692,172.311 22.943 C 172.158 23.127,172.393 23.167,173.646 23.167 C 175.139 23.167,175.167 23.159,175.167 22.768 C 175.167 22.548,175.273 22.328,175.404 22.278 C 175.534 22.228,175.665 22.017,175.695 21.809 C 175.730 21.572,175.906 21.387,176.167 21.315 C 176.396 21.252,176.490 21.192,176.375 21.183 C 176.045 21.157,176.130 20.478,176.474 20.388 C 176.697 20.330,176.761 20.197,176.705 19.906 C 176.654 19.639,176.719 19.470,176.898 19.401 C 177.046 19.344,177.167 19.118,177.167 18.899 C 177.167 18.564,177.254 18.497,177.708 18.481 C 178.006 18.470,178.119 18.427,177.958 18.385 C 177.546 18.277,177.562 17.500,177.977 17.500 C 178.218 17.500,178.269 17.407,178.207 17.083 C 178.146 16.763,178.200 16.662,178.439 16.647 C 179.606 16.572,179.584 16.565,179.577 17.042 C 179.572 17.383,179.651 17.500,179.887 17.500 C 180.145 17.500,180.191 17.594,180.131 18.000 C 180.072 18.400,180.119 18.500,180.362 18.500 C 180.572 18.500,180.667 18.624,180.667 18.899 C 180.667 19.118,180.788 19.344,180.936 19.401 C 181.115 19.470,181.179 19.639,181.128 19.906 C 181.072 20.197,181.136 20.330,181.359 20.388 C 181.704 20.478,181.788 21.157,181.458 21.183 C 181.344 21.192,181.438 21.252,181.667 21.315 C 181.917 21.384,182.104 21.573,182.135 21.786 C 182.163 21.982,182.295 22.232,182.427 22.342 C 182.559 22.451,182.667 22.682,182.667 22.854 C 182.667 23.138,182.813 23.167,184.292 23.166 L 185.917 23.166 185.968 22.166 C 186.000 21.542,185.953 21.167,185.843 21.167 C 185.746 21.167,185.667 21.059,185.667 20.928 C 185.667 20.797,185.498 20.666,185.292 20.637 C 185.017 20.598,184.917 20.472,184.917 20.167 C 184.917 19.927,184.793 19.699,184.625 19.630 C 184.465 19.565,184.333 19.400,184.333 19.264 C 184.333 19.128,184.465 18.934,184.625 18.834 C 184.883 18.672,184.876 18.662,184.565 18.746 C 184.154 18.857,183.749 18.460,183.893 18.085 C 183.951 17.934,183.896 17.833,183.756 17.833 C 183.492 17.833,183.257 17.258,183.416 17.001 C 183.473 16.909,183.403 16.833,183.260 16.833 C 183.021 16.833,182.922 16.631,182.987 16.273 C 183.001 16.194,182.886 16.037,182.732 15.924 C 182.549 15.791,182.479 15.572,182.531 15.299 C 182.591 14.989,182.543 14.884,182.348 14.898 C 182.013 14.922,181.888 14.174,182.194 13.980 C 182.347 13.882,182.274 13.838,181.958 13.836 C 181.612 13.834,181.500 13.752,181.500 13.500 C 181.500 13.317,181.575 13.167,181.667 13.167 C 181.758 13.167,181.833 13.099,181.833 13.016 C 181.833 12.933,181.684 12.904,181.502 12.951 C 181.093 13.058,180.876 12.601,181.168 12.248 C 181.324 12.060,181.326 12.000,181.175 12.000 C 180.801 12.000,181.064 11.253,181.458 11.197 C 181.697 11.163,181.833 11.028,181.833 10.827 C 181.833 10.614,181.915 10.542,182.083 10.606 C 182.266 10.677,182.333 10.586,182.333 10.268 C 182.333 10.029,182.408 9.833,182.500 9.833 C 182.592 9.833,182.667 9.573,182.667 9.255 C 182.667 8.785,182.718 8.697,182.944 8.784 C 183.130 8.855,183.182 8.826,183.101 8.695 C 183.035 8.588,183.068 8.500,183.176 8.500 C 183.295 8.500,183.341 8.337,183.293 8.083 C 183.231 7.760,183.282 7.667,183.523 7.667 C 183.905 7.667,183.920 7.517,183.563 7.256 C 183.252 7.029,183.385 6.333,183.738 6.333 C 183.876 6.333,183.926 6.189,183.877 5.933 C 183.822 5.643,183.889 5.505,184.122 5.431 C 184.316 5.369,184.438 5.186,184.430 4.967 C 184.421 4.717,184.546 4.567,184.833 4.485 C 185.063 4.420,185.151 4.359,185.030 4.350 C 184.636 4.320,184.886 3.605,185.333 3.482 C 185.563 3.418,185.656 3.359,185.542 3.350 C 185.226 3.325,185.293 2.673,185.625 2.536 C 185.838 2.449,185.917 2.226,185.917 1.708 L 185.917 1.000 184.802 1.000 C 184.188 1.000,183.640 1.075,183.583 1.167 C 183.527 1.258,183.579 1.334,183.698 1.336 C 183.857 1.338,183.848 1.383,183.667 1.500 C 183.529 1.589,183.189 1.663,182.912 1.664 C 182.602 1.666,182.315 1.794,182.169 1.996 C 181.995 2.239,181.897 2.272,181.802 2.121 C 181.724 1.999,181.671 2.135,181.669 2.458 C 181.668 2.756,181.592 3.000,181.500 3.000 C 181.408 3.000,181.333 3.188,181.333 3.417 C 181.333 3.646,181.240 3.833,181.125 3.833 C 181.010 3.834,180.905 4.033,180.891 4.276 C 180.877 4.520,180.741 4.788,180.590 4.873 C 180.379 4.991,180.359 5.080,180.504 5.254 C 180.843 5.663,180.636 6.254,180.166 6.219 C 179.937 6.202,179.844 6.227,179.958 6.274 C 180.251 6.396,180.219 7.157,179.917 7.273 C 179.779 7.326,179.667 7.511,179.667 7.684 C 179.667 7.924,179.546 8.000,179.167 8.000 C 178.644 8.000,178.427 7.461,178.875 7.274 C 178.990 7.227,178.896 7.202,178.667 7.219 C 178.339 7.243,178.239 7.162,178.193 6.833 C 178.161 6.604,178.029 6.357,177.901 6.283 C 177.611 6.118,177.592 5.391,177.875 5.277 C 177.990 5.231,177.877 5.187,177.625 5.180 C 177.184 5.167,176.898 4.500,177.333 4.500 C 177.425 4.500,177.500 4.432,177.500 4.349 C 177.500 4.266,177.351 4.237,177.169 4.285 C 176.759 4.392,176.542 3.934,176.835 3.581 C 177.006 3.375,176.981 3.333,176.682 3.333 C 176.245 3.333,176.054 2.920,176.335 2.581 C 176.506 2.375,176.483 2.333,176.198 2.333 C 176.002 2.333,175.811 2.191,175.750 2.000 C 175.692 1.817,175.505 1.667,175.336 1.667 C 174.747 1.667,174.473 1.483,174.683 1.231 C 174.843 1.038,174.679 1.000,173.687 1.000 C 173.034 1.000,172.491 1.037,172.479 1.083 M189.500 1.247 C 189.500 1.386,189.575 1.500,189.667 1.500 C 189.776 1.500,189.833 5.136,189.833 12.073 C 189.833 18.943,189.775 22.683,189.667 22.750 C 189.082 23.111,190.054 23.167,196.980 23.167 L 204.460 23.167 204.488 21.419 L 204.516 19.671 199.050 19.627 L 193.583 19.583 193.530 19.208 C 193.501 19.002,193.561 18.833,193.663 18.833 C 193.792 18.833,193.844 18.174,193.833 16.708 C 193.823 15.540,193.820 14.453,193.825 14.294 C 193.833 14.027,194.234 14.001,199.125 13.961 L 204.417 13.917 204.464 12.195 C 204.502 10.827,204.468 10.499,204.298 10.602 C 204.145 10.694,204.150 10.648,204.316 10.444 C 204.535 10.174,204.239 10.160,199.191 10.204 L 193.833 10.250 193.831 7.833 C 193.830 6.504,193.784 5.248,193.728 5.042 L 193.628 4.667 199.072 4.667 L 204.516 4.667 204.489 2.840 L 204.462 1.013 196.981 1.003 C 190.397 0.995,189.500 1.024,189.500 1.247 M48.371 12.125 C 48.396 15.860,48.454 19.029,48.500 19.167 C 48.572 19.382,48.128 19.423,45.270 19.462 L 41.957 19.507 42.062 18.983 C 42.119 18.694,42.167 15.505,42.167 11.896 L 42.167 5.333 45.246 5.333 L 48.326 5.333 48.371 12.125 M157.791 8.951 C 157.759 9.665,157.734 9.125,157.733 7.750 C 157.733 6.375,157.759 5.790,157.790 6.451 C 157.822 7.111,157.822 8.236,157.791 8.951 M147.083 19.334 C 147.023 19.609,146.997 20.584,147.026 21.500 L 147.078 23.167 148.690 23.167 C 150.220 23.167,150.298 23.150,150.215 22.833 C 150.131 22.511,150.281 22.421,150.792 22.488 C 150.945 22.507,151.000 22.115,151.000 21.000 C 151.000 19.653,150.968 19.491,150.710 19.534 C 150.539 19.563,150.352 19.430,150.254 19.208 C 150.100 18.861,149.981 18.833,148.640 18.833 L 147.193 18.833 147.083 19.334 " stroke="none" fill="#050505" fill-rule="evenodd"></path><path id="path2" d="M37.785 1.333 C 37.833 1.517,37.794 1.667,37.698 1.667 C 37.603 1.667,37.490 1.535,37.448 1.375 C 37.406 1.215,37.363 5.937,37.353 11.870 C 37.335 21.858,37.354 22.648,37.610 22.550 C 37.830 22.466,37.867 22.519,37.792 22.805 C 37.740 23.004,37.747 23.167,37.807 23.167 C 37.867 23.167,37.917 18.179,37.917 12.083 C 37.917 5.987,37.867 1.000,37.807 1.000 C 37.747 1.000,37.737 1.150,37.785 1.333 M153.499 1.167 C 153.498 1.258,153.498 6.171,153.498 12.083 C 153.498 17.996,153.498 22.908,153.499 23.000 C 153.499 23.092,153.612 23.167,153.750 23.167 C 153.887 23.167,154.000 23.087,154.000 22.990 C 154.000 22.893,153.925 22.860,153.833 22.917 C 153.742 22.973,153.667 22.898,153.667 22.750 C 153.667 22.602,153.742 22.527,153.833 22.583 C 153.944 22.652,154.000 19.141,154.000 12.177 C 154.000 5.281,153.943 1.667,153.833 1.667 C 153.742 1.667,153.668 1.535,153.669 1.375 C 153.671 1.126,153.695 1.120,153.833 1.333 C 153.971 1.547,153.995 1.541,153.997 1.292 C 153.999 1.131,153.887 1.000,153.750 1.000 C 153.612 1.000,153.499 1.075,153.499 1.167 M55.725 3.167 C 55.725 3.946,55.754 4.265,55.789 3.875 C 55.824 3.485,55.824 2.848,55.789 2.458 C 55.754 2.069,55.725 2.387,55.725 3.167 M189.745 12.083 C 189.745 17.767,189.766 20.116,189.792 17.304 C 189.817 14.492,189.817 9.842,189.792 6.970 C 189.766 4.099,189.745 6.400,189.745 12.083 M128.912 12.083 C 128.912 17.675,128.933 19.938,128.958 17.113 C 128.984 14.288,128.984 9.713,128.958 6.946 C 128.933 4.180,128.912 6.492,128.912 12.083 M114.333 4.745 C 114.333 4.893,114.431 4.952,114.582 4.894 C 114.719 4.841,114.790 4.731,114.739 4.649 C 114.594 4.414,114.333 4.475,114.333 4.745 M120.278 4.611 C 120.066 4.822,120.168 5.000,120.500 5.000 C 120.685 5.000,120.833 4.889,120.833 4.750 C 120.833 4.496,120.481 4.408,120.278 4.611 M6.000 7.672 C 6.000 9.778,6.039 10.167,6.250 10.167 C 6.461 10.167,6.500 9.789,6.500 7.768 C 6.500 5.789,6.456 5.352,6.250 5.273 C 6.035 5.190,6.000 5.523,6.000 7.672 M175.750 9.947 C 175.933 9.997,176.145 10.124,176.221 10.228 C 176.312 10.353,176.336 10.332,176.291 10.167 C 176.254 10.029,176.042 9.903,175.820 9.886 C 175.502 9.862,175.487 9.875,175.750 9.947 M182.063 14.242 C 181.937 14.571,182.126 14.837,182.468 14.814 C 182.707 14.798,182.703 14.783,182.443 14.715 C 182.237 14.662,182.163 14.532,182.219 14.318 C 182.316 13.946,182.199 13.889,182.063 14.242 M114.608 18.411 C 114.557 18.546,114.586 18.700,114.674 18.754 C 114.762 18.809,114.833 18.817,114.833 18.773 C 114.833 18.730,114.879 18.575,114.934 18.430 C 114.990 18.285,114.961 18.167,114.869 18.167 C 114.777 18.167,114.660 18.277,114.608 18.411 M118.667 22.833 C 118.667 23.017,118.775 23.167,118.906 23.167 C 119.043 23.167,119.135 23.024,119.121 22.833 C 119.107 22.650,118.999 22.500,118.881 22.500 C 118.763 22.500,118.667 22.650,118.667 22.833 " stroke="none" fill="#5c5c5c" fill-rule="evenodd"></path><path id="path3" d="M1.833 1.306 C 1.833 1.699,1.973 1.833,2.266 1.721 C 2.635 1.579,2.555 1.000,2.167 1.000 C 1.955 1.000,1.833 1.111,1.833 1.306 M16.363 1.373 C 16.442 1.927,17.000 1.976,17.000 1.429 C 17.000 1.106,16.915 1.000,16.655 1.000 C 16.393 1.000,16.323 1.090,16.363 1.373 M19.611 1.111 C 19.550 1.172,19.500 6.160,19.500 12.194 L 19.500 23.167 19.875 23.167 L 20.250 23.167 20.250 12.083 C 20.250 0.529,20.247 0.475,19.611 1.111 M23.560 1.506 C 23.618 1.801,23.667 3.913,23.667 6.200 C 23.667 10.070,23.687 10.354,23.958 10.302 C 24.228 10.250,24.250 9.895,24.250 5.664 L 24.250 1.083 23.851 1.027 C 23.484 0.975,23.461 1.013,23.560 1.506 M30.667 1.465 C 30.667 1.968,31.155 1.906,31.350 1.377 C 31.470 1.051,31.436 1.009,31.077 1.039 C 30.767 1.064,30.667 1.168,30.667 1.465 M34.062 1.211 C 34.162 1.874,34.833 2.084,34.833 1.453 C 34.833 1.171,34.729 1.064,34.432 1.039 C 34.194 1.020,34.043 1.090,34.062 1.211 M37.940 1.625 C 37.629 3.506,37.853 23.508,38.179 22.980 C 38.251 22.863,38.239 22.635,38.153 22.474 C 37.974 22.139,38.020 1.977,38.201 1.375 C 38.263 1.169,38.253 1.000,38.179 1.000 C 38.104 1.000,37.997 1.281,37.940 1.625 M51.894 1.208 C 51.947 1.557,52.174 1.833,52.407 1.833 C 52.727 1.833,52.849 1.208,52.551 1.094 C 52.145 0.938,51.861 0.988,51.894 1.208 M55.872 1.500 C 55.872 1.821,55.906 1.952,55.948 1.792 C 55.990 1.631,55.990 1.369,55.948 1.208 C 55.906 1.048,55.872 1.179,55.872 1.500 M69.863 1.375 C 69.893 1.581,70.029 1.750,70.167 1.750 C 70.304 1.750,70.441 1.581,70.470 1.375 C 70.511 1.086,70.441 1.000,70.167 1.000 C 69.892 1.000,69.822 1.086,69.863 1.375 M73.745 12.083 C 73.745 18.225,73.766 20.713,73.792 17.613 C 73.817 14.512,73.817 9.487,73.792 6.446 C 73.766 3.405,73.745 5.942,73.745 12.083 M77.000 1.333 C 77.000 1.633,77.174 1.745,77.545 1.685 C 77.615 1.674,77.652 5.558,77.628 10.316 C 77.603 15.075,77.640 18.933,77.708 18.891 C 77.856 18.799,77.880 1.648,77.732 1.264 C 77.582 0.873,77.000 0.928,77.000 1.333 M84.208 1.110 C 84.094 1.157,84.000 1.343,84.000 1.525 C 84.000 1.988,84.670 1.870,84.851 1.375 C 84.992 0.994,84.747 0.893,84.208 1.110 M87.571 1.198 C 87.679 1.719,87.876 1.973,88.106 1.885 C 88.478 1.742,88.312 1.092,87.888 1.032 C 87.660 0.999,87.543 1.061,87.571 1.198 M110.833 1.167 C 110.971 1.256,111.008 1.331,110.917 1.333 C 110.204 1.355,111.480 1.662,112.292 1.664 C 113.223 1.666,113.333 1.631,113.333 1.333 C 113.333 1.027,113.223 1.000,111.958 1.003 C 111.009 1.004,110.661 1.055,110.833 1.167 M121.667 1.333 C 121.667 1.629,121.774 1.665,122.625 1.655 C 123.535 1.644,124.688 1.374,123.948 1.345 C 123.783 1.339,123.693 1.258,123.750 1.167 C 123.815 1.062,123.446 1.000,122.760 1.000 C 121.778 1.000,121.667 1.034,121.667 1.333 M125.167 1.315 C 125.167 1.498,125.315 1.691,125.500 1.750 C 125.829 1.854,125.833 2.002,125.833 12.122 C 125.833 17.769,125.787 22.342,125.730 22.286 C 125.558 22.113,125.128 22.658,125.229 22.921 C 125.353 23.246,125.771 23.235,125.899 22.903 C 126.045 22.523,126.019 1.449,125.872 1.250 C 125.635 0.927,125.167 0.970,125.167 1.315 M143.030 1.362 C 143.059 1.561,143.177 1.755,143.292 1.792 C 143.594 1.892,143.762 1.329,143.483 1.152 C 143.107 0.914,142.973 0.976,143.030 1.362 M154.037 12.125 C 154.057 18.244,154.095 22.125,154.120 20.750 C 154.234 14.496,154.238 1.000,154.125 1.000 C 154.056 1.000,154.017 6.006,154.037 12.125 M168.000 1.339 C 168.000 1.724,168.439 1.961,168.689 1.711 C 168.799 1.601,168.763 1.454,168.582 1.273 C 168.215 0.905,168.000 0.929,168.000 1.339 M172.017 1.152 C 171.878 1.241,171.830 1.417,171.898 1.594 C 172.025 1.925,172.367 1.706,172.434 1.252 C 172.475 0.967,172.356 0.938,172.017 1.152 M174.683 1.231 C 174.472 1.485,174.748 1.667,175.347 1.667 C 175.523 1.667,175.671 1.760,175.677 1.875 C 175.683 1.990,175.758 1.908,175.844 1.693 C 176.111 1.028,175.164 0.651,174.683 1.231 M182.333 1.333 C 182.333 1.703,183.187 1.810,183.667 1.500 C 183.848 1.383,183.857 1.338,183.698 1.336 C 183.579 1.334,183.527 1.258,183.583 1.167 C 183.646 1.066,183.418 1.000,183.010 1.000 C 182.444 1.000,182.333 1.055,182.333 1.333 M185.944 1.111 C 185.649 1.406,185.843 1.785,186.250 1.707 C 186.716 1.618,186.808 1.256,186.403 1.101 C 186.077 0.976,186.080 0.976,185.944 1.111 M153.412 12.083 C 153.412 17.950,153.433 20.326,153.458 17.363 C 153.484 14.400,153.484 9.600,153.458 6.696 C 153.433 3.792,153.412 6.217,153.412 12.083 M129.078 12.083 C 129.078 17.858,129.099 20.197,129.125 17.280 C 129.150 14.363,129.150 9.638,129.125 6.780 C 129.099 3.922,129.078 6.308,129.078 12.083 M176.223 2.761 C 176.091 3.105,176.385 3.385,176.774 3.285 C 177.017 3.222,176.999 3.201,176.689 3.186 C 176.380 3.171,176.313 3.094,176.382 2.833 C 176.485 2.439,176.367 2.386,176.223 2.761 M121.285 3.333 C 121.352 3.589,121.290 3.667,121.019 3.667 C 120.794 3.667,120.668 3.772,120.669 3.958 C 120.671 4.134,120.720 4.179,120.794 4.071 C 120.862 3.973,121.048 3.844,121.208 3.785 C 121.517 3.671,121.603 3.250,121.349 3.093 C 121.266 3.042,121.237 3.150,121.285 3.333 M184.896 3.745 C 184.844 3.879,184.841 4.085,184.888 4.203 C 184.935 4.320,184.980 4.253,184.987 4.053 C 184.995 3.815,185.129 3.665,185.375 3.618 L 185.750 3.545 185.370 3.523 C 185.161 3.510,184.947 3.610,184.896 3.745 M176.720 3.915 C 176.740 4.109,176.891 4.260,177.085 4.280 C 177.326 4.305,177.339 4.291,177.135 4.230 C 176.980 4.184,176.816 4.020,176.770 3.865 C 176.709 3.661,176.695 3.674,176.720 3.915 M11.425 4.625 C 6.501 4.671,6.179 4.707,6.169 5.208 C 6.168 5.277,8.604 5.333,11.583 5.333 L 17.000 5.333 17.000 4.917 C 17.000 4.616,16.919 4.511,16.708 4.539 C 16.548 4.561,14.170 4.599,11.425 4.625 M55.875 4.962 L 55.875 5.342 58.477 5.296 C 60.773 5.255,61.086 5.217,61.134 4.966 C 61.183 4.711,60.928 4.678,58.531 4.633 L 55.875 4.583 55.875 4.962 M67.771 4.625 C 65.292 4.685,64.185 5.044,65.858 5.246 C 67.892 5.491,70.411 5.288,70.470 4.875 C 70.510 4.594,70.447 4.509,70.220 4.536 C 70.053 4.556,68.951 4.596,67.771 4.625 M114.223 4.833 C 114.245 5.090,114.346 5.231,114.489 5.200 C 114.616 5.172,114.781 5.247,114.857 5.366 C 114.950 5.512,114.996 5.436,114.997 5.135 C 114.999 4.888,114.913 4.633,114.808 4.567 C 114.695 4.498,114.660 4.521,114.723 4.623 C 114.783 4.720,114.724 4.840,114.593 4.890 C 114.456 4.943,114.319 4.861,114.271 4.699 C 114.226 4.544,114.204 4.604,114.223 4.833 M138.042 4.625 C 133.139 4.670,133.000 4.681,133.000 5.002 C 133.000 5.326,133.124 5.333,138.333 5.333 L 143.667 5.333 143.667 4.917 C 143.667 4.616,143.585 4.511,143.375 4.539 C 143.215 4.561,140.815 4.599,138.042 4.625 M163.125 4.625 C 158.127 4.670,158.000 4.680,158.000 5.005 C 158.000 5.332,158.097 5.337,163.375 5.294 L 168.750 5.250 168.803 4.875 C 168.843 4.594,168.781 4.510,168.553 4.539 C 168.386 4.561,165.944 4.599,163.125 4.625 M95.417 4.833 C 95.140 5.281,95.693 5.333,100.727 5.333 C 105.842 5.333,106.333 5.287,106.333 4.800 C 106.333 4.599,95.541 4.632,95.417 4.833 M173.000 4.930 C 173.000 5.072,173.146 5.147,173.375 5.123 C 173.689 5.090,173.745 5.158,173.719 5.542 C 173.699 5.830,173.770 6.000,173.911 6.000 C 174.148 6.000,174.082 5.417,173.804 5.060 C 173.567 4.755,173.000 4.664,173.000 4.930 M184.397 4.950 C 184.434 5.152,184.381 5.345,184.278 5.379 C 184.176 5.414,184.257 5.485,184.460 5.538 C 184.761 5.617,184.802 5.584,184.686 5.359 C 184.609 5.207,184.497 4.971,184.437 4.833 C 184.377 4.693,184.359 4.744,184.397 4.950 M193.698 4.958 C 193.806 5.518,204.500 5.474,204.500 4.913 C 204.500 4.701,203.755 4.667,199.071 4.667 C 193.990 4.667,193.646 4.685,193.698 4.958 M5.870 7.698 C 5.834 10.287,5.933 10.801,6.381 10.352 C 6.517 10.216,6.493 10.167,6.288 10.167 C 6.041 10.167,6.003 9.870,5.958 7.625 L 5.907 5.083 5.870 7.698 M157.733 7.750 C 157.734 9.125,157.759 9.665,157.791 8.951 C 157.822 8.236,157.822 7.111,157.790 6.451 C 157.759 5.790,157.733 6.375,157.733 7.750 M183.869 5.868 C 183.927 6.188,183.874 6.339,183.684 6.390 C 183.514 6.435,183.554 6.468,183.795 6.481 C 184.125 6.498,184.159 6.442,184.063 6.042 C 183.917 5.431,183.766 5.296,183.869 5.868 M114.939 6.084 C 114.881 6.236,114.940 6.333,115.089 6.333 C 115.358 6.333,115.419 6.073,115.184 5.927 C 115.102 5.877,114.992 5.947,114.939 6.084 M177.904 6.254 C 178.081 6.387,178.266 6.456,178.316 6.406 C 178.421 6.301,177.998 6.004,177.750 6.008 C 177.658 6.009,177.728 6.120,177.904 6.254 M119.669 6.431 C 119.671 6.606,119.748 6.862,119.841 7.000 C 119.964 7.183,119.980 7.115,119.898 6.750 C 119.761 6.137,119.666 6.004,119.669 6.431 M174.240 6.552 C 174.086 6.882,174.109 6.936,174.406 6.950 C 174.595 6.959,174.664 6.933,174.559 6.892 C 174.455 6.851,174.407 6.671,174.454 6.492 C 174.569 6.052,174.456 6.083,174.240 6.552 M115.056 7.095 C 114.924 7.438,115.219 7.718,115.607 7.618 C 115.851 7.556,115.832 7.535,115.522 7.519 C 115.214 7.504,115.147 7.428,115.215 7.167 C 115.318 6.772,115.200 6.719,115.056 7.095 M178.167 7.077 C 178.167 7.120,178.326 7.240,178.520 7.344 C 178.727 7.455,178.830 7.463,178.769 7.364 C 178.712 7.271,178.759 7.157,178.874 7.111 C 178.989 7.064,178.877 7.020,178.625 7.013 C 178.373 7.006,178.167 7.035,178.167 7.077 M179.500 7.256 C 179.500 7.460,179.567 7.476,179.833 7.333 C 180.017 7.235,180.167 7.120,180.167 7.077 C 180.167 7.035,180.017 7.000,179.833 7.000 C 179.645 7.000,179.500 7.111,179.500 7.256 M119.542 7.451 C 119.335 7.491,119.167 7.586,119.167 7.663 C 119.167 7.835,119.804 7.682,119.929 7.480 C 119.979 7.399,119.996 7.344,119.968 7.356 C 119.940 7.369,119.748 7.411,119.542 7.451 M118.667 8.750 C 118.667 9.048,118.757 9.167,118.982 9.167 C 119.327 9.167,119.568 8.744,119.388 8.454 C 119.318 8.341,119.228 8.394,119.150 8.594 C 119.040 8.875,119.022 8.879,119.012 8.625 C 118.993 8.166,118.667 8.285,118.667 8.750 M115.500 8.755 C 115.500 8.896,115.616 9.055,115.757 9.109 C 116.134 9.254,116.154 9.124,115.806 8.792 C 115.547 8.545,115.500 8.539,115.500 8.755 M116.167 10.151 C 116.167 10.553,116.223 10.621,116.500 10.548 C 116.876 10.450,116.931 10.165,116.633 9.867 C 116.311 9.545,116.167 9.633,116.167 10.151 M16.361 10.525 C 16.392 10.741,16.552 10.939,16.722 10.971 C 16.958 11.017,17.015 10.942,16.972 10.642 C 16.941 10.426,16.781 10.228,16.611 10.195 C 16.375 10.150,16.319 10.225,16.361 10.525 M97.572 10.387 C 97.337 10.997,97.584 13.913,97.875 13.969 C 98.134 14.018,98.167 13.868,98.167 12.636 C 98.167 11.873,98.236 11.005,98.322 10.707 C 98.485 10.138,97.782 9.838,97.572 10.387 M135.111 10.278 C 134.838 10.551,135.006 11.022,135.357 10.970 C 135.891 10.890,136.115 10.167,135.606 10.167 C 135.395 10.167,135.172 10.217,135.111 10.278 M143.030 10.540 C 143.109 11.094,143.667 11.143,143.667 10.596 C 143.667 10.273,143.581 10.167,143.322 10.167 C 143.060 10.167,142.990 10.256,143.030 10.540 M168.000 10.320 C 168.000 10.700,168.229 11.000,168.518 11.000 C 168.849 11.000,168.900 10.866,168.732 10.430 C 168.625 10.152,168.000 10.058,168.000 10.320 M176.167 10.566 C 176.167 10.691,176.317 10.834,176.500 10.882 C 176.683 10.930,176.833 10.955,176.833 10.938 C 176.833 10.921,176.683 10.779,176.500 10.622 C 176.245 10.403,176.167 10.390,176.167 10.566 M117.833 11.500 C 117.833 11.592,117.941 11.667,118.073 11.667 C 118.206 11.667,118.360 11.592,118.417 11.500 C 118.473 11.408,118.365 11.333,118.177 11.333 C 117.988 11.333,117.833 11.408,117.833 11.500 M176.792 11.776 C 177.258 11.876,177.284 12.284,176.831 12.386 C 176.551 12.448,176.558 12.457,176.872 12.439 C 177.428 12.406,177.393 11.759,176.833 11.723 C 176.466 11.699,176.461 11.705,176.792 11.776 M117.500 12.417 C 117.500 12.646,117.529 12.833,117.564 12.833 C 117.599 12.833,117.664 12.646,117.707 12.417 C 117.751 12.188,117.723 12.000,117.644 12.000 C 117.565 12.000,117.500 12.188,117.500 12.417 M181.053 12.581 C 181.073 12.776,181.224 12.927,181.419 12.947 C 181.659 12.972,181.673 12.958,181.469 12.897 C 181.314 12.851,181.149 12.686,181.103 12.531 C 181.042 12.327,181.028 12.341,181.053 12.581 M23.667 18.229 C 23.667 20.372,23.618 22.366,23.560 22.661 C 23.461 23.154,23.484 23.192,23.851 23.140 L 24.250 23.083 24.294 18.708 C 24.338 14.418,24.332 14.333,24.003 14.333 C 23.675 14.333,23.667 14.434,23.667 18.229 M102.000 17.004 L 102.000 19.507 98.708 19.462 C 95.680 19.420,95.421 19.393,95.466 19.125 C 95.493 18.965,95.443 18.833,95.355 18.833 C 95.268 18.833,95.221 18.965,95.252 19.125 C 95.283 19.285,95.314 19.473,95.321 19.542 C 95.344 19.772,101.965 19.691,102.115 19.458 C 102.359 19.081,102.445 14.499,102.208 14.500 C 102.051 14.500,102.000 15.112,102.000 17.004 M157.693 16.909 C 157.726 18.311,157.824 19.391,157.927 19.494 C 158.047 19.614,159.756 19.656,163.177 19.625 L 168.250 19.578 163.106 19.539 C 158.053 19.501,157.963 19.494,158.048 19.167 C 158.096 18.983,158.063 18.833,157.975 18.833 C 157.878 18.833,157.835 17.978,157.866 16.666 C 157.894 15.475,157.853 14.500,157.776 14.500 C 157.699 14.500,157.661 15.584,157.693 16.909 M182.500 15.744 C 182.500 15.787,182.650 15.902,182.833 16.000 C 183.099 16.142,183.167 16.127,183.167 15.923 C 183.167 15.778,183.022 15.667,182.833 15.667 C 182.650 15.667,182.500 15.702,182.500 15.744 M114.071 16.722 C 113.881 17.216,114.166 17.661,114.379 17.203 C 114.506 16.929,114.503 16.770,114.367 16.633 C 114.226 16.492,114.150 16.515,114.071 16.722 M183.190 16.778 C 183.369 16.826,183.441 16.979,183.397 17.217 C 183.359 17.423,183.377 17.474,183.437 17.333 C 183.496 17.196,183.619 16.990,183.709 16.875 C 183.834 16.718,183.757 16.671,183.395 16.686 C 183.132 16.697,183.040 16.738,183.190 16.778 M120.542 16.944 C 120.427 16.990,120.333 17.090,120.333 17.165 C 120.333 17.335,120.972 17.180,121.096 16.980 C 121.192 16.824,120.888 16.804,120.542 16.944 M183.699 17.780 C 183.864 17.823,183.943 17.954,183.889 18.096 C 183.784 18.368,184.108 18.836,184.395 18.828 C 184.499 18.825,184.446 18.743,184.278 18.645 C 184.060 18.519,184.001 18.353,184.072 18.067 C 184.157 17.729,184.114 17.670,183.795 17.686 C 183.528 17.700,183.499 17.727,183.699 17.780 M114.444 17.944 C 114.274 18.115,114.312 18.634,114.504 18.753 C 114.598 18.811,114.664 18.796,114.651 18.721 C 114.596 18.403,114.678 18.167,114.845 18.167 C 114.948 18.167,114.980 18.323,114.920 18.542 C 114.835 18.851,114.848 18.868,114.992 18.639 C 115.297 18.156,114.828 17.561,114.444 17.944 M177.167 18.857 C 177.167 19.053,177.037 19.308,176.878 19.424 C 176.622 19.611,176.638 19.626,177.014 19.554 C 177.375 19.485,177.428 19.401,177.367 18.986 C 177.283 18.418,177.167 18.342,177.167 18.857 M180.523 18.958 C 180.507 19.339,180.574 19.500,180.750 19.500 C 180.892 19.500,181.008 19.661,181.019 19.875 C 181.036 20.202,181.049 20.208,181.121 19.928 C 181.166 19.749,181.090 19.523,180.951 19.421 C 180.812 19.320,180.664 19.052,180.622 18.827 C 180.559 18.487,180.542 18.509,180.523 18.958 M42.000 19.167 C 42.000 19.489,42.111 19.500,45.222 19.500 C 48.512 19.500,48.710 19.474,48.554 19.067 C 48.388 18.635,42.000 18.732,42.000 19.167 M132.863 19.208 C 132.917 19.583,132.920 19.583,136.292 19.589 L 139.667 19.594 136.315 19.543 C 133.069 19.495,132.966 19.483,133.049 19.163 C 133.097 18.982,133.062 18.833,132.973 18.833 C 132.883 18.833,132.834 19.002,132.863 19.208 M150.167 19.063 C 150.167 19.404,150.558 19.670,150.822 19.507 C 150.946 19.430,151.002 19.247,150.946 19.100 C 150.821 18.774,150.167 18.743,150.167 19.063 M193.530 19.208 L 193.583 19.583 199.083 19.587 L 204.583 19.590 199.106 19.543 C 193.735 19.496,193.631 19.489,193.716 19.164 C 193.763 18.982,193.729 18.833,193.639 18.833 C 193.550 18.833,193.501 19.002,193.530 19.208 M114.836 19.208 C 114.834 19.386,114.959 19.500,115.154 19.500 C 115.331 19.500,115.510 19.631,115.552 19.792 C 115.623 20.065,115.629 20.065,115.647 19.786 C 115.658 19.623,115.535 19.441,115.375 19.382 C 115.215 19.323,115.028 19.194,114.961 19.095 C 114.887 18.988,114.837 19.033,114.836 19.208 M80.833 19.500 L 77.417 19.594 80.782 19.630 C 82.886 19.653,84.186 19.604,84.250 19.500 C 84.307 19.408,84.330 19.350,84.302 19.370 C 84.273 19.390,82.712 19.448,80.833 19.500 M4.958 19.625 C 6.448 19.652,8.885 19.652,10.375 19.625 C 11.865 19.597,10.646 19.574,7.667 19.574 C 4.688 19.574,3.469 19.597,4.958 19.625 M146.864 20.917 C 146.860 21.742,146.913 22.559,146.981 22.733 C 147.049 22.907,147.077 22.345,147.043 21.483 C 146.959 19.361,146.874 19.090,146.864 20.917 M181.115 20.441 C 181.315 20.485,181.513 20.667,181.554 20.846 C 181.611 21.099,181.623 21.088,181.606 20.794 C 181.589 20.517,181.473 20.409,181.167 20.389 C 180.820 20.367,180.811 20.375,181.115 20.441 M115.641 20.953 C 115.941 21.010,116.011 21.107,115.942 21.371 C 115.878 21.616,115.903 21.663,116.031 21.535 C 116.308 21.259,116.055 20.831,115.630 20.856 L 115.250 20.879 115.641 20.953 M119.063 21.075 C 118.945 21.385,119.118 21.667,119.427 21.667 C 119.572 21.667,119.667 21.502,119.667 21.250 C 119.667 20.792,119.221 20.663,119.063 21.075 M175.778 21.444 C 175.717 21.506,175.667 21.689,175.667 21.853 C 175.667 22.016,175.535 22.234,175.375 22.338 C 175.103 22.513,175.104 22.519,175.389 22.429 C 175.557 22.376,175.752 22.333,175.824 22.333 C 175.895 22.333,175.919 22.152,175.877 21.930 C 175.816 21.610,175.880 21.512,176.192 21.453 C 176.536 21.388,176.542 21.376,176.236 21.356 C 176.045 21.344,175.839 21.383,175.778 21.444 M181.625 21.443 C 182.039 21.531,182.163 22.238,181.792 22.392 C 181.677 22.440,181.765 22.465,181.988 22.448 C 182.290 22.425,182.423 22.522,182.513 22.833 C 182.620 23.203,182.635 23.210,182.650 22.895 C 182.659 22.700,182.559 22.451,182.427 22.342 C 182.295 22.232,182.163 21.979,182.135 21.780 C 182.099 21.527,181.957 21.408,181.667 21.389 C 181.299 21.365,181.295 21.372,181.625 21.443 M115.833 22.209 C 115.833 22.337,116.033 22.624,116.277 22.846 C 116.521 23.068,116.652 23.137,116.569 23.000 C 116.485 22.863,116.417 22.601,116.417 22.420 C 116.417 22.238,116.285 22.064,116.125 22.033 C 115.959 22.000,115.833 22.076,115.833 22.209 M64.872 22.667 C 64.872 22.988,64.906 23.119,64.948 22.958 C 64.990 22.798,64.990 22.535,64.948 22.375 C 64.906 22.215,64.872 22.346,64.872 22.667 M87.732 22.597 C 87.609 23.086,87.717 23.247,88.076 23.109 C 88.405 22.983,88.411 22.399,88.085 22.274 C 87.918 22.210,87.802 22.315,87.732 22.597 M118.533 22.367 C 118.291 22.609,118.268 23.167,118.500 23.167 C 118.592 23.167,118.667 23.017,118.667 22.833 C 118.667 22.648,118.778 22.500,118.917 22.500 C 119.054 22.500,119.167 22.425,119.167 22.333 C 119.167 22.103,118.776 22.124,118.533 22.367 M185.917 22.499 C 185.790 22.898,185.931 23.167,186.265 23.167 C 186.606 23.167,186.746 22.713,186.498 22.415 C 186.219 22.078,186.043 22.103,185.917 22.499 M1.833 22.750 C 1.833 23.013,1.927 23.167,2.089 23.167 C 2.437 23.167,2.603 22.668,2.316 22.486 C 1.941 22.248,1.833 22.307,1.833 22.750 M16.397 22.575 C 16.278 22.885,16.451 23.167,16.760 23.167 C 16.905 23.167,17.000 23.002,17.000 22.750 C 17.000 22.292,16.555 22.163,16.397 22.575 M30.843 22.494 C 30.539 22.682,30.748 23.189,31.077 23.063 C 31.348 22.959,31.424 22.576,31.200 22.438 C 31.127 22.392,30.966 22.418,30.843 22.494 M34.185 22.561 C 34.041 22.734,34.055 22.838,34.241 22.992 C 34.546 23.246,34.833 23.083,34.833 22.657 C 34.833 22.283,34.461 22.228,34.185 22.561 M52.018 22.561 C 51.779 22.850,52.201 23.253,52.588 23.104 C 52.793 23.026,52.810 22.934,52.668 22.669 C 52.457 22.276,52.280 22.246,52.018 22.561 M60.922 22.695 C 61.077 23.197,61.071 23.193,61.401 23.066 C 61.800 22.913,61.655 22.427,61.191 22.361 C 60.853 22.313,60.818 22.357,60.922 22.695 M112.704 22.529 C 112.561 22.673,112.557 22.785,112.691 22.946 C 112.991 23.308,113.333 23.203,113.333 22.750 C 113.333 22.308,113.031 22.202,112.704 22.529 M121.723 22.595 C 121.584 22.957,121.936 23.297,122.189 23.045 C 122.402 22.831,122.270 22.333,122.000 22.333 C 121.903 22.333,121.778 22.451,121.723 22.595 M143.063 22.575 C 142.945 22.885,143.118 23.167,143.427 23.167 C 143.572 23.167,143.667 23.002,143.667 22.750 C 143.667 22.292,143.221 22.163,143.063 22.575 M150.336 22.499 C 150.033 22.686,150.267 23.204,150.623 23.135 C 150.782 23.105,150.936 22.959,150.965 22.811 C 151.026 22.494,150.647 22.306,150.336 22.499 M168.063 22.575 C 167.944 22.887,168.118 23.167,168.432 23.167 C 168.772 23.167,168.933 22.665,168.649 22.486 C 168.318 22.276,168.170 22.299,168.063 22.575 M171.833 22.740 C 171.833 22.872,171.900 23.021,171.981 23.072 C 172.165 23.185,172.538 22.760,172.387 22.610 C 172.189 22.411,171.833 22.495,171.833 22.740 " stroke="none" fill="#454545" fill-rule="evenodd"></path><path id="path4" d="M37.449 1.324 C 37.499 1.512,37.611 1.667,37.698 1.667 C 37.920 1.667,37.795 1.126,37.555 1.046 C 37.431 1.005,37.392 1.106,37.449 1.324 M55.619 1.336 C 55.686 1.594,55.644 1.648,55.438 1.568 C 55.290 1.512,55.217 1.386,55.277 1.290 C 55.340 1.188,55.305 1.165,55.192 1.234 C 54.923 1.401,54.930 4.863,55.200 5.133 C 55.669 5.602,55.750 5.312,55.750 3.167 C 55.750 1.975,55.701 1.000,55.641 1.000 C 55.580 1.000,55.571 1.151,55.619 1.336 M128.625 1.110 C 128.740 1.157,128.827 1.319,128.820 1.472 C 128.812 1.647,128.776 1.672,128.723 1.541 C 128.395 0.727,128.330 2.503,128.336 12.093 C 128.343 22.607,128.362 23.167,128.726 23.167 C 128.867 23.167,128.917 20.286,128.917 12.083 C 128.917 2.337,128.887 1.002,128.667 1.013 C 128.496 1.022,128.483 1.053,128.625 1.110 M72.872 12.032 C 72.851 18.054,72.890 23.015,72.958 23.058 C 73.072 23.128,73.070 15.152,72.955 5.000 C 72.930 2.846,72.893 6.010,72.872 12.032 M175.944 1.611 C 175.715 1.841,175.845 2.167,176.167 2.167 C 176.389 2.167,176.500 2.056,176.500 1.833 C 176.500 1.512,176.174 1.382,175.944 1.611 M73.578 12.083 C 73.578 17.858,73.599 20.197,73.625 17.280 C 73.650 14.363,73.650 9.638,73.625 6.780 C 73.599 3.922,73.578 6.308,73.578 12.083 M176.617 2.721 C 176.681 3.014,176.662 3.036,176.517 2.833 C 176.419 2.696,176.337 2.665,176.336 2.764 C 176.332 3.037,176.506 3.154,176.766 3.054 C 177.067 2.939,177.068 2.562,176.769 2.447 C 176.603 2.383,176.560 2.461,176.617 2.721 M113.775 3.245 C 113.668 3.523,113.917 3.738,114.167 3.583 C 114.416 3.429,114.368 3.000,114.101 3.000 C 113.973 3.000,113.827 3.110,113.775 3.245 M177.064 3.592 C 177.127 3.757,177.095 3.809,176.976 3.735 C 176.867 3.668,176.820 3.710,176.862 3.837 C 176.942 4.077,177.500 4.219,177.500 3.999 C 177.500 3.710,177.291 3.333,177.131 3.333 C 177.039 3.333,177.009 3.450,177.064 3.592 M65.078 13.833 C 65.078 18.646,65.099 20.615,65.125 18.208 C 65.151 15.802,65.151 11.865,65.125 9.458 C 65.099 7.052,65.078 9.021,65.078 13.833 M184.365 5.603 C 184.520 5.649,184.684 5.814,184.730 5.969 C 184.791 6.173,184.805 6.159,184.780 5.919 C 184.760 5.724,184.609 5.573,184.415 5.553 C 184.174 5.528,184.161 5.542,184.365 5.603 M180.500 5.806 C 180.500 5.912,180.331 6.009,180.125 6.019 C 179.816 6.035,179.805 6.053,180.059 6.118 C 180.392 6.204,180.802 5.913,180.614 5.725 C 180.551 5.662,180.500 5.699,180.500 5.806 M115.768 8.430 C 115.625 8.803,115.636 8.833,115.917 8.833 C 116.056 8.833,116.167 8.685,116.167 8.500 C 116.167 8.103,115.911 8.058,115.768 8.430 M176.708 11.953 C 176.594 11.994,176.500 12.090,176.500 12.166 C 176.500 12.339,176.897 12.290,176.972 12.107 C 177.049 11.920,176.955 11.865,176.708 11.953 M181.263 12.276 C 181.210 12.416,181.206 12.595,181.255 12.674 C 181.380 12.877,181.833 12.676,181.833 12.417 C 181.833 12.096,181.376 11.983,181.263 12.276 M178.708 16.784 C 178.474 16.829,178.333 16.977,178.333 17.178 C 178.333 17.566,178.637 17.605,178.778 17.236 C 178.834 17.091,179.038 16.908,179.232 16.830 C 179.598 16.682,179.352 16.660,178.708 16.784 M177.863 17.945 C 177.944 18.363,178.333 18.420,178.333 18.014 C 178.333 17.809,178.226 17.667,178.071 17.667 C 177.916 17.667,177.831 17.780,177.863 17.945 M12.720 19.042 C 12.816 19.315,12.490 19.336,7.536 19.373 L 2.250 19.412 7.489 19.458 C 12.712 19.505,13.365 19.444,12.842 18.958 C 12.659 18.788,12.636 18.804,12.720 19.042 M139.387 19.042 C 139.519 19.418,133.262 19.501,133.110 19.125 C 133.060 19.001,133.021 19.034,133.013 19.208 C 133.001 19.477,133.260 19.500,136.240 19.500 C 139.457 19.500,139.997 19.408,139.494 18.944 C 139.330 18.792,139.307 18.814,139.387 19.042 M204.216 19.056 C 204.314 19.311,203.902 19.333,199.092 19.333 C 195.063 19.333,193.842 19.285,193.777 19.125 C 193.727 19.001,193.688 19.034,193.680 19.208 C 193.668 19.480,194.031 19.500,199.083 19.500 C 204.551 19.500,205.163 19.430,204.305 18.899 C 204.174 18.818,204.145 18.870,204.216 19.056 M158.144 19.378 C 158.214 19.448,160.517 19.485,163.261 19.461 L 168.250 19.416 163.133 19.333 C 160.319 19.287,158.074 19.307,158.144 19.378 M79.301 19.458 C 80.245 19.488,81.745 19.487,82.634 19.457 C 83.523 19.428,82.750 19.403,80.917 19.403 C 79.083 19.404,78.356 19.428,79.301 19.458 M97.134 19.458 C 98.078 19.488,99.578 19.487,100.467 19.457 C 101.356 19.428,100.583 19.403,98.750 19.403 C 96.917 19.404,96.189 19.428,97.134 19.458 M114.908 19.848 C 114.762 20.083,115.083 20.404,115.319 20.259 C 115.583 20.096,115.540 19.667,115.260 19.667 C 115.128 19.667,114.969 19.748,114.908 19.848 M146.725 21.000 C 146.725 21.779,146.754 22.098,146.789 21.708 C 146.824 21.319,146.824 20.681,146.789 20.292 C 146.754 19.902,146.725 20.221,146.725 21.000 M37.456 22.600 C 37.306 22.750,37.513 23.179,37.684 23.073 C 37.766 23.022,37.833 22.872,37.833 22.740 C 37.833 22.495,37.635 22.421,37.456 22.600 " stroke="none" fill="#6c6c6c" fill-rule="evenodd"></path></g></svg>